<?xml version="1.0" standalone="no"?>
<!DOCTYPE svg PUBLIC "-//W3C//DTD SVG 1.1//EN" "http://www.w3.org/Graphics/SVG/1.1/DTD/svg11.dtd" >
<svg xmlns="http://www.w3.org/2000/svg" xmlns:xlink="http://www.w3.org/1999/xlink" version="1.1">
<metadata>
Created by FontForge 20170731 at Sat May  7 17:39:33 2022
 By Aleksey,,,
</metadata>
<defs>
<font id="BoschRegular" horiz-adv-x="1167" >
  <font-face 
    font-family="Bosch"
    font-weight="400"
    font-stretch="normal"
    units-per-em="2048"
    panose-1="0 0 0 0 0 0 0 0 0 0"
    ascent="1638"
    descent="-410"
    x-height="965"
    cap-height="1263"
    bbox="-176 -362 2059 1445.65"
    underline-thickness="102"
    underline-position="-307"
    unicode-range="U+000A-03CE"
  />
<missing-glyph horiz-adv-x="1079" 
d="M102 1434h875v-1434h-875v1434zM160 1393l379 -633l381 633h-760zM514 717l-369 614v-1231zM541 674l-379 -631h758zM565 717l371 -621v1239z" />
    <glyph glyph-name=".notdef" horiz-adv-x="1079" 
d="M102 1434h875v-1434h-875v1434zM160 1393l379 -633l381 633h-760zM514 717l-369 614v-1231zM541 674l-379 -631h758zM565 717l371 -621v1239z" />
    <glyph glyph-name=".null" horiz-adv-x="0" 
 />
    <glyph glyph-name=".null" horiz-adv-x="0" 
 />
    <glyph glyph-name="nonmarkingreturn" horiz-adv-x="682" 
 />
    <glyph glyph-name="controlLF" unicode="&#xa;" horiz-adv-x="0" 
 />
    <glyph glyph-name="controlCR" unicode="&#xd;" horiz-adv-x="0" 
 />
    <glyph glyph-name="space" unicode=" " horiz-adv-x="565" 
 />
    <glyph glyph-name="exclam" unicode="!" horiz-adv-x="452" 
d="M227 236q43 0 73.5 -31t30.5 -74t-30.5 -74t-73.5 -31t-73 31t-30 74t30 74t73 31zM303 1169v-726q0 -62 35 -116h-221l3 6q26 47 26 101v744q0 55 -26 102l-3 5h221q-35 -52 -35 -116z" />
    <glyph glyph-name="quotedbl" unicode="&#x22;" horiz-adv-x="415" 
d="M66 962l7 480h121zM287 1442h121l-129 -480z" />
    <glyph glyph-name="quotedbl" unicode="&#x201d;" horiz-adv-x="415" 
d="M66 962l7 480h121zM287 1442h121l-129 -480z" />
    <glyph glyph-name="quotedbl" unicode="&#x201c;" horiz-adv-x="415" 
d="M66 962l7 480h121zM287 1442h121l-129 -480z" />
    <glyph glyph-name="numbersign" unicode="#" horiz-adv-x="1071" 
d="M999 782h-226l-106 -367h218v-27h-227l-99 -351h-25l98 351h-304l-98 -351h-26l98 351h-230v27h237l105 367h-228v28h235l100 341h27l-98 -341h301l100 341h27l-98 -341h219v-28zM639 415l105 367h-301l-106 -367h302z" />
    <glyph glyph-name="dollar" unicode="$" horiz-adv-x="1202" 
d="M615 687q85 -21 145.5 -39t129 -47t110 -61t69.5 -79t28 -103q0 -88 -64.5 -163.5t-175 -120.5t-242.5 -47v-126h-52v127q-193 10 -326 105t-133 225h158q0 -118 73.5 -193.5t227.5 -84.5v565q-74 16 -133 33.5t-122.5 45.5t-106 60.5t-70 80.5t-27.5 104q0 130 133 225
t326 105v127h52v-126q132 -2 242.5 -47t175 -120.5t64.5 -163.5h-158q0 122 -79 198t-245 80v-560zM563 699v548q-154 -9 -227.5 -84.5t-73.5 -193.5q0 -52 9.5 -86.5t39.5 -70t91.5 -63t160.5 -50.5zM615 79q166 4 245 80.5t79 198.5q0 107 -67 167t-257 108v-554z" />
    <glyph glyph-name="percent" unicode="%" horiz-adv-x="1132" 
d="M1014 1267l-831 -1245l-44 29l831 1245zM290 846q-85 0 -144.5 66.5t-59.5 160.5t59.5 160t144.5 66t144.5 -66t59.5 -160t-59.5 -160.5t-144.5 -66.5zM290 1281q-22 0 -37 -5t-24 -17t-14 -23.5t-6.5 -33t-1.5 -37t1 -45t1 -47.5t-1 -47.5t-1 -45t1.5 -37.5t6.5 -33.5
t14 -23.5t24 -17t37 -5t37 5t24 17t14 23.5t6.5 33.5t1.5 37.5t-1 45t-1 47.5t1 47.5t1 45t-1.5 37t-6.5 33t-14 23.5t-24 17t-37 5zM840 475q85 0 144.5 -66t59.5 -160t-59.5 -160.5t-144.5 -66.5t-144.5 66.5t-59.5 160.5t59.5 160t144.5 66zM840 40q22 0 37 5t24 17
t14.5 23.5t7 33.5t1.5 37.5t-1 45.5t-1 47t1 47t1 45t-1.5 37.5t-7 33.5t-14.5 23t-24 17t-37 5t-37 -5t-24 -17t-14 -23.5t-6.5 -33t-1.5 -37t1 -45t1 -47.5t-1 -47.5t-1 -45t1.5 -37.5t6.5 -33.5t14 -23.5t24 -17t37 -5z" />
    <glyph glyph-name="ampersand" unicode="&#x26;" horiz-adv-x="1697" 
d="M1182 481l471 -465h-180l-349 403l-236 -254q-65 -72 -154 -112t-186 -40q-188 0 -322 134t-134 322t134 322t322 134q119 0 255 -90q-24 63 -24 107q0 136 96 232t232 96q132 0 227 -93l-82 -84q-62 123 -145 123q-113 0 -193.5 -80.5t-80.5 -193.5q0 -46 28 -107.5
t62 -96.5q3 -3 9 -8.5t10 -10t8 -8.5v-1l194 -191l271 290l39 -37zM848 201l241 259l-180 207q-74 87 -160 139q-105 65 -201 65q-78 0 -136 -29.5t-91 -81t-51.5 -120.5t-18 -148.5t8.5 -164.5q14 -111 97 -186t194 -74q85 1 162.5 35.5t134.5 98.5z" />
    <glyph glyph-name="quotesingle" unicode="'" horiz-adv-x="200" 
d="M73 1442h121l-128 -480z" />
    <glyph glyph-name="quotesingle" unicode="&#x2019;" horiz-adv-x="200" 
d="M73 1442h121l-128 -480z" />
    <glyph glyph-name="quotesingle" unicode="&#x2018;" horiz-adv-x="200" 
d="M73 1442h121l-128 -480z" />
    <glyph glyph-name="parenleft" unicode="(" horiz-adv-x="509" 
d="M264 618q0 -251 68 -451.5t196 -300.5l-3 -5q-181 83 -297.5 291.5t-116.5 465.5t116.5 466t297.5 292l3 -5q-128 -100 -196 -301t-68 -452z" />
    <glyph glyph-name="parenright" unicode=")" horiz-adv-x="509" 
d="M-15 1376q181 -83 297.5 -292t116.5 -466t-116.5 -465.5t-297.5 -291.5l-3 5q128 100 195.5 300t67.5 452t-67.5 452.5t-195.5 300.5z" />
    <glyph glyph-name="asterisk" unicode="*" horiz-adv-x="550" 
d="M481 1121l-192 -64l192 -63l-48 -84l-151 136l41 -198h-97l41 198l-151 -136l-48 84l192 63l-192 64l48 82l151 -132l-41 196h97l-41 -196l151 132z" />
    <glyph glyph-name="plus" unicode="+" horiz-adv-x="759" 
d="M398 482h306v-39h-306v-305h-38v305h-305v39h305v305h38v-305z" />
    <glyph glyph-name="comma" unicode="," horiz-adv-x="317" 
d="M158 236q43 0 73.5 -30t30.5 -73q0 -59 -63.5 -155.5t-143.5 -183.5l-18 18q110 146 146 216h-25q-43 0 -73 31t-30 74t30 73t73 30z" />
    <glyph glyph-name="period" unicode="." horiz-adv-x="309" 
d="M155 236q43 0 73 -31t30 -74t-30 -74t-73 -31t-73.5 31t-30.5 74t30.5 74t73.5 31z" />
    <glyph glyph-name="slash" unicode="/" horiz-adv-x="794" 
d="M730 1285h30l-683 -1248h-30z" />
    <glyph glyph-name="zero" unicode="0" horiz-adv-x="1148" 
d="M574 1255q127 0 235.5 -84t171.5 -229t63 -316t-63 -316t-171.5 -229t-235.5 -84t-235.5 84t-171.5 229t-63 316t63 316t171.5 229t235.5 84zM574 42q68 0 123 30t91.5 82.5t61 127t35 160t10.5 184.5t-10.5 184.5t-35 160t-61 127t-91.5 82.5t-123 30q-85 0 -148 -45
t-100 -127t-54.5 -184.5t-17.5 -227.5t17.5 -227.5t54.5 -184.5t100 -127t148 -45z" />
    <glyph glyph-name="one" unicode="1" horiz-adv-x="466" 
d="M313 1262v-1151q0 -61 32 -113h-220q32 52 32 113v995q0 60 -42 102z" />
    <glyph glyph-name="two" unicode="2" horiz-adv-x="1146" 
d="M266 332v-278h765v-51h-920v329q0 56 27 102.5t67.5 78.5t107 61t124 47t140.5 39q73 16 126.5 33.5t89 39t57.5 42.5t33 49t14.5 53.5t3.5 61.5q0 125 -76 201.5t-241 76.5t-241.5 -76.5t-76.5 -201.5h-155q0 89 63.5 165t172.5 120t237 44t237 -44t172.5 -120
t63.5 -165q0 -49 -19 -91t-54.5 -74t-78 -57t-99 -45t-106.5 -34t-111 -27q-99 -25 -161.5 -51.5t-98.5 -60.5t-49.5 -72.5t-13.5 -94.5z" />
    <glyph glyph-name="three" unicode="3" horiz-adv-x="1146" 
d="M1033 933q0 -103 -83.5 -185.5t-216.5 -118.5q133 -36 216.5 -119t83.5 -186q0 -135 -137.5 -230.5t-331.5 -95.5t-332 95.5t-138 230.5h149q0 -126 77.5 -204t243.5 -78t243.5 78t77.5 204t-77.5 204t-243.5 78v45q166 0 243.5 78t77.5 204t-77.5 204t-243.5 78
t-243.5 -78t-77.5 -204h-149q0 135 138 230.5t332 95.5t331.5 -95.5t137.5 -230.5z" />
    <glyph glyph-name="four" unicode="4" 
d="M1046 1254q-31 -50 -31 -112v-1032q0 -62 31 -112h-219q31 50 31 112v328h-790v116l828 700h150zM858 490v608l-634 -568l-39 -40h673z" />
    <glyph glyph-name="five" unicode="5" horiz-adv-x="1177" 
d="M1063 927h-156h-30q30 30 30 75v200h-635v-422h318q196 0 334.5 -115t138.5 -276t-138.5 -275.5t-334.5 -114.5t-334.5 114.5t-138.5 275.5h155q0 -73 17.5 -132.5t54 -107t99 -73.5t147.5 -26t147.5 26t99 73.5t53.5 107t17 132.5t-17 132.5t-53.5 107t-99 74
t-147.5 26.5h-473v524h946v-326z" />
    <glyph glyph-name="six" unicode="6" horiz-adv-x="1173" 
d="M596 1254q-165 0 -241.5 -76.5t-76.5 -201.5v-364q136 86 318 86q128 0 237 -44t172.5 -119.5t63.5 -164.5v-1v0q-1 -136 -139 -232t-334 -96q-128 0 -237 44t-172.5 119.5t-63.5 164.5v0v1v606q0 89 63.5 165t172.5 120t237 44t237 -44t172.5 -120t63.5 -165h-155
q0 125 -76.5 201.5t-241.5 76.5zM596 647q-191 0 -318 -96v-181q0 -125 76.5 -201.5t241.5 -76.5t241 76t76 201t-76 201.5t-241 76.5z" />
    <glyph glyph-name="seven" unicode="7" horiz-adv-x="1148" 
d="M108 1260h987q-29 -44 -37 -101q-7 -54 -26.5 -103.5t-41.5 -88t-61 -79.5t-69 -68t-82.5 -64t-84 -56.5t-89.5 -55.5q-126 -78 -203 -160.5t-119.5 -201.5t-42.5 -279h-157q0 74 15 142.5t39.5 123t64 107.5t78.5 92.5t93.5 82t99 72t104.5 66.5q113 70 180 137
t105.5 160t44.5 222h-798v52z" />
    <glyph glyph-name="eight" unicode="8" horiz-adv-x="1165" 
d="M1052 937q0 -103 -84 -186t-217 -120q133 -36 217 -119t84 -186q0 -89 -63 -164.5t-171.5 -119t-235.5 -43.5t-235 43.5t-171 119t-63 164.5q0 103 83.5 186t216.5 119q-133 36 -216.5 119.5t-83.5 186.5q0 89 63 164.5t171 119t235 43.5t235.5 -43.5t171.5 -119
t63 -164.5zM903 326q0 127 -77.5 205t-243.5 78t-243.5 -78t-77.5 -205t77.5 -205t243.5 -78t243.5 78t77.5 205zM582 654q166 0 243.5 78t77.5 205t-77.5 204.5t-243.5 77.5t-243.5 -77.5t-77.5 -204.5t77.5 -205t243.5 -78z" />
    <glyph glyph-name="nine" unicode="9" horiz-adv-x="1173" 
d="M1050 941v-1v-606q0 -89 -63.5 -165t-172.5 -120t-237 -44t-237 44t-172.5 120t-63.5 165h156q0 -125 76 -201.5t241 -76.5t241.5 76.5t76.5 201.5v364q-136 -86 -318 -86q-128 0 -237 44t-172.5 119.5t-63.5 164.5v0v1q1 136 139 232t334 96q128 0 237 -44t172.5 -119.5
t63.5 -164.5zM577 663q165 0 241.5 76t76.5 201t-76.5 201.5t-241.5 76.5q-164 0 -240.5 -76.5t-76.5 -201.5t76.5 -201t240.5 -76z" />
    <glyph glyph-name="colon" unicode=":" horiz-adv-x="356" 
d="M177 591q-43 0 -73 31t-30 74t30.5 74.5t72.5 31.5q43 0 73.5 -31.5t30.5 -74.5t-30.5 -74t-73.5 -31zM177 236q43 0 73.5 -31t30.5 -74t-30.5 -74t-73.5 -31t-73 31t-30 74t30 74t73 31z" />
    <glyph glyph-name="semicolon" unicode=";" horiz-adv-x="358" 
d="M179 586q-43 0 -73.5 31t-30.5 74t30.5 74t73.5 31t73 -31t30 -74t-30 -74t-73 -31zM179 236q43 0 73 -30t30 -73q0 -59 -63.5 -155.5t-143.5 -183.5l-18 18q113 150 147 216h-25q-43 0 -73.5 31t-30.5 74t30.5 73t73.5 30z" />
    <glyph glyph-name="less" unicode="&#x3c;" horiz-adv-x="643" 
d="M580 761v-8l-393 -354l393 -355v-7l-525 362z" />
    <glyph glyph-name="greater" unicode="&#x3e;" horiz-adv-x="643" 
d="M63 761l525 -362l-525 -362v7l393 355l-393 354v8z" />
    <glyph glyph-name="question" unicode="?" horiz-adv-x="897" 
d="M378 236q43 0 73.5 -31t30.5 -74t-30.5 -74t-73.5 -31t-73 31t-30 74t30 74t73 31zM809 935v-7v-6q-1 -47 -11 -87.5t-23 -69.5t-36.5 -55.5t-42.5 -42.5t-50.5 -33.5t-50 -26t-51.5 -22.5q-80 -34 -113 -61t-33 -75h-39q0 29 10.5 53t23.5 39.5t40 32t44 24.5t52 23
q84 36 109.5 94t26.5 211q0 73 -10.5 128t-34 101.5t-69 71.5t-110.5 25q-66 0 -111.5 -25t-69.5 -72.5t-34 -103.5t-10 -129h-144q0 152 108.5 260.5t260.5 108.5q149 0 256 -103.5t112 -252.5z" />
    <glyph glyph-name="at" unicode="@" horiz-adv-x="1574" 
d="M1176 1024l-105 -529q-7 -50 24.5 -92t91.5 -42q34 0 59 15t39 40.5t23.5 59.5t12 72.5t4 80t-0.5 80.5v41q0 128 -30 232.5t-89.5 182.5t-155 120.5t-219.5 42.5q-114 0 -209.5 -37t-162.5 -101t-114 -152t-69 -189t-22 -213q0 -294 151.5 -468t407.5 -174q58 0 96.5 7
t68 26.5t46.5 37t51.5 57t63.5 68.5l188 -4q-90 -102 -226.5 -159.5t-287.5 -57.5q-147 0 -276 46.5t-225.5 131t-152.5 211t-56 278.5q0 143 55.5 274t151.5 227.5t232 154t289 57.5q135 0 254.5 -46t205 -125.5t135 -190.5t49.5 -237q0 -115 -43.5 -215.5t-127.5 -164.5
t-190 -64q-85 0 -136.5 46.5t-57.5 115.5q-41 -65 -109.5 -109t-147.5 -44q-101 0 -163.5 79.5t-62.5 202.5q0 113 46.5 218.5t131.5 174t186 68.5q76 0 131 -46.5t70 -117.5l152 132zM937 555l43 250q3 77 -34.5 133t-101.5 56q-75 0 -133 -60t-84.5 -140t-26.5 -158
q-3 -48 1 -89t17 -80.5t42.5 -62.5t74.5 -23q65 0 121.5 49t80.5 125z" />
    <glyph glyph-name="A" unicode="A" horiz-adv-x="1091" 
d="M1020 74q6 -18 22 -41l25 -33h-115q21 54 3 105l-175 507h-364l-175 -507q-18 -52 2 -105h-218l24 33q15 20 22 41l372 1078q20 57 -12 110h229v-1q-30 -51 -11 -107zM434 665h328l-163 477z" />
    <glyph glyph-name="A" unicode="&#xc5;" horiz-adv-x="1091" 
d="M1020 74q6 -18 22 -41l25 -33h-115q21 54 3 105l-175 507h-364l-175 -507q-18 -52 2 -105h-218l24 33q15 20 22 41l372 1078q20 57 -12 110h229v-1q-30 -51 -11 -107zM434 665h328l-163 477z" />
    <glyph glyph-name="A" unicode="&#xc4;" horiz-adv-x="1091" 
d="M1020 74q6 -18 22 -41l25 -33h-115q21 54 3 105l-175 507h-364l-175 -507q-18 -52 2 -105h-218l24 33q15 20 22 41l372 1078q20 57 -12 110h229v-1q-30 -51 -11 -107zM434 665h328l-163 477z" />
    <glyph glyph-name="A" unicode="&#xc3;" horiz-adv-x="1091" 
d="M1020 74q6 -18 22 -41l25 -33h-115q21 54 3 105l-175 507h-364l-175 -507q-18 -52 2 -105h-218l24 33q15 20 22 41l372 1078q20 57 -12 110h229v-1q-30 -51 -11 -107zM434 665h328l-163 477z" />
    <glyph glyph-name="A" unicode="&#xc2;" horiz-adv-x="1091" 
d="M1020 74q6 -18 22 -41l25 -33h-115q21 54 3 105l-175 507h-364l-175 -507q-18 -52 2 -105h-218l24 33q15 20 22 41l372 1078q20 57 -12 110h229v-1q-30 -51 -11 -107zM434 665h328l-163 477z" />
    <glyph glyph-name="A" unicode="&#xc1;" horiz-adv-x="1091" 
d="M1020 74q6 -18 22 -41l25 -33h-115q21 54 3 105l-175 507h-364l-175 -507q-18 -52 2 -105h-218l24 33q15 20 22 41l372 1078q20 57 -12 110h229v-1q-30 -51 -11 -107zM434 665h328l-163 477z" />
    <glyph glyph-name="A" unicode="&#xc0;" horiz-adv-x="1091" 
d="M1020 74q6 -18 22 -41l25 -33h-115q21 54 3 105l-175 507h-364l-175 -507q-18 -52 2 -105h-218l24 33q15 20 22 41l372 1078q20 57 -12 110h229v-1q-30 -51 -11 -107zM434 665h328l-163 477z" />
    <glyph glyph-name="B" unicode="B" horiz-adv-x="1183" 
d="M738 967q174 -40 283.5 -184t96.5 -328q-9 -127 -79 -232t-181.5 -164t-240.5 -59h-508q31 53 31 112v1037q0 60 -31 113h515q65 0 115 -42t57 -105q10 -90 -58 -148zM296 1210v-231h334q48 0 81.5 34t33.5 82t-33.5 81.5t-81.5 33.5h-334zM630 52q88 0 153.5 34t104 95
t57 138t18.5 170t-18.5 170.5t-57 138.5t-104 95t-153.5 34h-334v-875h334z" />
    <glyph glyph-name="C" unicode="C" horiz-adv-x="1228" 
d="M720 1240q-119 0 -213 -46.5t-153 -128t-89.5 -188t-30.5 -230.5t30.5 -231t89.5 -188.5t153 -128t213 -46.5q143 0 224.5 65t118.5 186l114 -114q-90 -90 -208 -140t-249 -50q-175 0 -324 87t-235.5 236t-86.5 324q0 131 51.5 251t138 206.5t206 137.5t250.5 51t249 -50
t208 -140l-114 -114q-37 121 -118.5 186t-224.5 65z" />
    <glyph glyph-name="C" unicode="&#xc7;" horiz-adv-x="1228" 
d="M720 1240q-119 0 -213 -46.5t-153 -128t-89.5 -188t-30.5 -230.5t30.5 -231t89.5 -188.5t153 -128t213 -46.5q143 0 224.5 65t118.5 186l114 -114q-90 -90 -208 -140t-249 -50q-175 0 -324 87t-235.5 236t-86.5 324q0 131 51.5 251t138 206.5t206 137.5t250.5 51t249 -50
t208 -140l-114 -114q-37 121 -118.5 186t-224.5 65z" />
    <glyph glyph-name="D" unicode="D" horiz-adv-x="1187" 
d="M484 1262q128 0 244.5 -50.5t200.5 -135t134 -201t50 -244.5t-50 -244.5t-134 -201t-200.5 -135t-244.5 -50.5h-375q31 53 31 112v1037q0 60 -31 113h375zM482 52q116 0 208 45.5t149.5 125t87.5 183.5t30 225t-30 225t-87.5 183.5t-149.5 125t-208 45.5h-186v-1158h186z
" />
    <glyph glyph-name="E" unicode="E" horiz-adv-x="1036" 
d="M109 1262h897v-52h-710v-544h422v-52h-422v-562h710v-52h-897q31 53 31 113v1037q0 59 -31 112z" />
    <glyph glyph-name="E" unicode="&#xcb;" horiz-adv-x="1036" 
d="M109 1262h897v-52h-710v-544h422v-52h-422v-562h710v-52h-897q31 53 31 113v1037q0 59 -31 112z" />
    <glyph glyph-name="E" unicode="&#xca;" horiz-adv-x="1036" 
d="M109 1262h897v-52h-710v-544h422v-52h-422v-562h710v-52h-897q31 53 31 113v1037q0 59 -31 112z" />
    <glyph glyph-name="E" unicode="&#xc9;" horiz-adv-x="1036" 
d="M109 1262h897v-52h-710v-544h422v-52h-422v-562h710v-52h-897q31 53 31 113v1037q0 59 -31 112z" />
    <glyph glyph-name="E" unicode="&#xc8;" horiz-adv-x="1036" 
d="M109 1262h897v-52h-710v-544h422v-52h-422v-562h710v-52h-897q31 53 31 113v1037q0 59 -31 112z" />
    <glyph glyph-name="F" unicode="F" horiz-adv-x="1103" 
d="M109 1262h984v-52h-797v-545h423v-52h-423v-501q0 -59 31 -112h-218q31 53 31 112v1037q0 60 -31 113z" />
    <glyph glyph-name="G" unicode="G" horiz-adv-x="1421" 
d="M720 630v53h647v-53h-1q-3 -129 -55.5 -245.5t-139 -201t-204.5 -134t-247 -49.5q-175 0 -324 87t-235.5 236t-86.5 324v0q0 131 51.5 251t138 206.5t206 137.5t250.5 51t249.5 -50t207.5 -139l-114 -114q-64 211 -261 244q-39 6 -82 6q-119 0 -213 -46.5t-153 -128
t-89.5 -188t-30.5 -230.5t30.5 -231t89.5 -188.5t153 -128t213 -46.5q257 0 388 206q95 151 98 371h-486z" />
    <glyph glyph-name="H" unicode="H" horiz-adv-x="1259" 
d="M1150 1262q-32 -54 -32 -113v-1045q0 -54 27 -97l5 -7h-219l5 7q26 42 26 97v560q-92 -72 -304 -171q-165 -78 -249 -160t-105 -210q-11 -66 23 -123h-218l4 7q27 43 27 97v1045q0 60 -31 113h218q-31 -53 -31 -113v-804q43 37 107 75t105.5 58.5t126.5 61.5
q117 56 185 108.5t105 127t37 177.5v196q0 60 -31 113h219z" />
    <glyph glyph-name="I" unicode="I" horiz-adv-x="436" 
d="M327 1262q-31 -53 -31 -113v-1036q0 -60 31 -113h-218q31 53 31 113v1036q0 60 -31 113h218z" />
    <glyph glyph-name="I" unicode="&#xcf;" horiz-adv-x="436" 
d="M327 1262q-31 -53 -31 -113v-1036q0 -60 31 -113h-218q31 53 31 113v1036q0 60 -31 113h218z" />
    <glyph glyph-name="I" unicode="&#xce;" horiz-adv-x="436" 
d="M327 1262q-31 -53 -31 -113v-1036q0 -60 31 -113h-218q31 53 31 113v1036q0 60 -31 113h218z" />
    <glyph glyph-name="I" unicode="&#xcd;" horiz-adv-x="436" 
d="M327 1262q-31 -53 -31 -113v-1036q0 -60 31 -113h-218q31 53 31 113v1036q0 60 -31 113h218z" />
    <glyph glyph-name="I" unicode="&#xcc;" horiz-adv-x="436" 
d="M327 1262q-31 -53 -31 -113v-1036q0 -60 31 -113h-218q31 53 31 113v1036q0 60 -31 113h218z" />
    <glyph glyph-name="J" unicode="J" horiz-adv-x="434" 
d="M139 1149q0 59 -32 113h219q-31 -53 -31 -113v-1033q0 -112 -69.5 -210t-178 -153.5t-223.5 -55.5v52q147 0 231 104.5t84 262.5v1033z" />
    <glyph glyph-name="K" unicode="K" horiz-adv-x="1177" 
d="M1117 1264q0 -69 -26.5 -132t-67 -111t-103.5 -94t-121 -78.5t-134 -68.5l473 -780h-62l-458 758q-117 -56 -193.5 -101.5t-130.5 -100.5v-443q0 -60 31 -113h-219q32 54 32 113v1037q0 59 -32 113h219q-31 -53 -31 -113v-523q44 37 107 75t107.5 60t125.5 61
q170 80 248.5 183t78.5 258h156z" />
    <glyph glyph-name="L" unicode="L" horiz-adv-x="1101" 
d="M294 1150v-1098h797v-52h-953h-32q32 54 32 113v1037q0 59 -32 113h219q-31 -53 -31 -113z" />
    <glyph glyph-name="M" unicode="M" horiz-adv-x="1656" 
d="M1360 1212h-14l-458 -1109q-21 -51 -3 -103h-115q18 52 -3 103l-458 1109h-14v-1099q0 -60 31 -113h-31h-155h-31q31 53 31 113v1038q0 60 -31 113h31h204h40q-19 -53 3 -104l441 -1066l440 1066q22 51 3 104h40h205h31q-31 -53 -31 -113v-1038q0 -60 31 -113h-31h-156
h-31q31 53 31 113v1099z" />
    <glyph glyph-name="N" unicode="N" horiz-adv-x="1204" 
d="M1097 1262q-31 -53 -31 -112v-1069q0 -31 14 -53l17 -28h-31h-124h-64q32 53 1 105l-585 999v-991q0 -60 31 -113h-219q32 54 32 113v1067q0 30 -16 57l-16 26h32h123h64q-31 -56 1 -111l583 -994v992q0 60 -31 113z" />
    <glyph glyph-name="N" unicode="&#xd1;" horiz-adv-x="1204" 
d="M1097 1262q-31 -53 -31 -112v-1069q0 -31 14 -53l17 -28h-31h-124h-64q32 53 1 105l-585 999v-991q0 -60 31 -113h-219q32 54 32 113v1067q0 30 -16 57l-16 26h32h123h64q-31 -56 1 -111l583 -994v992q0 60 -31 113z" />
    <glyph glyph-name="O" unicode="O" horiz-adv-x="1441" 
d="M720 1293q132 0 251.5 -51t206 -137.5t138 -206.5t51.5 -251t-51.5 -251t-138 -206.5t-206.5 -138t-251 -51.5q-175 0 -324 87t-235.5 236t-86.5 324q0 131 51.5 251t138 206.5t206 137.5t250.5 51zM720 53q96 0 176 30.5t137 84.5t96.5 128.5t58.5 163t19 187.5
q0 124 -30.5 230.5t-89.5 188t-153.5 128t-213.5 46.5t-213 -46.5t-153 -128t-89.5 -188t-30.5 -230.5t30.5 -231t89.5 -188.5t153 -128t213 -46.5z" />
    <glyph glyph-name="O" unicode="&#xd8;" horiz-adv-x="1441" 
d="M720 1293q132 0 251.5 -51t206 -137.5t138 -206.5t51.5 -251t-51.5 -251t-138 -206.5t-206.5 -138t-251 -51.5q-175 0 -324 87t-235.5 236t-86.5 324q0 131 51.5 251t138 206.5t206 137.5t250.5 51zM720 53q96 0 176 30.5t137 84.5t96.5 128.5t58.5 163t19 187.5
q0 124 -30.5 230.5t-89.5 188t-153.5 128t-213.5 46.5t-213 -46.5t-153 -128t-89.5 -188t-30.5 -230.5t30.5 -231t89.5 -188.5t153 -128t213 -46.5z" />
    <glyph glyph-name="O" unicode="&#xd6;" horiz-adv-x="1441" 
d="M720 1293q132 0 251.5 -51t206 -137.5t138 -206.5t51.5 -251t-51.5 -251t-138 -206.5t-206.5 -138t-251 -51.5q-175 0 -324 87t-235.5 236t-86.5 324q0 131 51.5 251t138 206.5t206 137.5t250.5 51zM720 53q96 0 176 30.5t137 84.5t96.5 128.5t58.5 163t19 187.5
q0 124 -30.5 230.5t-89.5 188t-153.5 128t-213.5 46.5t-213 -46.5t-153 -128t-89.5 -188t-30.5 -230.5t30.5 -231t89.5 -188.5t153 -128t213 -46.5z" />
    <glyph glyph-name="O" unicode="&#xd5;" horiz-adv-x="1441" 
d="M720 1293q132 0 251.5 -51t206 -137.5t138 -206.5t51.5 -251t-51.5 -251t-138 -206.5t-206.5 -138t-251 -51.5q-175 0 -324 87t-235.5 236t-86.5 324q0 131 51.5 251t138 206.5t206 137.5t250.5 51zM720 53q96 0 176 30.5t137 84.5t96.5 128.5t58.5 163t19 187.5
q0 124 -30.5 230.5t-89.5 188t-153.5 128t-213.5 46.5t-213 -46.5t-153 -128t-89.5 -188t-30.5 -230.5t30.5 -231t89.5 -188.5t153 -128t213 -46.5z" />
    <glyph glyph-name="O" unicode="&#xd4;" horiz-adv-x="1441" 
d="M720 1293q132 0 251.5 -51t206 -137.5t138 -206.5t51.5 -251t-51.5 -251t-138 -206.5t-206.5 -138t-251 -51.5q-175 0 -324 87t-235.5 236t-86.5 324q0 131 51.5 251t138 206.5t206 137.5t250.5 51zM720 53q96 0 176 30.5t137 84.5t96.5 128.5t58.5 163t19 187.5
q0 124 -30.5 230.5t-89.5 188t-153.5 128t-213.5 46.5t-213 -46.5t-153 -128t-89.5 -188t-30.5 -230.5t30.5 -231t89.5 -188.5t153 -128t213 -46.5z" />
    <glyph glyph-name="O" unicode="&#xd3;" horiz-adv-x="1441" 
d="M720 1293q132 0 251.5 -51t206 -137.5t138 -206.5t51.5 -251t-51.5 -251t-138 -206.5t-206.5 -138t-251 -51.5q-175 0 -324 87t-235.5 236t-86.5 324q0 131 51.5 251t138 206.5t206 137.5t250.5 51zM720 53q96 0 176 30.5t137 84.5t96.5 128.5t58.5 163t19 187.5
q0 124 -30.5 230.5t-89.5 188t-153.5 128t-213.5 46.5t-213 -46.5t-153 -128t-89.5 -188t-30.5 -230.5t30.5 -231t89.5 -188.5t153 -128t213 -46.5z" />
    <glyph glyph-name="O" unicode="&#xd2;" horiz-adv-x="1441" 
d="M720 1293q132 0 251.5 -51t206 -137.5t138 -206.5t51.5 -251t-51.5 -251t-138 -206.5t-206.5 -138t-251 -51.5q-175 0 -324 87t-235.5 236t-86.5 324q0 131 51.5 251t138 206.5t206 137.5t250.5 51zM720 53q96 0 176 30.5t137 84.5t96.5 128.5t58.5 163t19 187.5
q0 124 -30.5 230.5t-89.5 188t-153.5 128t-213.5 46.5t-213 -46.5t-153 -128t-89.5 -188t-30.5 -230.5t30.5 -231t89.5 -188.5t153 -128t213 -46.5z" />
    <glyph glyph-name="P" unicode="P" 
d="M783 1263q128 0 224.5 -84.5t108.5 -209.5q13 -144 -84 -250t-239 -106h-499v-500q0 -60 31 -113h-219q32 54 32 113v1037q0 59 -32 113h32h645zM688 665q112 0 192.5 80.5t80.5 192.5t-80.5 192.5t-192.5 80.5h-394v-546h394z" />
    <glyph glyph-name="Q" unicode="Q" horiz-adv-x="1458" 
d="M1367 647q0 -134 -52 -254t-145 -210q20 -4 44 -4t62 1.5t64 1.5v-160q-138 0 -239 103q-171 -125 -381 -125q-175 0 -324 87t-235.5 236t-86.5 324q0 131 51.5 251t138 206.5t206 137.5t250.5 51q132 0 251.5 -51t206 -137.5t138 -206.5t51.5 -251zM720 53
q203 0 329 131l-27 36q-17 22 -44.5 67.5t-51.5 80.5t-56 72t-73 57.5t-88 20.5v53q54 0 102 -22.5t85.5 -62.5t64 -77t57 -86.5t46.5 -70.5q7 -10 22 -25q121 160 121 420q0 124 -30.5 230.5t-89.5 188t-153.5 128t-213.5 46.5t-213 -46.5t-153 -128t-89.5 -188
t-30.5 -230.5t30.5 -231t89.5 -188.5t153 -128t213 -46.5z" />
    <glyph glyph-name="R" unicode="R" horiz-adv-x="1202" 
d="M794 375q67 -32 118.5 -64.5t103 -78.5t80 -105t28.5 -127h-156q0 123 -42.5 199t-153.5 129q-57 27 -87 42.5t-76 44.5t-70.5 54.5t-45.5 63.5t-26 81h-171v-505q0 -56 27 -104l2 -4h-219q34 53 34 114v1035q0 61 -34 114h34h655q142 0 239 -106t84 -250
q-12 -125 -108.5 -209.5t-224.5 -84.5h-266q5 -34 23.5 -64t40 -51.5t63 -46.5t68.5 -38.5t80 -38.5zM296 666h394q112 0 192.5 80t80.5 193t-80.5 193t-192.5 80h-394v-546z" />
    <glyph glyph-name="S" unicode="S" 
d="M584 1240q-176 0 -260 -78.5t-84 -205.5q0 -56 10.5 -92t45 -73.5t106.5 -65.5t187 -52q73 -18 125.5 -33t115 -37t104.5 -47t79 -57t55.5 -73t18.5 -89q0 -92 -67.5 -169.5t-183 -122.5t-252.5 -45q-209 0 -356.5 99t-147.5 238h160q0 -127 84 -205.5t260 -78.5
t259.5 78.5t83.5 205.5q0 75 -28.5 123.5t-104.5 87.5t-217 73q-79 16 -141.5 33t-132 46t-116 63t-77 84t-30.5 110q0 139 147.5 237.5t356.5 98.5t356 -98.5t147 -237.5h-160q0 127 -83.5 205t-259.5 78z" />
    <glyph glyph-name="T" unicode="T" horiz-adv-x="948" 
d="M396 1210h-386v52h927v-52h-385v-1097q0 -60 31 -113h-219q32 54 32 113v1097z" />
    <glyph glyph-name="U" unicode="U" horiz-adv-x="1484" 
d="M1186 1260l-2 3h219l-2 -3q-29 -49 -29 -107v-522q0 -169 -83 -313t-225.5 -229t-311.5 -88q-173 -3 -321.5 84.5t-234.5 237t-86 323.5v513q0 50 -25 97l-3 7h219q-35 -52 -35 -115v-517q0 -121 29.5 -225t87 -183.5t149 -125t207.5 -45.5q130 0 240 66t173.5 178
t63.5 243v614q0 56 -30 107z" />
    <glyph glyph-name="U" unicode="&#xdc;" horiz-adv-x="1484" 
d="M1186 1260l-2 3h219l-2 -3q-29 -49 -29 -107v-522q0 -169 -83 -313t-225.5 -229t-311.5 -88q-173 -3 -321.5 84.5t-234.5 237t-86 323.5v513q0 50 -25 97l-3 7h219q-35 -52 -35 -115v-517q0 -121 29.5 -225t87 -183.5t149 -125t207.5 -45.5q130 0 240 66t173.5 178
t63.5 243v614q0 56 -30 107z" />
    <glyph glyph-name="U" unicode="&#xdb;" horiz-adv-x="1484" 
d="M1186 1260l-2 3h219l-2 -3q-29 -49 -29 -107v-522q0 -169 -83 -313t-225.5 -229t-311.5 -88q-173 -3 -321.5 84.5t-234.5 237t-86 323.5v513q0 50 -25 97l-3 7h219q-35 -52 -35 -115v-517q0 -121 29.5 -225t87 -183.5t149 -125t207.5 -45.5q130 0 240 66t173.5 178
t63.5 243v614q0 56 -30 107z" />
    <glyph glyph-name="U" unicode="&#xda;" horiz-adv-x="1484" 
d="M1186 1260l-2 3h219l-2 -3q-29 -49 -29 -107v-522q0 -169 -83 -313t-225.5 -229t-311.5 -88q-173 -3 -321.5 84.5t-234.5 237t-86 323.5v513q0 50 -25 97l-3 7h219q-35 -52 -35 -115v-517q0 -121 29.5 -225t87 -183.5t149 -125t207.5 -45.5q130 0 240 66t173.5 178
t63.5 243v614q0 56 -30 107z" />
    <glyph glyph-name="U" unicode="&#xd9;" horiz-adv-x="1484" 
d="M1186 1260l-2 3h219l-2 -3q-29 -49 -29 -107v-522q0 -169 -83 -313t-225.5 -229t-311.5 -88q-173 -3 -321.5 84.5t-234.5 237t-86 323.5v513q0 50 -25 97l-3 7h219q-35 -52 -35 -115v-517q0 -121 29.5 -225t87 -183.5t149 -125t207.5 -45.5q130 0 240 66t173.5 178
t63.5 243v614q0 56 -30 107z" />
    <glyph glyph-name="V" unicode="V" horiz-adv-x="1067" 
d="M1040 1263l-400 -1158q-19 -53 3 -105h-208l1 2q18 49 1 101l-372 1085q-7 21 -22 41l-25 33h219q-21 -51 -2 -105l355 -1037l394 1143h56z" />
    <glyph glyph-name="W" unicode="W" horiz-adv-x="1994" 
d="M1967 1263l-400 -1159q-18 -52 2 -103v-1h-208q21 54 3 105l-361 1051l-363 -1052q-18 -52 2 -103v-1h-208q22 52 3 105l-372 1083q-7 21 -22 41l-25 33h219q-21 -54 -3 -105l356 -1036l358 1036q18 51 -3 105h219q-20 -53 -2 -105l355 -1036l395 1142h55z" />
    <glyph glyph-name="X" unicode="X" horiz-adv-x="1173" 
d="M1107 61q2 -3 5 -9t4 -7l22 -44h-218q23 52 -12 98l-374 488q-141 -100 -208.5 -239t-67.5 -348h-156q0 90 22 172t57.5 146t88.5 123t107.5 103t122.5 87l-436 569q-9 11 -14 25l-13 39h219q-14 -23 -12.5 -50.5t18.5 -49.5l353 -462q73 45 126.5 84t111 93t93.5 109
t59.5 126.5t23.5 150.5h52q0 -86 -25.5 -164.5t-64 -138t-99 -117.5t-116 -98.5t-129.5 -86.5z" />
    <glyph glyph-name="Y" unicode="Y" horiz-adv-x="1130" 
d="M1123 1264l-476 -627v-523q0 -61 34 -114h-219l2 4q27 48 27 104v515l-447 584q-1 1 -3 3.5t-3 4.5l-30 48h219q-16 -53 17 -96l372 -486l442 583h65z" />
    <glyph glyph-name="Y" unicode="&#x178;" horiz-adv-x="1130" 
d="M1123 1264l-476 -627v-523q0 -61 34 -114h-219l2 4q27 48 27 104v515l-447 584q-1 1 -3 3.5t-3 4.5l-30 48h219q-16 -53 17 -96l372 -486l442 583h65z" />
    <glyph glyph-name="Y" unicode="&#xdd;" horiz-adv-x="1130" 
d="M1123 1264l-476 -627v-523q0 -61 34 -114h-219l2 4q27 48 27 104v515l-447 584q-1 1 -3 3.5t-3 4.5l-30 48h219q-16 -53 17 -96l372 -486l442 583h65z" />
    <glyph glyph-name="Z" unicode="Z" horiz-adv-x="1333" 
d="M51 1262h1252v-48l-10 -8l-1078 -1154h1061v-52h-1245v49l9 8l1078 1153h-1067v52z" />
    <glyph glyph-name="bracketleft" unicode="[" horiz-adv-x="438" 
d="M372 1438q-71 -53 -71 -140v-1284q0 -86 71 -136v-7h-237v1572h237v-5z" />
    <glyph glyph-name="backslash" unicode="\" horiz-adv-x="794" 
d="M63 1285l683 -1248h-30l-683 1248h30z" />
    <glyph glyph-name="bracketright" unicode="]" horiz-adv-x="438" 
d="M66 1443h236v-1572h-236v7q70 49 70 136v1284q0 88 -70 140v5z" />
    <glyph glyph-name="asciicircum" unicode="^" horiz-adv-x="643" 
d="M330 1285l271 -266l-6 -5l-274 150l-275 -150l-5 5l271 266h18z" />
    <glyph glyph-name="underscore" unicode="_" horiz-adv-x="1007" 
d="M1006 -26h-1006v29h1006v-29z" />
    <glyph glyph-name="a" unicode="a" horiz-adv-x="1181" 
d="M564 4q-101 0 -193 39.5t-157.5 109.5t-103.5 159t-34 197t53 213q66 140 209 206q103 48 208 51t192.5 -31t157.5 -99v42q0 58 -26 110l183 -52h-1v-847q0 -47 24 -86l7 -12h-218l7 12q24 39 24 86v33q-141 -131 -332 -131zM250 692q-18 -99 -19 -190t17.5 -173
t56.5 -142t104 -95.5t155 -35.5q98 0 184.5 41t147.5 113v564q-79 92 -196.5 131.5t-245.5 8.5q-79 -19 -134.5 -80t-69.5 -142z" />
    <glyph glyph-name="a" unicode="&#xe5;" horiz-adv-x="1181" 
d="M564 4q-101 0 -193 39.5t-157.5 109.5t-103.5 159t-34 197t53 213q66 140 209 206q103 48 208 51t192.5 -31t157.5 -99v42q0 58 -26 110l183 -52h-1v-847q0 -47 24 -86l7 -12h-218l7 12q24 39 24 86v33q-141 -131 -332 -131zM250 692q-18 -99 -19 -190t17.5 -173
t56.5 -142t104 -95.5t155 -35.5q98 0 184.5 41t147.5 113v564q-79 92 -196.5 131.5t-245.5 8.5q-79 -19 -134.5 -80t-69.5 -142z" />
    <glyph glyph-name="a" unicode="&#xe4;" horiz-adv-x="1181" 
d="M564 4q-101 0 -193 39.5t-157.5 109.5t-103.5 159t-34 197t53 213q66 140 209 206q103 48 208 51t192.5 -31t157.5 -99v42q0 58 -26 110l183 -52h-1v-847q0 -47 24 -86l7 -12h-218l7 12q24 39 24 86v33q-141 -131 -332 -131zM250 692q-18 -99 -19 -190t17.5 -173
t56.5 -142t104 -95.5t155 -35.5q98 0 184.5 41t147.5 113v564q-79 92 -196.5 131.5t-245.5 8.5q-79 -19 -134.5 -80t-69.5 -142z" />
    <glyph glyph-name="a" unicode="&#xe3;" horiz-adv-x="1181" 
d="M564 4q-101 0 -193 39.5t-157.5 109.5t-103.5 159t-34 197t53 213q66 140 209 206q103 48 208 51t192.5 -31t157.5 -99v42q0 58 -26 110l183 -52h-1v-847q0 -47 24 -86l7 -12h-218l7 12q24 39 24 86v33q-141 -131 -332 -131zM250 692q-18 -99 -19 -190t17.5 -173
t56.5 -142t104 -95.5t155 -35.5q98 0 184.5 41t147.5 113v564q-79 92 -196.5 131.5t-245.5 8.5q-79 -19 -134.5 -80t-69.5 -142z" />
    <glyph glyph-name="a" unicode="&#xe2;" horiz-adv-x="1181" 
d="M564 4q-101 0 -193 39.5t-157.5 109.5t-103.5 159t-34 197t53 213q66 140 209 206q103 48 208 51t192.5 -31t157.5 -99v42q0 58 -26 110l183 -52h-1v-847q0 -47 24 -86l7 -12h-218l7 12q24 39 24 86v33q-141 -131 -332 -131zM250 692q-18 -99 -19 -190t17.5 -173
t56.5 -142t104 -95.5t155 -35.5q98 0 184.5 41t147.5 113v564q-79 92 -196.5 131.5t-245.5 8.5q-79 -19 -134.5 -80t-69.5 -142z" />
    <glyph glyph-name="a" unicode="&#xe1;" horiz-adv-x="1181" 
d="M564 4q-101 0 -193 39.5t-157.5 109.5t-103.5 159t-34 197t53 213q66 140 209 206q103 48 208 51t192.5 -31t157.5 -99v42q0 58 -26 110l183 -52h-1v-847q0 -47 24 -86l7 -12h-218l7 12q24 39 24 86v33q-141 -131 -332 -131zM250 692q-18 -99 -19 -190t17.5 -173
t56.5 -142t104 -95.5t155 -35.5q98 0 184.5 41t147.5 113v564q-79 92 -196.5 131.5t-245.5 8.5q-79 -19 -134.5 -80t-69.5 -142z" />
    <glyph glyph-name="a" unicode="&#xe0;" horiz-adv-x="1181" 
d="M564 4q-101 0 -193 39.5t-157.5 109.5t-103.5 159t-34 197t53 213q66 140 209 206q103 48 208 51t192.5 -31t157.5 -99v42q0 58 -26 110l183 -52h-1v-847q0 -47 24 -86l7 -12h-218l7 12q24 39 24 86v33q-141 -131 -332 -131zM250 692q-18 -99 -19 -190t17.5 -173
t56.5 -142t104 -95.5t155 -35.5q98 0 184.5 41t147.5 113v564q-79 92 -196.5 131.5t-245.5 8.5q-79 -19 -134.5 -80t-69.5 -142z" />
    <glyph glyph-name="b" unicode="b" horiz-adv-x="1181" 
d="M616 980q132 0 244.5 -65.5t178 -178t65.5 -244.5t-65.5 -244.5t-178 -178t-244.5 -65.5q-191 0 -332 131v-19q0 -59 31 -112h-219q32 54 32 112v1034q0 59 -32 113h188v-414q141 131 332 131zM616 56q87 0 152.5 34t104 94.5t57 137.5t18.5 170t-18.5 170t-57 137.5
t-104 94.5t-152.5 34q-98 0 -184.5 -41t-147.5 -113v-564q61 -72 147.5 -113t184.5 -41z" />
    <glyph glyph-name="c" unicode="c" horiz-adv-x="1064" 
d="M568 928q-87 1 -153 -32.5t-105 -94t-58 -137t-20 -169.5t17 -170t56 -138.5t103 -96t152 -35.5q123 -1 228 62.5t162 172.5l47 -24q-64 -123 -181.5 -194t-255.5 -69q-132 1 -244 67.5t-176.5 180t-63.5 245.5t67.5 244t179.5 176.5t245 63.5q138 -1 254.5 -74
t178.5 -197l-140 -69q-64 129 -85 161q-69 107 -166 123q-20 4 -42 4z" />
    <glyph glyph-name="c" unicode="&#xe7;" horiz-adv-x="1064" 
d="M568 928q-87 1 -153 -32.5t-105 -94t-58 -137t-20 -169.5t17 -170t56 -138.5t103 -96t152 -35.5q123 -1 228 62.5t162 172.5l47 -24q-64 -123 -181.5 -194t-255.5 -69q-132 1 -244 67.5t-176.5 180t-63.5 245.5t67.5 244t179.5 176.5t245 63.5q138 -1 254.5 -74
t178.5 -197l-140 -69q-64 129 -85 161q-69 107 -166 123q-20 4 -42 4z" />
    <glyph glyph-name="d" unicode="d" horiz-adv-x="1181" 
d="M1083 1262q-31 -53 -31 -113v-1033q0 -60 31 -113h-218q31 53 31 113v18q-141 -131 -332 -131q-106 0 -201.5 44t-161.5 117.5t-100 174t-22 208.5q19 167 140 288t288 141q111 12 211.5 -22t177.5 -106v301q0 60 -31 113h218zM896 209v564q-61 72 -147.5 113t-184.5 41
q-87 0 -152.5 -34t-104 -94.5t-57 -137.5t-18.5 -170t18.5 -170t57 -137.5t104 -94.5t152.5 -34q98 0 184.5 41t147.5 113z" />
    <glyph glyph-name="e" unicode="e" horiz-adv-x="1120" 
d="M442 73q8 -3 33 -10q1 0 1 -0.5t1 -0.5q42 -10 83 -10q123 -1 228 62.5t162 172.5l47 -24q-64 -121 -180 -191.5t-253 -70.5v-1q-138 0 -253 71t-178 189l-1 1q-7 13 -19 41q-1 1 -1 3t-1 3q-10 26 -14 39q-1 2 -2 5.5t-1 5.5q-1 2 -4.5 15t-4.5 20q-1 3 -1 8.5t-1 8.5
q-4 19 -5 31q-1 8 -1 23q0 4 -0.5 12t-0.5 12v2v3v10h1q4 129 70 238t176.5 172t240.5 63q194 0 335 -134.5t152 -327.5h1v-52h-819q7 -212 102 -317q10 -12 22 -22q1 -1 3 -2.5t3 -2.5q6 -5 20 -15q2 -1 6 -3.5t6 -3.5q2 -2 7.5 -5t8.5 -5q4 -2 12.5 -5t9.5 -4q2 -1 5 -2
t4 -2zM564 924q-164 0 -244.5 -112.5t-86.5 -297.5h662q-6 185 -86.5 297.5t-244.5 112.5z" />
    <glyph glyph-name="e" unicode="&#xeb;" horiz-adv-x="1120" 
d="M442 73q8 -3 33 -10q1 0 1 -0.5t1 -0.5q42 -10 83 -10q123 -1 228 62.5t162 172.5l47 -24q-64 -121 -180 -191.5t-253 -70.5v-1q-138 0 -253 71t-178 189l-1 1q-7 13 -19 41q-1 1 -1 3t-1 3q-10 26 -14 39q-1 2 -2 5.5t-1 5.5q-1 2 -4.5 15t-4.5 20q-1 3 -1 8.5t-1 8.5
q-4 19 -5 31q-1 8 -1 23q0 4 -0.5 12t-0.5 12v2v3v10h1q4 129 70 238t176.5 172t240.5 63q194 0 335 -134.5t152 -327.5h1v-52h-819q7 -212 102 -317q10 -12 22 -22q1 -1 3 -2.5t3 -2.5q6 -5 20 -15q2 -1 6 -3.5t6 -3.5q2 -2 7.5 -5t8.5 -5q4 -2 12.5 -5t9.5 -4q2 -1 5 -2
t4 -2zM564 924q-164 0 -244.5 -112.5t-86.5 -297.5h662q-6 185 -86.5 297.5t-244.5 112.5z" />
    <glyph glyph-name="e" unicode="&#xea;" horiz-adv-x="1120" 
d="M442 73q8 -3 33 -10q1 0 1 -0.5t1 -0.5q42 -10 83 -10q123 -1 228 62.5t162 172.5l47 -24q-64 -121 -180 -191.5t-253 -70.5v-1q-138 0 -253 71t-178 189l-1 1q-7 13 -19 41q-1 1 -1 3t-1 3q-10 26 -14 39q-1 2 -2 5.5t-1 5.5q-1 2 -4.5 15t-4.5 20q-1 3 -1 8.5t-1 8.5
q-4 19 -5 31q-1 8 -1 23q0 4 -0.5 12t-0.5 12v2v3v10h1q4 129 70 238t176.5 172t240.5 63q194 0 335 -134.5t152 -327.5h1v-52h-819q7 -212 102 -317q10 -12 22 -22q1 -1 3 -2.5t3 -2.5q6 -5 20 -15q2 -1 6 -3.5t6 -3.5q2 -2 7.5 -5t8.5 -5q4 -2 12.5 -5t9.5 -4q2 -1 5 -2
t4 -2zM564 924q-164 0 -244.5 -112.5t-86.5 -297.5h662q-6 185 -86.5 297.5t-244.5 112.5z" />
    <glyph glyph-name="e" unicode="&#xe9;" horiz-adv-x="1120" 
d="M442 73q8 -3 33 -10q1 0 1 -0.5t1 -0.5q42 -10 83 -10q123 -1 228 62.5t162 172.5l47 -24q-64 -121 -180 -191.5t-253 -70.5v-1q-138 0 -253 71t-178 189l-1 1q-7 13 -19 41q-1 1 -1 3t-1 3q-10 26 -14 39q-1 2 -2 5.5t-1 5.5q-1 2 -4.5 15t-4.5 20q-1 3 -1 8.5t-1 8.5
q-4 19 -5 31q-1 8 -1 23q0 4 -0.5 12t-0.5 12v2v3v10h1q4 129 70 238t176.5 172t240.5 63q194 0 335 -134.5t152 -327.5h1v-52h-819q7 -212 102 -317q10 -12 22 -22q1 -1 3 -2.5t3 -2.5q6 -5 20 -15q2 -1 6 -3.5t6 -3.5q2 -2 7.5 -5t8.5 -5q4 -2 12.5 -5t9.5 -4q2 -1 5 -2
t4 -2zM564 924q-164 0 -244.5 -112.5t-86.5 -297.5h662q-6 185 -86.5 297.5t-244.5 112.5z" />
    <glyph glyph-name="e" unicode="&#xe8;" horiz-adv-x="1120" 
d="M442 73q8 -3 33 -10q1 0 1 -0.5t1 -0.5q42 -10 83 -10q123 -1 228 62.5t162 172.5l47 -24q-64 -121 -180 -191.5t-253 -70.5v-1q-138 0 -253 71t-178 189l-1 1q-7 13 -19 41q-1 1 -1 3t-1 3q-10 26 -14 39q-1 2 -2 5.5t-1 5.5q-1 2 -4.5 15t-4.5 20q-1 3 -1 8.5t-1 8.5
q-4 19 -5 31q-1 8 -1 23q0 4 -0.5 12t-0.5 12v2v3v10h1q4 129 70 238t176.5 172t240.5 63q194 0 335 -134.5t152 -327.5h1v-52h-819q7 -212 102 -317q10 -12 22 -22q1 -1 3 -2.5t3 -2.5q6 -5 20 -15q2 -1 6 -3.5t6 -3.5q2 -2 7.5 -5t8.5 -5q4 -2 12.5 -5t9.5 -4q2 -1 5 -2
t4 -2zM564 924q-164 0 -244.5 -112.5t-86.5 -297.5h662q-6 185 -86.5 297.5t-244.5 112.5z" />
    <glyph glyph-name="f" unicode="f" horiz-adv-x="702" 
d="M282 116q0 -60 31 -113h-219q32 54 32 113v658q0 98 47 189.5t122 156t173 103.5t198 39v-52q-175 0 -279.5 -125t-104.5 -311v-257h384v-52h-384v-349z" />
    <glyph glyph-name="g" unicode="g" horiz-adv-x="1118" 
d="M1034 -11q0 -86 -65.5 -158.5t-178 -115t-244.5 -42.5q-202 0 -345.5 93t-143.5 223h157q0 -118 81 -191t251 -73t251 73t81 191q0 54 -15.5 90t-54.5 60.5t-87.5 39t-131.5 30.5q-46 9 -67.5 13t-64 13.5t-64 16.5t-56 19t-52.5 23.5t-41 28.5t-34.5 35t-19.5 42t-8 51
h3q-128 91 -128 212q0 130 143.5 223t345.5 93h4h484v-52h-221q102 -44 161.5 -113.5t59.5 -150.5q0 -130 -143 -222.5t-345 -92.5q-115 0 -219 33q24 -47 86.5 -72t184.5 -49q48 -9 72 -14t68.5 -15t68.5 -18t60.5 -21t56 -26t44 -32t37 -40t21 -47.5t8.5 -57.5zM546 927
q-170 0 -251.5 -73t-81.5 -191t81.5 -190.5t251.5 -72.5t251 72.5t81 190.5t-81 191t-251 73z" />
    <glyph glyph-name="h" unicode="h" horiz-adv-x="1212" 
d="M284 773v-657q0 -60 31 -113h-219q32 54 32 113v1033q0 59 -32 113h219q-31 -53 -31 -113v-301q75 69 172 104t203 25q189 -16 317 -160.5t128 -336.5v-364q0 -60 31 -113h-219q32 54 32 113v466q0 144 -102.5 246.5t-244.5 98.5q-94 -3 -176 -43.5t-141 -110.5z" />
    <glyph glyph-name="i" unicode="i" horiz-adv-x="417" 
d="M99 0q31 53 31 113v751q0 59 -31 112h219q-31 -53 -31 -112v-751q0 -60 31 -113h-219zM208 1266q47 0 81 -34t34 -81t-34 -80.5t-81 -33.5t-80.5 33.5t-33.5 80.5t33.5 81t80.5 34z" />
    <glyph glyph-name="i" unicode="&#xef;" horiz-adv-x="417" 
d="M99 0q31 53 31 113v751q0 59 -31 112h219q-31 -53 -31 -112v-751q0 -60 31 -113h-219zM208 1266q47 0 81 -34t34 -81t-34 -80.5t-81 -33.5t-80.5 33.5t-33.5 80.5t33.5 81t80.5 34z" />
    <glyph glyph-name="i" unicode="&#xee;" horiz-adv-x="417" 
d="M99 0q31 53 31 113v751q0 59 -31 112h219q-31 -53 -31 -112v-751q0 -60 31 -113h-219zM208 1266q47 0 81 -34t34 -81t-34 -80.5t-81 -33.5t-80.5 33.5t-33.5 80.5t33.5 81t80.5 34z" />
    <glyph glyph-name="i" unicode="&#xed;" horiz-adv-x="417" 
d="M99 0q31 53 31 113v751q0 59 -31 112h219q-31 -53 -31 -112v-751q0 -60 31 -113h-219zM208 1266q47 0 81 -34t34 -81t-34 -80.5t-81 -33.5t-80.5 33.5t-33.5 80.5t33.5 81t80.5 34z" />
    <glyph glyph-name="i" unicode="&#xec;" horiz-adv-x="417" 
d="M99 0q31 53 31 113v751q0 59 -31 112h219q-31 -53 -31 -112v-751q0 -60 31 -113h-219zM208 1266q47 0 81 -34t34 -81t-34 -80.5t-81 -33.5t-80.5 33.5t-33.5 80.5t33.5 81t80.5 34z" />
    <glyph glyph-name="j" unicode="j" horiz-adv-x="411" 
d="M283 34q0 -106 -66.5 -198.5t-170 -145t-212.5 -52.5v52q138 0 215.5 97.5t77.5 246.5v838q0 60 -31 113h218q-31 -53 -31 -113v-838z" />
    <glyph glyph-name="k" unicode="k" 
d="M101 11q27 46 27 96v1043q0 58 -32 112h219q-31 -53 -31 -112v-804q44 37 108 75t105.5 58.5t126.5 61.5q117 56 185 108.5t105 127.5t37 178h156q0 -69 -24.5 -128.5t-72 -107t-99.5 -83.5t-124 -73l316 -522l-44 -27l-318 526q-10 -5 -29.5 -14.5t-35.5 -17t-30 -14.5
q-165 -78 -249 -159.5t-105 -208.5q-11 -66 23 -123h-219z" />
    <glyph glyph-name="l" unicode="l" horiz-adv-x="411" 
d="M101 8q26 47 26 100v1049q0 53 -26 100l-3 5h219q-34 -53 -34 -114v-1031q0 -61 34 -114h-219z" />
    <glyph glyph-name="m" unicode="m" horiz-adv-x="2140" 
d="M1158 116q0 -58 30 -108l1 -3h-218l1 3q30 50 30 108v415q0 109 -53.5 202t-145.5 146.5t-200 49.5q-93 -3 -175.5 -43.5t-141.5 -109.5v-660q0 -58 30 -108l1 -3h-219l2 3q30 49 30 108v815l-32 52h219l-31 -52v-81q142 132 332 132q135 0 260.5 -67.5t201.5 -178.5
q76 111 201.5 178.5t260.5 67.5q132 0 244.5 -65.5t178 -178.5t65.5 -245v-381q0 -53 27 -102l2 -5h-219q34 53 34 114v375q0 93 -18 169t-56 137t-102.5 95t-150.5 35q-161 2 -275 -115.5t-114 -280.5v-418z" />
    <glyph glyph-name="n" unicode="n" horiz-adv-x="1208" 
d="M317 983q-31 -53 -31 -113v-20q75 70 172 104.5t203 25.5q125 -11 227.5 -81t160 -180.5t57.5 -236.5v-477h-156v579q0 144 -102.5 246.5t-244.5 98.5q-94 -3 -176 -43.5t-141 -109.5v-658q0 -60 31 -113h-219q32 54 32 113v752q0 59 -32 113h219z" />
    <glyph glyph-name="n" unicode="&#xf1;" horiz-adv-x="1208" 
d="M317 983q-31 -53 -31 -113v-20q75 70 172 104.5t203 25.5q125 -11 227.5 -81t160 -180.5t57.5 -236.5v-477h-156v579q0 144 -102.5 246.5t-244.5 98.5q-94 -3 -176 -43.5t-141 -109.5v-658q0 -60 31 -113h-219q32 54 32 113v752q0 59 -32 113h219z" />
    <glyph glyph-name="o" unicode="o" horiz-adv-x="1124" 
d="M562 978q98 0 189 -40.5t156 -107.5t104 -156.5t39 -184.5t-39 -184.5t-104 -156.5t-156 -107.5t-189 -40.5t-189 40.5t-156 107.5t-104 156.5t-39 184.5t39 184.5t104 156.5t156 107.5t189 40.5zM562 49q87 0 152.5 36t104 98.5t57 139.5t18.5 166t-18.5 165.5t-57 139
t-104 98.5t-152.5 36t-152.5 -36t-104 -98.5t-57 -139t-18.5 -165.5t18.5 -166t57 -139.5t104 -98.5t152.5 -36z" />
    <glyph glyph-name="o" unicode="&#xf8;" horiz-adv-x="1124" 
d="M562 978q98 0 189 -40.5t156 -107.5t104 -156.5t39 -184.5t-39 -184.5t-104 -156.5t-156 -107.5t-189 -40.5t-189 40.5t-156 107.5t-104 156.5t-39 184.5t39 184.5t104 156.5t156 107.5t189 40.5zM562 49q87 0 152.5 36t104 98.5t57 139.5t18.5 166t-18.5 165.5t-57 139
t-104 98.5t-152.5 36t-152.5 -36t-104 -98.5t-57 -139t-18.5 -165.5t18.5 -166t57 -139.5t104 -98.5t152.5 -36z" />
    <glyph glyph-name="o" unicode="&#xf6;" horiz-adv-x="1124" 
d="M562 978q98 0 189 -40.5t156 -107.5t104 -156.5t39 -184.5t-39 -184.5t-104 -156.5t-156 -107.5t-189 -40.5t-189 40.5t-156 107.5t-104 156.5t-39 184.5t39 184.5t104 156.5t156 107.5t189 40.5zM562 49q87 0 152.5 36t104 98.5t57 139.5t18.5 166t-18.5 165.5t-57 139
t-104 98.5t-152.5 36t-152.5 -36t-104 -98.5t-57 -139t-18.5 -165.5t18.5 -166t57 -139.5t104 -98.5t152.5 -36z" />
    <glyph glyph-name="o" unicode="&#xf5;" horiz-adv-x="1124" 
d="M562 978q98 0 189 -40.5t156 -107.5t104 -156.5t39 -184.5t-39 -184.5t-104 -156.5t-156 -107.5t-189 -40.5t-189 40.5t-156 107.5t-104 156.5t-39 184.5t39 184.5t104 156.5t156 107.5t189 40.5zM562 49q87 0 152.5 36t104 98.5t57 139.5t18.5 166t-18.5 165.5t-57 139
t-104 98.5t-152.5 36t-152.5 -36t-104 -98.5t-57 -139t-18.5 -165.5t18.5 -166t57 -139.5t104 -98.5t152.5 -36z" />
    <glyph glyph-name="o" unicode="&#xf4;" horiz-adv-x="1124" 
d="M562 978q98 0 189 -40.5t156 -107.5t104 -156.5t39 -184.5t-39 -184.5t-104 -156.5t-156 -107.5t-189 -40.5t-189 40.5t-156 107.5t-104 156.5t-39 184.5t39 184.5t104 156.5t156 107.5t189 40.5zM562 49q87 0 152.5 36t104 98.5t57 139.5t18.5 166t-18.5 165.5t-57 139
t-104 98.5t-152.5 36t-152.5 -36t-104 -98.5t-57 -139t-18.5 -165.5t18.5 -166t57 -139.5t104 -98.5t152.5 -36z" />
    <glyph glyph-name="o" unicode="&#xf3;" horiz-adv-x="1124" 
d="M562 978q98 0 189 -40.5t156 -107.5t104 -156.5t39 -184.5t-39 -184.5t-104 -156.5t-156 -107.5t-189 -40.5t-189 40.5t-156 107.5t-104 156.5t-39 184.5t39 184.5t104 156.5t156 107.5t189 40.5zM562 49q87 0 152.5 36t104 98.5t57 139.5t18.5 166t-18.5 165.5t-57 139
t-104 98.5t-152.5 36t-152.5 -36t-104 -98.5t-57 -139t-18.5 -165.5t18.5 -166t57 -139.5t104 -98.5t152.5 -36z" />
    <glyph glyph-name="o" unicode="&#xf2;" horiz-adv-x="1124" 
d="M562 978q98 0 189 -40.5t156 -107.5t104 -156.5t39 -184.5t-39 -184.5t-104 -156.5t-156 -107.5t-189 -40.5t-189 40.5t-156 107.5t-104 156.5t-39 184.5t39 184.5t104 156.5t156 107.5t189 40.5zM562 49q87 0 152.5 36t104 98.5t57 139.5t18.5 166t-18.5 165.5t-57 139
t-104 98.5t-152.5 36t-152.5 -36t-104 -98.5t-57 -139t-18.5 -165.5t18.5 -166t57 -139.5t104 -98.5t152.5 -36z" />
    <glyph glyph-name="p" unicode="p" horiz-adv-x="1181" 
d="M673 978q167 -20 288 -140.5t140 -287.5q12 -108 -22 -209t-100 -174.5t-161.5 -117.5t-201.5 -44q-190 0 -332 132v-303q0 -60 31 -113h-219q32 54 32 113v1036q0 59 -32 113h219q-31 -53 -31 -113v-20q77 72 177.5 106t211.5 22zM616 57q87 0 152.5 34t104 95t57 138
t18.5 170t-18.5 170t-57 137.5t-104 94.5t-152.5 34q-98 0 -184.5 -41t-147.5 -113v-565q61 -72 147.5 -113t184.5 -41z" />
    <glyph glyph-name="q" unicode="q" horiz-adv-x="1181" 
d="M1083 983q-31 -53 -31 -112v-1037q0 -60 31 -113h-218q31 53 31 113v303q-142 -132 -332 -132q-106 0 -201.5 44t-161.5 117.5t-100 174.5t-22 209q19 167 140 287.5t288 140.5q111 12 211.5 -22t177.5 -106v21q0 59 -31 112h218zM896 211v565q-61 72 -147.5 113
t-184.5 41q-87 0 -152.5 -34t-104 -94.5t-57 -137.5t-18.5 -170t18.5 -170t57 -138t104 -95t152.5 -34q98 0 184.5 41t147.5 113z" />
    <glyph glyph-name="r" unicode="r" horiz-adv-x="747" 
d="M288 706q61 122 178 196t258 74v-52q-180 0 -308 -128t-128 -308v-387q0 -49 23 -93l4 -8h-219q36 53 36 115v750q0 60 -31 113h219q-32 -54 -32 -113v-159z" />
    <glyph glyph-name="s" unicode="s" horiz-adv-x="1140" 
d="M570 927q-165 0 -245.5 -64.5t-80.5 -154.5q0 -56 44.5 -96t113.5 -62t172 -37q72 -13 123 -23.5t112 -26.5t102 -34t77.5 -41.5t54.5 -53.5t18 -65q0 -105 -144 -187t-347 -82t-347.5 82t-144.5 187h165q0 -90 81 -155t246 -65t245.5 65t80.5 155q0 77 -80 121t-251 74
q-81 12 -143.5 24.5t-130.5 33.5t-112 45.5t-72.5 60.5t-28.5 80q0 68 64.5 129.5t179 100t248.5 38.5q203 0 347 -81.5t144 -186.5h-165q0 90 -80.5 154.5t-245.5 64.5z" />
    <glyph glyph-name="t" unicode="t" horiz-adv-x="700" 
d="M334 397q0 -149 77.5 -247t215.5 -98v-52q-109 0 -212.5 52.5t-170 145.5t-66.5 199v527h-145v52h145v257h156v-257h331v-52h-331v-527z" />
    <glyph glyph-name="u" unicode="u" horiz-adv-x="1187" 
d="M925 869q0 60 -31 113h219q-32 -54 -32 -113v-377q0 -135 -68 -249.5t-185.5 -179t-253.5 -59.5q-129 5 -237.5 74t-170 182.5t-61.5 243.5v365q0 60 -31 113h218q-31 -53 -31 -113v-377q0 -93 18.5 -169.5t56.5 -137t102.5 -94.5t150.5 -35q139 -1 237.5 100t98.5 242
v471z" />
    <glyph glyph-name="u" unicode="&#xfc;" horiz-adv-x="1187" 
d="M925 869q0 60 -31 113h219q-32 -54 -32 -113v-377q0 -135 -68 -249.5t-185.5 -179t-253.5 -59.5q-129 5 -237.5 74t-170 182.5t-61.5 243.5v365q0 60 -31 113h218q-31 -53 -31 -113v-377q0 -93 18.5 -169.5t56.5 -137t102.5 -94.5t150.5 -35q139 -1 237.5 100t98.5 242
v471z" />
    <glyph glyph-name="u" unicode="&#xfb;" horiz-adv-x="1187" 
d="M925 869q0 60 -31 113h219q-32 -54 -32 -113v-377q0 -135 -68 -249.5t-185.5 -179t-253.5 -59.5q-129 5 -237.5 74t-170 182.5t-61.5 243.5v365q0 60 -31 113h218q-31 -53 -31 -113v-377q0 -93 18.5 -169.5t56.5 -137t102.5 -94.5t150.5 -35q139 -1 237.5 100t98.5 242
v471z" />
    <glyph glyph-name="u" unicode="&#xfa;" horiz-adv-x="1187" 
d="M925 869q0 60 -31 113h219q-32 -54 -32 -113v-377q0 -135 -68 -249.5t-185.5 -179t-253.5 -59.5q-129 5 -237.5 74t-170 182.5t-61.5 243.5v365q0 60 -31 113h218q-31 -53 -31 -113v-377q0 -93 18.5 -169.5t56.5 -137t102.5 -94.5t150.5 -35q139 -1 237.5 100t98.5 242
v471z" />
    <glyph glyph-name="u" unicode="&#xf9;" horiz-adv-x="1187" 
d="M925 869q0 60 -31 113h219q-32 -54 -32 -113v-377q0 -135 -68 -249.5t-185.5 -179t-253.5 -59.5q-129 5 -237.5 74t-170 182.5t-61.5 243.5v365q0 60 -31 113h218q-31 -53 -31 -113v-377q0 -93 18.5 -169.5t56.5 -137t102.5 -94.5t150.5 -35q139 -1 237.5 100t98.5 242
v471z" />
    <glyph glyph-name="v" unicode="v" horiz-adv-x="864" 
d="M822 946l-284 -838q-17 -52 8 -101l1 -3h-219q33 52 13 110l-273 794q-8 23 -21 40l-24 34h218q-22 -53 -3 -106l253 -735l282 822z" />
    <glyph glyph-name="w" unicode="w" horiz-adv-x="1619" 
d="M1294 110q-19 -55 9 -105l1 -1h-219q31 50 11 109l-280 815l-277 -818q-19 -55 9 -105l1 -1h-219q31 50 11 109l-273 795q-8 23 -21 40l-24 34h218q-22 -53 -3 -106l253 -735l288 839h179l288 -839l282 822l49 -17z" />
    <glyph glyph-name="x" unicode="x" horiz-adv-x="1093" 
d="M1041 968q0 -69 -28 -131.5t-70 -109t-109 -93t-124.5 -77t-137.5 -67.5l424 -426q11 -11 17 -24l17 -39h-115q12 23 8.5 49t-22.5 45l-373 374q-157 -74 -231 -187.5t-74 -280.5h-149q0 303 420 502l-405 407q-8 8 -11 13l-31 45h115q-15 -53 23 -91l353 -353
q5 2 14 6.5l13 6.5q170 79 248 179.5t78 251.5h150z" />
    <glyph glyph-name="y" unicode="y" horiz-adv-x="1142" 
d="M465 78q86 53 150.5 105.5t126 129t100 166t62 214t23.5 275.5h156q0 -90 -12 -172t-32 -149.5t-52 -130.5t-65 -112t-78.5 -98t-84.5 -83.5t-91.5 -73t-91 -63.5t-91.5 -57q-132 -80 -177 -157t-45 -205h-156q0 51 16 96.5t40.5 81t66 72t80 63t94.5 61.5
q-133 56 -215 177.5t-82 270.5v366q0 60 -31 113h219q-32 -54 -32 -113v-366q0 -152 49.5 -260.5t152.5 -150.5z" />
    <glyph glyph-name="y" unicode="&#xff;" horiz-adv-x="1142" 
d="M465 78q86 53 150.5 105.5t126 129t100 166t62 214t23.5 275.5h156q0 -90 -12 -172t-32 -149.5t-52 -130.5t-65 -112t-78.5 -98t-84.5 -83.5t-91.5 -73t-91 -63.5t-91.5 -57q-132 -80 -177 -157t-45 -205h-156q0 51 16 96.5t40.5 81t66 72t80 63t94.5 61.5
q-133 56 -215 177.5t-82 270.5v366q0 60 -31 113h219q-32 -54 -32 -113v-366q0 -152 49.5 -260.5t152.5 -150.5z" />
    <glyph glyph-name="y" unicode="&#xfd;" horiz-adv-x="1142" 
d="M465 78q86 53 150.5 105.5t126 129t100 166t62 214t23.5 275.5h156q0 -90 -12 -172t-32 -149.5t-52 -130.5t-65 -112t-78.5 -98t-84.5 -83.5t-91.5 -73t-91 -63.5t-91.5 -57q-132 -80 -177 -157t-45 -205h-156q0 51 16 96.5t40.5 81t66 72t80 63t94.5 61.5
q-133 56 -215 177.5t-82 270.5v366q0 60 -31 113h219q-32 -54 -32 -113v-366q0 -152 49.5 -260.5t152.5 -150.5z" />
    <glyph glyph-name="z" unicode="z" horiz-adv-x="1089" 
d="M66 965h996l-818 -925h746v-45h-959l817 924h-782v46z" />
    <glyph glyph-name="braceleft" unicode="{" horiz-adv-x="530" 
d="M590 1435q-48 0 -82.5 -9.5t-55.5 -28t-34 -45t-17.5 -60t-6 -74t0.5 -85.5v-205q2 -114 -49.5 -179.5t-172.5 -91.5q122 -26 173 -90.5t49 -178.5v-207q-1 -66 0 -102.5t11 -80.5t30.5 -66t58.5 -37t95 -15v-7q-183 -19 -270 60.5t-87 272.5v218q0 98 -41 159t-126 74
q167 28 167 234v217q0 193 87 273t270 61v-7z" />
    <glyph glyph-name="verticalbar" unicode="|" horiz-adv-x="299" 
d="M135 1285h29v-1605l-29 2v1603z" />
    <glyph glyph-name="braceright" unicode="}" horiz-adv-x="530" 
d="M297 891q0 -206 168 -234q-85 -13 -126.5 -74.5t-41.5 -159.5v-217q0 -193 -86.5 -273t-269.5 -61v8q48 0 82 9.5t55 28t34 45t17.5 60t6 73t-0.5 85.5v207q-2 114 49.5 178.5t173.5 90.5q-122 26 -173.5 91.5t-49.5 179.5v205q2 45 0.5 85.5t-6 74t-17.5 60t-34 45
t-55 28t-82 9.5v7q183 19 269.5 -61t86.5 -273v-217z" />
    <glyph glyph-name="nonbreakingspace" unicode="&#xa0;" horiz-adv-x="565" 
 />
    <glyph glyph-name="softhyphen" unicode="&#xad;" horiz-adv-x="0" 
 />
    <glyph glyph-name="tonos" unicode="&#x384;" horiz-adv-x="219" 
d="M178 182l-129 -182l7 182h122z" />
    <glyph glyph-name="Alpha" unicode="&#x391;" horiz-adv-x="1081" 
d="M1015 74q8 -23 21 -41l25 -33h-115q21 54 3 105l-175 508h-364l-175 -508q-18 -52 2 -105h-219l25 33q15 20 22 41l372 1079q20 57 -12 110h229v-1q-30 -51 -11 -107zM428 665h329l-164 478z" />
    <glyph glyph-name="Beta" unicode="&#x392;" horiz-adv-x="1181" 
d="M106 0q32 54 32 113v1037q0 59 -32 113h516q65 0 115 -42t57 -105q10 -90 -58 -148q174 -40 283.5 -184t96.5 -328q-9 -127 -79 -232t-182 -164.5t-240 -59.5h-509zM294 1211v-231h334q48 0 81.5 33.5t33.5 81.5t-33.5 82t-81.5 34h-334zM294 928v-876h334q88 0 153.5 34
t104 95t57 138.5t18.5 170.5t-18.5 170.5t-57 138.5t-104 95t-153.5 34h-334z" />
    <glyph glyph-name="Gamma" unicode="&#x393;" horiz-adv-x="1103" 
d="M106 0q32 54 32 113v1037q0 59 -32 113h32h954v-52h-798v-1098q0 -60 31 -113h-219z" />
    <glyph glyph-name="Deltagreek" unicode="&#x394;" horiz-adv-x="1081" 
d="M437 1153q20 57 -12 110h229v-1q-30 -51 -11 -107l358 -1041q21 -62 60 -114h-1043h1q37 48 59 113zM593 1143l-377 -1091h751z" />
    <glyph glyph-name="Epsilon" unicode="&#x395;" horiz-adv-x="1116" 
d="M106 0q32 54 32 113v1037q0 59 -32 113h983v-52h-795v-544h422v-52h-422v-563h795v-52h-983z" />
    <glyph glyph-name="Zeta" unicode="&#x396;" horiz-adv-x="1335" 
d="M1277 52v-52h-1246v49l9 8l1078 1154h-1067v52h1252v-49l-10 -8l-1078 -1154h1062z" />
    <glyph glyph-name="Eta" unicode="&#x397;" horiz-adv-x="1409" 
d="M1113 107v575q-48 -35 -118.5 -72t-119 -58t-141.5 -59q-92 -37 -157.5 -71.5t-124 -78t-94.5 -96.5t-51 -118q-17 -69 29 -129h-238l7 9q34 43 34 98v1038q0 64 -41 118h238q-41 -54 -41 -118v-818q52 41 130 83t132.5 65.5t157.5 65.5q104 42 172.5 80t122.5 87
t78.5 109t24.5 137v191q0 66 -40 118h237q-40 -52 -40 -118v-1038q0 -56 33 -98l7 -9h-237l7 9q33 42 33 98z" />
    <glyph glyph-name="Theta" unicode="&#x398;" horiz-adv-x="1411" 
d="M705 -1q-128 0 -245 50t-201.5 134.5t-134.5 201.5t-50 245q0 171 84.5 316.5t230 230.5t316.5 85t316.5 -85t230.5 -230.5t85 -316.5t-85 -316.5t-230.5 -230t-316.5 -84.5zM705 51q114 0 204 43t147.5 118.5t89 175t34.5 216.5h-950q3 -117 34.5 -216.5t89 -175
t147.5 -118.5t204 -43zM705 1210q-114 0 -204 -43t-147.5 -119t-89 -175.5t-34.5 -216.5h950q-3 117 -34.5 216.5t-89 175.5t-147.5 119t-204 43z" />
    <glyph glyph-name="Iota" unicode="&#x399;" horiz-adv-x="432" 
d="M106 0q32 54 32 113v1037q0 59 -32 113h219q-31 -53 -31 -113v-1037q0 -60 31 -113h-219z" />
    <glyph glyph-name="Kappa" unicode="&#x39a;" horiz-adv-x="1183" 
d="M1120 1263q0 -69 -26.5 -132t-67 -110.5t-103.5 -94t-121 -78.5t-134 -68l473 -782h-61l-460 760q-117 -56 -193.5 -101.5t-130.5 -100.5v-443q0 -60 31 -113h-218q31 53 31 113v1037q0 60 -31 113h218q-31 -53 -31 -113v-523q44 37 107 75t107.5 60t125.5 61
q170 81 249 183.5t79 256.5h156z" />
    <glyph glyph-name="Lambda" unicode="&#x39b;" horiz-adv-x="1077" 
d="M597 1142l-356 -1037q-19 -54 2 -105h-218l24 33q15 20 22 41l373 1086q17 51 -2 101l-1 2h209q-22 -53 -3 -106l400 -1159h-56z" />
    <glyph glyph-name="Mu" unicode="&#x39c;" horiz-adv-x="1656" 
d="M1360 1212h-14l-458 -1109q-21 -51 -3 -103h-115q18 52 -3 103l-458 1109h-14v-1099q0 -60 31 -113h-31h-155h-31q31 53 31 113v1038q0 60 -31 113h31h204h40q-19 -53 3 -104l441 -1066l440 1066q22 51 3 104h40h205h31q-31 -53 -31 -113v-1038q0 -60 31 -113h-31h-156
h-31q31 53 31 113v1099z" />
    <glyph glyph-name="Nu" unicode="&#x39d;" horiz-adv-x="1204" 
d="M294 113q0 -60 31 -113h-219q32 54 32 113v1067q0 30 -16 57l-16 26h32h123h64q-31 -56 1 -110l584 -994v991q0 59 -32 113h219q-31 -53 -31 -113v-1069q0 -29 15 -53l16 -28h-31h-124h-64q32 53 1 105l-585 1000v-992z" />
    <glyph glyph-name="Xi" unicode="&#x39e;" horiz-adv-x="1067" 
d="M954 608h-842v52h842v-52zM1031 1211h-996q-7 25 -23 53h1042q-16 -28 -23 -53zM35 53h996q7 -25 23 -53h-1042q16 28 23 53z" />
    <glyph glyph-name="Omicron" unicode="&#x39f;" horiz-adv-x="1411" 
d="M705 1264q171 0 316.5 -85t230.5 -230.5t85 -316.5t-85 -316.5t-230.5 -230t-316.5 -84.5q-128 0 -245 50t-201.5 134.5t-134.5 201.5t-50 245q0 171 84.5 316.5t230 230.5t316.5 85zM705 53q116 0 208 45.5t149.5 125t87.5 183.5t30 225t-30 225.5t-87.5 184t-149.5 125
t-208 45.5t-208 -45.5t-149.5 -125t-87.5 -184t-30 -225.5t30 -225t87.5 -183.5t149.5 -125t208 -45.5z" />
    <glyph glyph-name="Pi" unicode="&#x3a0;" horiz-adv-x="1255" 
d="M1148 1264q-31 -53 -31 -113v-1037q0 -60 31 -113h-219q32 54 32 113v1098h-667v-1098q0 -60 31 -113h-219q32 54 32 113v1037q0 59 -32 113h1042z" />
    <glyph glyph-name="Rho" unicode="&#x3a1;" horiz-adv-x="1169" 
d="M785 1262q128 0 224.5 -84t108.5 -209q13 -144 -83.5 -250.5t-239.5 -106.5h-499v-500q0 -60 31 -113h-218q31 53 31 113v1037q0 60 -31 113h31h645zM691 664q113 0 193 80t80 193t-80 193t-193 80h-395v-546h395z" />
    <glyph glyph-name="Sigma" unicode="&#x3a3;" horiz-adv-x="1083" 
d="M1054 1263v-52h-878l623 -511v-124l-625 -524h880v-52h-896h-115q44 53 44 120v32l560 474l-560 484v33q0 67 -44 120h44v0h13h954z" />
    <glyph glyph-name="Tau" unicode="&#x3a4;" horiz-adv-x="948" 
d="M396 1211h-386v52h928v-52h-386v-1098q0 -60 31 -113h-219q32 54 32 113v1098z" />
    <glyph glyph-name="Upsilon" unicode="&#x3a5;" horiz-adv-x="1110" 
d="M648 637v-523q0 -63 33 -114h-219l2 4q27 48 27 103v516l-447 584q-1 1 -3 3.5t-3 4.5l-30 48h219q-16 -53 17 -96l372 -486l434 571l42 -31z" />
    <glyph glyph-name="Phi" unicode="&#x3a6;" horiz-adv-x="1374" 
d="M713 1088q166 -5 305 -67t219.5 -165t80.5 -224t-80.5 -224.5t-219.5 -165.5t-305 -67v-175h-52v175q-166 5 -305 67t-220 165.5t-81 224.5t81 224t220 165t305 67v175h52v-175zM212 632q0 -171 116 -284.5t333 -120.5v809q-110 -4 -197 -37t-141.5 -88t-82.5 -125.5
t-28 -153.5zM713 228q110 4 197 37t141.5 88t82.5 125.5t28 153.5t-28 153.5t-82.5 125.5t-141.5 88t-197 37v-808z" />
    <glyph glyph-name="Chi" unicode="&#x3a7;" horiz-adv-x="1175" 
d="M1107 59q4 -5 10 -15l22 -44h-219q22 51 -12 97l-374 488q-140 -100 -208 -242t-68 -352h-156q0 112 32 210.5t90.5 176.5t125 137t151.5 114l-437 571q-10 11 -14 24l-13 39h219q-14 -24 -12.5 -51t18.5 -49l353 -462q73 45 126.5 83.5t111 93t93.5 109t59.5 126
t23.5 150.5h53q0 -86 -25 -164.5t-64 -137.5t-99 -117t-116 -98.5t-130 -86.5z" />
    <glyph glyph-name="Psi" unicode="&#x3a8;" horiz-adv-x="1454" 
d="M1170 1263h219q-31 -53 -31 -113v-344q0 -125 -47.5 -239t-128.5 -198t-192.5 -136t-235.5 -58v-177h-52v177q-166 6 -305.5 92t-220.5 229t-81 310v344q0 59 -32 113h219q-31 -53 -31 -113v-344q0 -159 48.5 -285.5t152 -207t250.5 -86.5v1036h52v-1036q146 7 249 88
t151 206.5t48 284.5v344q0 59 -32 113z" />
    <glyph glyph-name="Omegagreek" unicode="&#x3a9;" horiz-adv-x="1431" 
d="M1347 632q0 -192 -105 -349t-276 -231h355v-52h-527v58q130 19 221 101t133.5 203t42.5 270q0 121 -30 225t-87.5 183.5t-149.5 125t-209 45.5q-116 0 -208 -45.5t-149.5 -125t-87.5 -183.5t-30 -225q0 -149 42.5 -270t133.5 -203t221 -101v-58h-527v52h355
q-171 74 -276 231t-105 349q0 128 50 245t134.5 201.5t201.5 134.5t245 50q171 0 316.5 -84.5t230.5 -230t85 -316.5z" />
    <glyph glyph-name="alphatonos" unicode="&#x3ac;" horiz-adv-x="1175" 
d="M927 1248h121l-128 -182zM1044 858v-746q0 -59 31 -112h-217v1q31 62 31 129q-140 -130 -329 -130q-140 0 -257 73t-178.5 198t-45.5 268q19 166 139 286.5t286 139.5q109 12 209 -22t176 -105v20v1q-1 46 29 78.5t74 32.5h83q-31 -53 -31 -112zM889 204v560
q-60 71 -146 111.5t-183 40.5q-87 0 -151.5 -33.5t-102.5 -93.5t-56.5 -136.5t-18.5 -168.5t18.5 -168.5t56.5 -136.5t102.5 -93.5t151.5 -33.5q97 0 183 40.5t146 111.5z" />
    <glyph glyph-name="epsilontonos" unicode="&#x3ad;" horiz-adv-x="1124" 
d="M577 1248h121l-128 -182zM852 137q27 28 31.5 69t-15.5 75h186v-26q0 -107 -140.5 -181t-343.5 -74t-343.5 74t-140.5 181q0 75 73.5 136.5t196.5 92.5q-123 31 -196.5 92.5t-73.5 136.5q0 107 140.5 181t343.5 74t343.5 -74t140.5 -181h-155q0 89 -81.5 146t-247.5 57
t-247.5 -57t-81.5 -146t81.5 -146t247.5 -57v-52q-166 0 -247.5 -57t-81.5 -146t81.5 -146t247.5 -57q202 0 282 85z" />
    <glyph glyph-name="etatonos" unicode="&#x3ae;" horiz-adv-x="1198" 
d="M615 1248h121l-128 -182zM658 963q124 -11 225.5 -80.5t158.5 -178.5t57 -234v-771h-154v872q0 143 -101.5 244.5t-242.5 97.5q-93 -3 -175 -43t-140 -109v-652q0 -59 31 -112h-217q31 53 31 112v746q0 59 -31 112h217q-31 -53 -31 -112v-20q74 68 170 102.5t202 25.5z
" />
    <glyph glyph-name="iotatonos" unicode="&#x3af;" horiz-adv-x="413" 
d="M200 1248h121l-128 -182zM313 968q-31 -53 -31 -112v-744q0 -59 31 -112h-84q-42 0 -72 30t-30 72v754q0 59 -31 112h217z" />
    <glyph glyph-name="alpha" unicode="&#x3b1;" 
d="M1073 996q-31 -53 -31 -111v-747q0 -59 31 -112h-217v2q31 62 31 129q-141 -131 -329 -131q-140 0 -257 73.5t-178.5 198.5t-45.5 268q19 166 139 286t286 139q109 12 209 -22t176 -105v21v1q-1 46 28.5 78t74.5 32h83zM887 231v559q-61 71 -146.5 112t-182.5 41
q-87 0 -151.5 -33.5t-102.5 -94t-56.5 -137t-18.5 -168.5t18.5 -168.5t56.5 -136.5t102.5 -93.5t151.5 -33.5q97 0 182.5 41t146.5 112z" />
    <glyph glyph-name="beta" unicode="&#x3b2;" horiz-adv-x="1163" 
d="M765 689q146 -34 238 -122.5t92 -199.5q0 -141 -142 -241t-342 -100q-190 0 -329 92v-40h31v-52h-217v52h31v887q0 128 129 219t311 91t310.5 -91t128.5 -219q0 -89 -66 -163t-175 -113zM282 965v-349q119 78 285 89v2q151 0 217.5 70.5t66.5 187.5t-66.5 187.5
t-217.5 70.5t-218 -70.5t-67 -187.5zM611 78q169 0 249 80t80 209t-80 208.5t-249 79.5q-199 0 -329 -102v-373q130 -102 329 -102z" />
    <glyph glyph-name="gamma" unicode="&#x3b3;" horiz-adv-x="1050" 
d="M743 545q27 27 46.5 56.5t31.5 66t19 66.5t10 80t3.5 83.5t0.5 98.5h155q0 -81 -19 -153.5t-55 -133.5t-71 -105t-84 -94q-57 -58 -88 -92.5t-67.5 -94.5t-54.5 -123l82 -165v-199q0 -59 31 -110h-217q31 51 31 110v193l-448 907q-4 8 -7 12l-30 45h217q-23 -50 2 -101
l307 -626q22 55 60 110t65 84.5t80 84.5z" />
    <glyph glyph-name="delta" unicode="&#x3b4;" horiz-adv-x="1114" 
d="M583 883q75 -20 115 -32t104 -35.5t98.5 -48.5t72.5 -61.5t54.5 -85.5t16.5 -110q0 -200 -142 -342t-342 -142t-342 142t-142 342q0 124 60.5 234t165.5 176q-107 50 -166.5 128.5t-59.5 200.5v26h942v-52h-787q4 -67 21.5 -116t43 -83t71 -60.5t93.5 -43.5t123 -37z
M560 78q87 0 151.5 33.5t102.5 93.5t56.5 136.5t18.5 168.5q0 78 -18 130.5t-61.5 88.5t-97 58t-142.5 46q-139 36 -208 62q-28 -14 -49 -33t-35 -40.5t-23.5 -46.5t-14 -52t-7 -56.5t-2.5 -59.5v-62v-35q0 -92 18.5 -168.5t56.5 -136.5t102.5 -93.5t151.5 -33.5z" />
    <glyph glyph-name="epsilon" unicode="&#x3b5;" horiz-adv-x="1124" 
d="M868 307h186v-26q0 -107 -140.5 -181t-343.5 -74t-343.5 74t-140.5 181q0 75 73.5 136.5t196.5 92.5q-123 31 -196.5 93t-73.5 137q0 107 140 180.5t344 73.5t344 -73.5t140 -180.5h-155q0 89 -81.5 146t-247.5 57t-247.5 -57t-81.5 -146t81.5 -146.5t247.5 -57.5v-51
q-166 0 -247.5 -57.5t-81.5 -146.5t81.5 -146t247.5 -57q201 0 282 86q27 28 31.5 68.5t-15.5 74.5z" />
    <glyph glyph-name="zeta" unicode="&#x3b6;" horiz-adv-x="821" 
d="M567 -3q49 -24 70 -34.5t59 -30.5t55.5 -33t39 -31t31.5 -35t13 -35q7 -39 -20 -73h-184q2 3 6.5 9t6.5 8q23 29 24 66.5t-21 66.5q-32 42 -103 76q-48 23 -73.5 36t-72.5 37.5t-74 42t-67 45t-63.5 50.5t-51.5 54t-42.5 61.5t-25 67t-10.5 74.5h-1v1h1q0 39 9.5 75
t23.5 66t41 60t50.5 52.5t63 49t68 43.5t77 41t77.5 37.5t81 37.5q56 25 94 52t59.5 53.5t34 59t17.5 64.5t10 74q0 9 0.5 13.5t1.5 12.5t2 14h-685v51h842v-26q0 -101 -43.5 -177.5t-116.5 -129.5t-194 -108q-184 -84 -271.5 -177t-87.5 -238q0 -74 25.5 -137t74.5 -114.5
t109 -92t140 -79.5z" />
    <glyph glyph-name="eta" unicode="&#x3b7;" horiz-adv-x="1200" 
d="M1097 -275h-154v873q0 143 -101.5 244.5t-242.5 97.5q-93 -3 -175 -43t-140 -109v-652q0 -59 31 -112h-217q31 53 31 112v746q0 58 -31 111h217q-31 -53 -31 -111v-20q74 68 170 102.5t202 25.5q124 -11 225.5 -80.5t158.5 -178.5t57 -234v-772z" />
    <glyph glyph-name="theta" unicode="&#x3b8;" horiz-adv-x="1132" 
d="M566 1275q131 0 242.5 -83.5t176.5 -227.5t65 -313t-65 -313t-176.5 -228t-242.5 -84t-242.5 84t-176.5 228t-65 313t65 313t176.5 227.5t242.5 83.5zM566 1223q-84 0 -148 -42t-102 -118t-57.5 -172.5t-21.5 -214.5h658q-2 118 -21.5 214.5t-57.5 172.5t-102 118
t-148 42zM566 78q84 0 148 42t102 118t57.5 172.5t21.5 214.5h-658q2 -118 21.5 -214.5t57.5 -172.5t102 -118t148 -42z" />
    <glyph glyph-name="iota" unicode="&#x3b9;" horiz-adv-x="401" 
d="M121 128v755q0 58 -31 111h217q-31 -53 -31 -111v-745q0 -59 31 -112h-84q-42 0 -72 30t-30 72z" />
    <glyph glyph-name="kappa" unicode="&#x3ba;" 
d="M99 33q26 44 26 96v1033q0 59 -31 112h217q-31 -53 -31 -112v-797q43 37 105.5 74.5t106.5 59.5t125 60q169 80 247 181t78 254h154q0 -247 -317 -413l340 -559h-62l-324 536q-15 -8 -46.5 -23t-47.5 -22q-164 -77 -247 -158t-104 -207q-11 -65 23 -122h-217z" />
    <glyph glyph-name="lambda" unicode="&#x3bb;" horiz-adv-x="1071" 
d="M825 25q23 50 -2 99l-307 617q-22 -54 -59 -107.5t-66 -85t-80 -82.5q-32 -32 -53.5 -70.5t-33 -72t-17 -89.5t-6.5 -94.5t-1 -114.5h-155q0 79 19 150t55 130.5t71 102.5t84 93q43 43 66.5 68t55 65.5t52.5 82t35 89.5l-81 163l-109 241q-4 9 -16 25l-30 39h217
q-22 -51 1 -100l92 -199l448 -894q1 -2 3.5 -6t3.5 -6l30 -44h-217z" />
    <glyph glyph-name="mugreek" unicode="&#x3bc;" horiz-adv-x="1196" 
d="M940 883q0 58 -31 111h217q-31 -53 -31 -111v-370q0 -129 -62 -240t-170 -178t-237 -70q-87 -2 -152.5 24.5t-106.5 69.5t-85 114v-396q0 -59 31 -112h-217q31 53 31 112v1046q0 58 -31 111h217q-31 -53 -31 -111v-547q32 -57 53 -90.5t52 -70.5t61 -56t72.5 -31
t94.5 -12q136 1 230.5 100.5t94.5 236.5v470z" />
    <glyph glyph-name="nu" unicode="&#x3bd;" horiz-adv-x="849" 
d="M819 996l-313 -913l2 -6h-4l-18 -51h-118l-308 896q-8 23 -21 40l-25 33h217q-22 -51 -3 -104l251 -729l286 834h54z" />
    <glyph glyph-name="xi" unicode="&#x3be;" horiz-adv-x="608" 
d="M755 -106q71 0 116 -29t63 -71q13 -33 -4 -69h-187q18 20 40 50q2 3 9.5 12.5t11 15t5.5 14t-2 13.5t-17 8.5t-35 3.5h-181q-131 0 -242.5 50t-176.5 135.5t-65 186.5q0 116 85.5 210t222.5 135q-137 41 -222.5 135t-85.5 210q0 100 65 185t174 135h-213v51h813v-51h-355
q-87 0 -151.5 -25t-102.5 -69.5t-56.5 -101t-18.5 -124.5t18.5 -124.5t56.5 -101t102.5 -69t151.5 -24.5v-52q-87 0 -151.5 -24.5t-102.5 -69t-56.5 -101t-18.5 -124.5t18.5 -124.5t56.5 -101t102.5 -69.5t151.5 -25h181z" />
    <glyph glyph-name="omicron" unicode="&#x3bf;" horiz-adv-x="1116" 
d="M558 995q200 0 342 -141.5t142 -341.5t-142 -342t-342 -142t-342 142t-142 342t142 341.5t342 141.5zM558 79q87 0 151.5 33.5t102.5 93.5t56.5 136.5t18.5 168.5t-18.5 168.5t-56.5 137t-102.5 94t-151.5 33.5t-151.5 -33.5t-102.5 -94t-56.5 -137t-18.5 -168.5
t18.5 -168.5t56.5 -136.5t102.5 -93.5t151.5 -33.5z" />
    <glyph glyph-name="pi" unicode="&#x3c0;" horiz-adv-x="1220" 
d="M1126 995q-31 -53 -31 -111v-745q0 -58 31 -111h-217q32 54 32 111v805h-661v-805q0 -58 31 -111h-217q31 53 31 111v745q0 58 -31 111h1032z" />
    <glyph glyph-name="rho" unicode="&#x3c1;" horiz-adv-x="1146" 
d="M553 994q112 8 215 -34.5t173.5 -118.5t105 -182t18.5 -220q-22 -152 -130 -264t-259 -139q-118 -21 -227 12t-191 110v-321q0 -59 31 -112h-217q31 53 31 112v660q0 194 129.5 339t320.5 158zM587 79q87 0 151.5 33.5t102.5 93.5t56.5 136.5t18.5 168.5t-18.5 168.5
t-56.5 137t-102.5 94t-151.5 33.5t-151.5 -33.5t-102.5 -94t-56.5 -137t-18.5 -168.5t18.5 -168.5t56.5 -136.5t102.5 -93.5t151.5 -33.5z" />
    <glyph glyph-name="sigmafinal" unicode="&#x3c2;" horiz-adv-x="1087" 
d="M632 189q63 -17 95 -25.5t82 -24t75.5 -27.5t57.5 -30.5t47 -37t26 -43t11 -53.5q0 -111 -139 -187t-342 -76v52q164 0 244 59t80 152q0 52 -14 79t-68 54t-169 57q-52 14 -80 21q-122 31 -212 72t-139.5 80t-78.5 86t-37 83t-8 77q0 108 65 200t176 145t241 53t241 -53
t175.5 -145t64.5 -200h-157q0 155 -78.5 250.5t-245.5 95.5t-245.5 -95.5t-78.5 -250.5q0 -46 3.5 -77.5t15 -67.5t34 -62t58 -52t90.5 -47.5t129 -40.5l-6 -25l6 25q42 -10 81 -21z" />
    <glyph glyph-name="sigma" unicode="&#x3c3;" horiz-adv-x="1138" 
d="M558 995v2h515v-52h-302q122 -60 196.5 -176.5t74.5 -256.5q0 -200 -142 -342t-342 -142t-342 142t-142 342t142 341.5t342 141.5zM558 79q87 0 151.5 33.5t102.5 93.5t56.5 136.5t18.5 168.5t-18.5 168.5t-56.5 137t-102.5 94t-151.5 33.5t-151.5 -33.5t-102.5 -94
t-56.5 -137t-18.5 -168.5t18.5 -168.5t56.5 -136.5t102.5 -93.5t151.5 -33.5z" />
    <glyph glyph-name="tau" unicode="&#x3c4;" horiz-adv-x="958" 
d="M20 944v51h917v-51h-389v-922h-154v922h-374z" />
    <glyph glyph-name="upsilon" unicode="&#x3c5;" 
d="M881 997h217q-31 -53 -31 -112v-373q0 -139 -72 -255t-195 -178t-264 -49q-187 18 -312 161.5t-125 334.5v359q0 59 -31 112h216q-31 -53 -31 -112v-374q0 -91 18 -166.5t54.5 -135t99.5 -94t147 -36.5q140 -4 240 99t100 245v462q0 59 -31 112z" />
    <glyph glyph-name="phi" unicode="&#x3c6;" horiz-adv-x="1366" 
d="M671 995q169 0 313 -65t228 -176.5t84 -242.5q0 -128 -80 -237t-217.5 -175t-301.5 -71v-303h-51v303q-164 5 -301.5 71t-217.5 175t-80 237h155q0 -89 27 -164.5t80.5 -134t139.5 -93.5t197 -39v915h25zM697 80q147 5 249 65t148.5 154t46.5 213q0 89 -27 164.5
t-80.5 134t-139.5 93.5t-197 39v-863z" />
    <glyph glyph-name="chi" unicode="&#x3c7;" horiz-adv-x="1071" 
d="M1020 996q0 -68 -28 -131t-69.5 -109.5t-107 -93t-124 -78t-136.5 -67.5l421 -422q10 -10 16 -23l17 -39h-113q12 23 7.5 48.5t-22.5 44.5l-370 371q-302 -142 -302 -475h-148q0 87 34 166t94.5 142t131.5 111.5t157 89.5l-402 403q-8 8 -11 13l-30 44h113
q-14 -52 23 -89l350 -351q5 2 14 6.5l13 6.5q167 78 245.5 180t78.5 252h148z" />
    <glyph glyph-name="psi" unicode="&#x3c8;" horiz-adv-x="1165" 
d="M881 997h217q-31 -53 -31 -112v-363q0 -193 -133.5 -332.5t-325.5 -150.5v-314h-51v314q-192 11 -325 150.5t-133 332.5v363q0 59 -31 112h216q-31 -53 -31 -112v-363q0 -89 17 -162.5t52.5 -133t95 -95t139.5 -40.5v983h51v-983q80 5 139.5 40.5t95 95t52.5 133
t17 162.5v363q0 59 -31 112z" />
    <glyph glyph-name="omega" unicode="&#x3c9;" horiz-adv-x="1497" 
d="M1069 995q143 0 244.5 -141.5t101.5 -341.5t-101.5 -342t-244.5 -142q-88 0 -175 57t-146 153q-59 -96 -145.5 -153t-174.5 -57q-143 0 -244.5 142t-101.5 342t101.5 341.5t244.5 141.5v-51q-40 0 -70.5 -15t-51 -44.5t-34.5 -66.5t-21.5 -88.5t-10.5 -102.5t-3 -115
q0 -78 4 -137.5t16.5 -117t33 -95t55.5 -60.5t82 -23q78 0 134 59.5t82.5 155.5t26.5 218h155q0 -122 26.5 -218t82.5 -155.5t134 -59.5q47 0 82 23t55.5 60.5t33 95t16.5 117t4 137.5q0 64 -3 115t-10.5 102.5t-21.5 88.5t-34.5 66.5t-51 44.5t-70.5 15v51z" />
    <glyph glyph-name="omicrontonos" unicode="&#x3cc;" horiz-adv-x="1120" 
d="M588 1247h121l-128 -182zM560 968q200 0 342 -142t142 -342t-142 -342t-342 -142t-342 142t-142 342t142 342t342 142zM560 52q87 0 151.5 33.5t102.5 93.5t56.5 136.5t18.5 168.5t-18.5 168.5t-56.5 136.5t-102.5 93.5t-151.5 33.5t-151.5 -33.5t-102.5 -93.5
t-56.5 -136.5t-18.5 -168.5t18.5 -168.5t56.5 -136.5t102.5 -93.5t151.5 -33.5z" />
    <glyph glyph-name="upsilontonos" unicode="&#x3cd;" horiz-adv-x="1183" 
d="M598 1247h121l-128 -182zM889 969h217q-31 -53 -31 -111v-374q0 -139 -72 -255t-195 -178t-264 -49q-187 18 -312 161.5t-125 334.5v360q0 58 -31 111h217q-31 -53 -31 -111v-374q0 -91 17.5 -166t54.5 -135t99.5 -94.5t146.5 -36.5q140 -4 240 98.5t100 244.5v463
q0 58 -31 111z" />
    <glyph glyph-name="omegatonos" unicode="&#x3ce;" horiz-adv-x="1501" 
d="M1071 968q143 0 244.5 -142t101.5 -342t-101.5 -342t-244.5 -142q-88 0 -175 57.5t-145 153.5q-59 -96 -146 -153.5t-175 -57.5q-143 0 -244.5 142t-101.5 342t101.5 342t244.5 142v-52q-40 0 -70.5 -15t-51 -44.5t-34.5 -66.5t-21.5 -88.5t-10.5 -102.5t-3 -115t3 -115
t10.5 -102.5t21.5 -88.5t34.5 -66.5t51 -44.5t70.5 -15q78 0 134 59t82.5 155t26.5 218h155q0 -122 26.5 -218t82.5 -155t134 -59q40 0 70.5 15t51 44.5t34.5 66.5t21.5 88.5t10.5 102.5t3 115t-3 115t-10.5 102.5t-21.5 88.5t-34.5 66.5t-51 44.5t-70.5 15v52zM777 1247
h121l-128 -182z" />
    </font>
</defs>
</svg>
