<svg id="noun-engineer-1815303" xmlns="http://www.w3.org/2000/svg" width="42" height="56" viewBox="0 0 42 56">
  <path id="Path_1" data-name="Path 1" d="M241.8,38.118a.649.649,0,0,0-.648.649v.459h-2.4a2.035,2.035,0,0,0-2.031,2.034v.129A12.752,12.752,0,0,0,228.984,52.9l-.92.921a.649.649,0,0,0-.19.459V56.5a.649.649,0,0,0,.55.641c.028,0,1.14.172,2.888.372V57.9a1.543,1.543,0,0,0-.586-.419,1.3,1.3,0,0,0-1.33.273c-1.543,1.269-1.859,3.072-.968,5.514a6.109,6.109,0,0,0,3.029,3.122c.614,1.45,3.911,8.425,10.549,8.425s9.935-6.975,10.549-8.424a6.108,6.108,0,0,0,3.029-3.122c.891-2.442.575-4.246-.969-5.514a1.386,1.386,0,0,0-.926-.351c1.173-.149,1.882-.261,1.9-.264a.649.649,0,0,0,.546-.641V54.282a.65.65,0,0,0-.19-.459l-.92-.921a12.763,12.763,0,0,0-8.155-11.692,2.033,2.033,0,0,0-2.026-1.985h-2.4v-.459a.648.648,0,0,0-.648-.649Zm11.99,20.638c1.094.9,1.271,2.154.573,4.065a5.029,5.029,0,0,1-2.558,2.484.648.648,0,0,0-.362.369c-.03.078-3.072,7.841-9.44,7.841s-9.41-7.764-9.44-7.842a.651.651,0,0,0-.36-.368,5.026,5.026,0,0,1-2.559-2.484c-.7-1.912-.521-3.166.573-4.065.037-.031.063-.046.069-.054a5.7,5.7,0,0,1,1.033,2.773.648.648,0,0,0,1.287-.107V57.653c2.6.269,6.1.544,9.54.544a90.956,90.956,0,0,0,9.254-.529v3.7a.648.648,0,0,0,1.287.107A5.956,5.956,0,0,1,253.7,58.7a.288.288,0,0,1,.092.059Zm-.507-1.277a1.541,1.541,0,0,0-.586.419v-.375q.4-.046.746-.09A1.267,1.267,0,0,0,253.287,57.479Zm-8.438-16.956a.737.737,0,0,1,.735.736v4.156a.648.648,0,1,0,1.3,0V42.627a11.466,11.466,0,0,1,6.857,10.547.65.65,0,0,0,.19.459l.917.918v1.388a96.63,96.63,0,0,1-12.693.961,103.211,103.211,0,0,1-12.979-.964V54.55l.917-.918a.649.649,0,0,0,.19-.459,11.467,11.467,0,0,1,6.451-10.364v2.607a.648.648,0,1,0,1.3,0V41.26a.737.737,0,0,1,.735-.736h2.395v6a.648.648,0,1,0,1.3,0v-6h2.4Z" transform="translate(-221.008 -38.117)" fill="#0771be"/>
  <path id="Path_2" data-name="Path 2" d="M266.13,163.107a.649.649,0,0,0,.649.649h17.7a.649.649,0,1,0,0-1.3h-17.7a.649.649,0,0,0-.649.649Z" transform="translate(-254.848 -148.065)" fill="#0771be"/>
  <path id="Path_3" data-name="Path 3" d="M197.14,337.748a.673.673,0,0,0-.722.167l-5.481,3.927H188.3l-5.61-4.019a.645.645,0,0,0-.584-.087c-2.739.922-11.711,4.116-12.182,6.479-.437,2.187-1.28,11.125-1.315,11.5a.649.649,0,0,0,.563.7l20.352,2.614a.69.69,0,0,0,.082.005.623.623,0,0,0,.083-.005l20.352-2.614a.649.649,0,0,0,.563-.7c-.036-.379-.879-9.317-1.315-11.5-.471-2.353-9.369-5.529-12.149-6.466Zm-.118,1.331c.45.154.9.314,1.357.478l-3.374,5.626-1.24-1.148-1.571-1.5Zm-5.9,6.949h-2.648l-1.543-1.545,1.55-1.343h2.409l1.619,1.5Zm-8.915-6.955,4.862,3.483-2.837,2.627-3.378-5.634C181.306,339.386,181.759,339.227,182.208,339.073Zm-11.012,5.4c.177-.886,4.1-2.812,8.422-4.46l3.913,6.526a.648.648,0,0,0,1,.142l1.435-1.329,1.54,1.542-2.041,10.316-8.081-1.038c-.011-.761-.029-2.436.005-3.3a18.275,18.275,0,0,1,.345-3.346.648.648,0,0,0-1.253-.334,18.677,18.677,0,0,0-.388,3.628c-.033.843-.02,2.357-.01,3.19l-6.122-.786c.2-2.112.878-8.951,1.237-10.747Zm18.41,13.27-2.855-.367,1.987-10.047H190.9l2.8,9.887Zm14.258-1.831c.01-.849.022-2.284-.011-3.1a18.713,18.713,0,0,0-.388-3.628.648.648,0,0,0-1.253.333,18.325,18.325,0,0,1,.345,3.346c.033.835.018,2.413.007,3.211l-7.56.971-2.886-10.18,1.343-1.345,1.248,1.156a.648.648,0,0,0,1-.142l3.909-6.518c4.312,1.646,8.224,3.568,8.4,4.452.359,1.8,1.032,8.635,1.236,10.746Z" transform="translate(-168.608 -303.043)" fill="#0771be"/>
</svg>
