<svg xmlns="http://www.w3.org/2000/svg" width="49.181" height="49.181" viewBox="0 0 49.181 49.181">
  <g id="noun-apartments-1837378" transform="translate(-125.999 -56.006)">
    <path id="Path_155" data-name="Path 155" d="M175.179,94.451a3.638,3.638,0,1,0-4.253,3.581v5.925h-5.172V72.967a.615.615,0,0,0-.615-.615H151.812a.615.615,0,0,0-.615.615v30.99h-2.446V56.621a.615.615,0,0,0-.615-.615H134.809a.615.615,0,0,0-.615.615v47.336h-4.471v-3.436a3.11,3.11,0,1,0-1.229,0v3.436h-1.88a.615.615,0,0,0,0,1.23h47.951a.615.615,0,1,0,0-1.23h-2.408V98.033a3.64,3.64,0,0,0,3.022-3.581Zm-47.951,3.023a1.88,1.88,0,1,1,1.88,1.88A1.882,1.882,0,0,1,127.228,97.474Zm25.2-23.892h12.1v30.376h-12.1Zm-17-16.346h12.1v46.721h-12.1Zm33.709,37.216a2.408,2.408,0,1,1,2.408,2.408A2.411,2.411,0,0,1,169.134,94.451Z" transform="translate(0 0)" fill="#fcc229"/>
    <path id="Path_156" data-name="Path 156" d="M231.573,196.43a.615.615,0,0,0-.615.615V198.9a.615.615,0,1,0,1.23,0v-1.859A.615.615,0,0,0,231.573,196.43Z" transform="translate(-93.438 -125.008)" fill="#fcc229"/>
    <path id="Path_157" data-name="Path 157" d="M262.353,196.43a.615.615,0,0,0-.615.615V198.9a.615.615,0,1,0,1.23,0v-1.859A.615.615,0,0,0,262.353,196.43Z" transform="translate(-120.839 -125.008)" fill="#fcc229"/>
    <path id="Path_158" data-name="Path 158" d="M293.133,196.43a.615.615,0,0,0-.615.615V198.9a.615.615,0,0,0,1.23,0v-1.859A.615.615,0,0,0,293.133,196.43Z" transform="translate(-148.24 -125.008)" fill="#fcc229"/>
    <path id="Path_159" data-name="Path 159" d="M231.573,151.51a.615.615,0,0,0-.615.615v1.859a.615.615,0,1,0,1.23,0v-1.859A.615.615,0,0,0,231.573,151.51Z" transform="translate(-93.438 -85.02)" fill="#fcc229"/>
    <path id="Path_160" data-name="Path 160" d="M262.353,151.51a.615.615,0,0,0-.615.615v1.859a.615.615,0,0,0,1.23,0v-1.859A.615.615,0,0,0,262.353,151.51Z" transform="translate(-120.839 -85.02)" fill="#fcc229"/>
    <path id="Path_161" data-name="Path 161" d="M293.133,151.51a.615.615,0,0,0-.615.615v1.859a.615.615,0,1,0,1.23,0v-1.859A.615.615,0,0,0,293.133,151.51Z" transform="translate(-148.24 -85.02)" fill="#fcc229"/>
    <path id="Path_162" data-name="Path 162" d="M231.573,106.59a.615.615,0,0,0-.615.615v1.859a.615.615,0,1,0,1.23,0V107.2A.615.615,0,0,0,231.573,106.59Z" transform="translate(-93.438 -45.031)" fill="#fcc229"/>
    <path id="Path_163" data-name="Path 163" d="M262.353,106.59a.615.615,0,0,0-.615.615v1.859a.615.615,0,0,0,1.23,0V107.2A.615.615,0,0,0,262.353,106.59Z" transform="translate(-120.839 -45.031)" fill="#fcc229"/>
    <path id="Path_164" data-name="Path 164" d="M293.133,106.59a.615.615,0,0,0-.615.615v1.859a.615.615,0,1,0,1.23,0V107.2A.615.615,0,0,0,293.133,106.59Z" transform="translate(-148.24 -45.031)" fill="#fcc229"/>
    <path id="Path_165" data-name="Path 165" d="M231.573,331.21a.615.615,0,0,0-.615.615v1.859a.615.615,0,0,0,1.23,0v-1.859A.615.615,0,0,0,231.573,331.21Z" transform="translate(-93.438 -244.992)" fill="#fcc229"/>
    <path id="Path_166" data-name="Path 166" d="M262.353,331.21a.615.615,0,0,0-.615.615v1.859a.615.615,0,0,0,1.23,0v-1.859A.615.615,0,0,0,262.353,331.21Z" transform="translate(-120.839 -244.992)" fill="#fcc229"/>
    <path id="Path_167" data-name="Path 167" d="M293.133,331.21a.615.615,0,0,0-.615.615v1.859a.615.615,0,0,0,1.23,0v-1.859A.615.615,0,0,0,293.133,331.21Z" transform="translate(-148.24 -244.992)" fill="#fcc229"/>
    <path id="Path_168" data-name="Path 168" d="M231.573,286.29a.615.615,0,0,0-.615.615v1.859a.615.615,0,0,0,1.23,0V286.9A.615.615,0,0,0,231.573,286.29Z" transform="translate(-93.438 -205.004)" fill="#fcc229"/>
    <path id="Path_169" data-name="Path 169" d="M262.353,286.29a.615.615,0,0,0-.615.615v1.859a.615.615,0,0,0,1.23,0V286.9A.615.615,0,0,0,262.353,286.29Z" transform="translate(-120.839 -205.004)" fill="#fcc229"/>
    <path id="Path_170" data-name="Path 170" d="M293.133,286.29a.615.615,0,0,0-.615.615v1.859a.615.615,0,0,0,1.23,0V286.9A.614.614,0,0,0,293.133,286.29Z" transform="translate(-148.24 -205.004)" fill="#fcc229"/>
    <path id="Path_171" data-name="Path 171" d="M231.573,241.36a.615.615,0,0,0-.615.615v1.859a.615.615,0,0,0,1.23,0v-1.859A.615.615,0,0,0,231.573,241.36Z" transform="translate(-93.438 -165.006)" fill="#fcc229"/>
    <path id="Path_172" data-name="Path 172" d="M262.353,241.36a.615.615,0,0,0-.615.615v1.859a.615.615,0,0,0,1.23,0v-1.859A.615.615,0,0,0,262.353,241.36Z" transform="translate(-120.839 -165.006)" fill="#fcc229"/>
    <path id="Path_173" data-name="Path 173" d="M293.133,241.36a.615.615,0,0,0-.615.615v1.859a.615.615,0,0,0,1.23,0v-1.859A.615.615,0,0,0,293.133,241.36Z" transform="translate(-148.24 -165.006)" fill="#fcc229"/>
    <path id="Path_174" data-name="Path 174" d="M231.573,376.13a.615.615,0,0,0-.615.615V378.6a.615.615,0,0,0,1.23,0v-1.859A.615.615,0,0,0,231.573,376.13Z" transform="translate(-93.438 -284.981)" fill="#fcc229"/>
    <path id="Path_175" data-name="Path 175" d="M262.353,376.13a.615.615,0,0,0-.615.615V378.6a.615.615,0,0,0,1.23,0v-1.859A.615.615,0,0,0,262.353,376.13Z" transform="translate(-120.839 -284.981)" fill="#fcc229"/>
    <path id="Path_176" data-name="Path 176" d="M293.133,376.13a.615.615,0,0,0-.615.615V378.6a.615.615,0,0,0,1.23,0v-1.859A.615.615,0,0,0,293.133,376.13Z" transform="translate(-148.24 -284.981)" fill="#fcc229"/>
    <path id="Path_177" data-name="Path 177" d="M386.463,331.21a.615.615,0,0,0-.615.615v1.859a.615.615,0,0,0,1.23,0v-1.859A.615.615,0,0,0,386.463,331.21Z" transform="translate(-231.324 -244.992)" fill="#fcc229"/>
    <path id="Path_178" data-name="Path 178" d="M417.243,331.21a.615.615,0,0,0-.615.615v1.859a.615.615,0,0,0,1.23,0v-1.859A.615.615,0,0,0,417.243,331.21Z" transform="translate(-258.725 -244.992)" fill="#fcc229"/>
    <path id="Path_179" data-name="Path 179" d="M448.013,331.21a.615.615,0,0,0-.615.615v1.859a.615.615,0,0,0,1.23,0v-1.859A.615.615,0,0,0,448.013,331.21Z" transform="translate(-286.117 -244.992)" fill="#fcc229"/>
    <path id="Path_180" data-name="Path 180" d="M386.463,286.29a.615.615,0,0,0-.615.615v1.859a.615.615,0,0,0,1.23,0V286.9A.615.615,0,0,0,386.463,286.29Z" transform="translate(-231.324 -205.004)" fill="#fcc229"/>
    <path id="Path_181" data-name="Path 181" d="M417.243,286.29a.615.615,0,0,0-.615.615v1.859a.615.615,0,0,0,1.23,0V286.9A.615.615,0,0,0,417.243,286.29Z" transform="translate(-258.725 -205.004)" fill="#fcc229"/>
    <path id="Path_182" data-name="Path 182" d="M448.013,286.29a.615.615,0,0,0-.615.615v1.859a.615.615,0,0,0,1.23,0V286.9A.615.615,0,0,0,448.013,286.29Z" transform="translate(-286.117 -205.004)" fill="#fcc229"/>
    <path id="Path_183" data-name="Path 183" d="M386.463,241.36a.615.615,0,0,0-.615.615v1.859a.615.615,0,0,0,1.23,0v-1.859A.615.615,0,0,0,386.463,241.36Z" transform="translate(-231.324 -165.006)" fill="#fcc229"/>
    <path id="Path_184" data-name="Path 184" d="M417.243,241.36a.615.615,0,0,0-.615.615v1.859a.615.615,0,0,0,1.23,0v-1.859A.615.615,0,0,0,417.243,241.36Z" transform="translate(-258.725 -165.006)" fill="#fcc229"/>
    <path id="Path_185" data-name="Path 185" d="M448.013,241.36a.615.615,0,0,0-.615.615v1.859a.615.615,0,1,0,1.23,0v-1.859A.615.615,0,0,0,448.013,241.36Z" transform="translate(-286.117 -165.006)" fill="#fcc229"/>
    <path id="Path_186" data-name="Path 186" d="M386.463,376.13a.615.615,0,0,0-.615.615V378.6a.615.615,0,0,0,1.23,0v-1.859A.615.615,0,0,0,386.463,376.13Z" transform="translate(-231.324 -284.981)" fill="#fcc229"/>
    <path id="Path_187" data-name="Path 187" d="M417.243,376.13a.615.615,0,0,0-.615.615V378.6a.615.615,0,0,0,1.23,0v-1.859A.615.615,0,0,0,417.243,376.13Z" transform="translate(-258.725 -284.981)" fill="#fcc229"/>
    <path id="Path_188" data-name="Path 188" d="M448.013,376.13a.615.615,0,0,0-.615.615V378.6a.615.615,0,0,0,1.23,0v-1.859A.615.615,0,0,0,448.013,376.13Z" transform="translate(-286.117 -284.981)" fill="#fcc229"/>
    <path id="Path_189" data-name="Path 189" d="M231.573,420.3a.615.615,0,0,0-.615.615v1.859a.615.615,0,0,0,1.23,0v-1.859A.615.615,0,0,0,231.573,420.3Z" transform="translate(-93.438 -324.302)" fill="#fcc229"/>
    <path id="Path_190" data-name="Path 190" d="M262.353,420.3a.615.615,0,0,0-.615.615v1.859a.615.615,0,1,0,1.23,0v-1.859A.615.615,0,0,0,262.353,420.3Z" transform="translate(-120.839 -324.302)" fill="#fcc229"/>
    <path id="Path_191" data-name="Path 191" d="M293.133,420.3a.615.615,0,0,0-.615.615v1.859a.615.615,0,0,0,1.23,0v-1.859A.615.615,0,0,0,293.133,420.3Z" transform="translate(-148.24 -324.302)" fill="#fcc229"/>
    <path id="Path_192" data-name="Path 192" d="M386.463,420.3a.615.615,0,0,0-.615.615v1.859a.615.615,0,0,0,1.23,0v-1.859A.615.615,0,0,0,386.463,420.3Z" transform="translate(-231.324 -324.302)" fill="#fcc229"/>
    <path id="Path_193" data-name="Path 193" d="M417.243,420.3a.615.615,0,0,0-.615.615v1.859a.615.615,0,0,0,1.23,0v-1.859A.615.615,0,0,0,417.243,420.3Z" transform="translate(-258.725 -324.302)" fill="#fcc229"/>
    <path id="Path_194" data-name="Path 194" d="M448.013,420.3a.615.615,0,0,0-.615.615v1.859a.615.615,0,0,0,1.23,0v-1.859A.615.615,0,0,0,448.013,420.3Z" transform="translate(-286.117 -324.302)" fill="#fcc229"/>
  </g>
</svg>
