<svg width="14" height="14" viewBox="0 0 14 14" fill="none" xmlns="http://www.w3.org/2000/svg">
<g clip-path="url(#clip0_310_7)">
<path d="M10.5872 4.87669L9.99475 4.26718C9.98273 4.25426 9.96815 4.24399 9.95194 4.237C9.93574 4.23002 9.91826 4.22648 9.90061 4.2266V4.2266C9.88292 4.22616 9.86534 4.22957 9.84909 4.23657C9.83284 4.24358 9.8183 4.25402 9.80646 4.26718L5.70061 8.40631L4.20646 6.91216C4.19433 6.8994 4.17973 6.88923 4.16355 6.88228C4.14736 6.87533 4.12993 6.87175 4.11232 6.87175C4.09471 6.87175 4.07728 6.87533 4.06109 6.88228C4.04491 6.88923 4.03031 6.8994 4.01817 6.91216L3.41922 7.51112C3.40646 7.52359 3.39632 7.53849 3.38939 7.55494C3.38247 7.57138 3.37891 7.58905 3.37891 7.60689C3.37891 7.62473 3.38247 7.6424 3.38939 7.65884C3.39632 7.67529 3.40646 7.69019 3.41922 7.70266L5.30374 9.58718C5.40588 9.69867 5.5466 9.76714 5.69736 9.77872C5.84535 9.7654 5.98375 9.6998 6.08774 9.59367V9.59367L10.5872 5.07066C10.6115 5.04417 10.6249 5.00957 10.6249 4.97367C10.6249 4.93777 10.6115 4.90317 10.5872 4.87669Z" fill="black"/>
<path d="M7 0.942261C8.40082 0.942928 9.75807 1.42925 10.8405 2.31838C11.923 3.2075 12.6637 4.44443 12.9365 5.81843C13.2093 7.19243 12.9972 8.61851 12.3365 9.85371C11.6758 11.0889 10.6072 12.0568 9.31291 12.5925C8.01858 13.1283 6.57855 13.1987 5.23813 12.7918C3.89772 12.3848 2.73985 11.5258 1.96179 10.3609C1.18372 9.19605 0.833586 7.79746 0.971037 6.40341C1.10849 5.00935 1.72502 3.70607 2.7156 2.71559C3.27699 2.15137 3.94472 1.70411 4.68015 1.39972C5.41557 1.09532 6.20408 0.939834 7 0.942261V0.942261ZM7 4.70642e-08C5.61553 4.70642e-08 4.26216 0.410543 3.11101 1.17971C1.95987 1.94888 1.06266 3.04213 0.532846 4.32122C0.00303295 5.6003 -0.13559 7.00777 0.134506 8.36563C0.404603 9.7235 1.07129 10.9708 2.05026 11.9497C3.02922 12.9287 4.2765 13.5954 5.63437 13.8655C6.99224 14.1356 8.3997 13.997 9.67879 13.4672C10.9579 12.9373 12.0511 12.0401 12.8203 10.889C13.5895 9.73785 14 8.38447 14 7C14.0001 6.08072 13.8191 5.17042 13.4674 4.32109C13.1156 3.47176 12.6 2.70005 11.95 2.05001C11.3 1.39998 10.5282 0.884371 9.67891 0.532626C8.82959 0.180881 7.91929 -0.000106555 7 4.70642e-08V4.70642e-08Z" fill="black"/>
</g>
<defs>
<clipPath id="clip0_310_7">
<rect width="14" height="14" fill="white"/>
</clipPath>
</defs>
</svg>
