<svg xmlns="http://www.w3.org/2000/svg" width="35.999" height="22.244" viewBox="0 0 35.999 22.244">
  <path id="Icon_map-bicycle-store" data-name="Icon map-bicycle-store" d="M6.545,16.309a6.51,6.51,0,0,1,2.565.523l2.215-3.8L9.655,10.176a.821.821,0,0,1,.294-1.12c.171-.1.362-.279.543-.25l.142-.167h3.274c.451,0,.818.629.818,1.08s-.366,1.08-.818,1.08H11.786l.955,1.44H22.3l-1.909-3.6h-.757a.726.726,0,1,1,0-1.44h4.092a.726.726,0,1,1,0,1.44H22.288l4.6,8.039a6.482,6.482,0,0,1,2.566-.446,6.706,6.706,0,1,1-3.976,1.425l-1.752-3-5.021,8.608-.019.027-.022.032-.017.024-.065.075-.008.009-.022.02-.023.019-.063.05-.027.017-.021.014-.009.005,0,0-.069.034-.008,0-.017.009h-.006l-.053.019-.049.016-.01,0-.018,0-.032.006L18,23.672v.045l0,.042H13.035a6.818,6.818,0,0,1-6.489,5.684,6.568,6.568,0,0,1,0-13.135Zm18,6.546a4.924,4.924,0,1,0,3.179-4.589l2.437,4.177a.819.819,0,0,1-1.414.825l-2.438-4.18a4.9,4.9,0,0,0-1.764,3.766ZM18,21.056l4.3-7.376H13.7ZM12.272,14.8,10.52,17.875a5.925,5.925,0,0,1,2.514,4.445h3.541l-4.3-7.518ZM9.69,19.371,7.968,22.32H11.38a4.251,4.251,0,0,0-1.69-2.949ZM6.545,27.809A5.023,5.023,0,0,0,11.38,23.76H6.547l0-.042L6.4,23.679l-.033-.017-.136-.048L6.213,23.6l-.081-.042-.019-.015-.073-.053-.056-.048-.055-.06-.049-.061-.041-.066L5.8,23.191l-.028-.075-.022-.075-.012-.075-.009-.089,0-.025,0-.046.01-.089.017-.076.024-.075.037-.081.019-.042,2.437-4.177a4.926,4.926,0,1,0-1.73,9.544Z" transform="translate(0 -7.2)" fill="#333"/>
</svg>
