<svg id="Group_107" data-name="Group 107" xmlns="http://www.w3.org/2000/svg" width="40.312" height="40.311" viewBox="0 0 40.312 40.311">
  <g id="noun-home-4266994">
    <path id="Path_84" data-name="Path 84" d="M159.1,66V56.5a.5.5,0,0,0-.5-.5h-5.409a.5.5,0,0,0-.5.5V60.9l-6.024-4.789a.5.5,0,0,0-.627,0L126.381,71.732a.5.5,0,0,0,.314.9h3.228V95.8a.5.5,0,0,0,.5.5h31.841a.5.5,0,0,0,.5-.5V72.63H166a.5.5,0,0,0,.314-.9Zm3.166,5.624a.5.5,0,0,0-.5.5V95.3H130.93V72.126a.5.5,0,0,0-.5-.5h-2.288l18.208-14.477,6.528,5.19a.5.5,0,0,0,.818-.394V57.005h4.4v9.236a.5.5,0,0,0,.191.394l6.272,4.986Z" transform="translate(-126.19 -55.998)" fill="#fcc200"/>
  </g>
  <g id="noun-world-population-3315447" transform="translate(6.811 11.239)">
    <path id="Path_86" data-name="Path 86" d="M207.873,247.06a3.048,3.048,0,1,0-3.046-3.046A3.051,3.051,0,0,0,207.873,247.06Zm0-5.444a2.4,2.4,0,1,1-2.394,2.4A2.4,2.4,0,0,1,207.873,241.616Z" transform="translate(-202.432 -238.272)" fill="#fcc200"/>
    <path id="Path_87" data-name="Path 87" d="M407.483,247.06a3.048,3.048,0,1,0-3.046-3.046A3.052,3.052,0,0,0,407.483,247.06Zm0-5.444a2.4,2.4,0,1,1-2.394,2.4A2.4,2.4,0,0,1,407.483,241.616Z" transform="translate(-386.239 -238.272)" fill="#fcc200"/>
    <path id="Path_88" data-name="Path 88" d="M307.7,213.06a3.048,3.048,0,1,0-3.046-3.046A3.051,3.051,0,0,0,307.7,213.06Zm0-5.444a2.4,2.4,0,1,1-2.394,2.4A2.4,2.4,0,0,1,307.7,207.616Z" transform="translate(-294.358 -206.964)" fill="#fcc200"/>
    <path id="Path_89" data-name="Path 89" d="M201.266,301.3v-6.322a2.479,2.479,0,0,0-2.476-2.476h-5.423v-.216a2.479,2.479,0,0,0-2.479-2.474h-5.93a2.484,2.484,0,0,0-1.822.8,2.451,2.451,0,0,0-.656,1.677v.216h-5.428a2.478,2.478,0,0,0-2.476,2.476V301.3a1.5,1.5,0,0,0,1.493,1.493,1.372,1.372,0,0,0,.837-.273v5.67a1.721,1.721,0,0,0,3.111,1,1.72,1.72,0,0,0,3.111-1v-8.017a.326.326,0,0,0-.652,0v8.017a1.067,1.067,0,0,1-2.134,0v-5.107a.326.326,0,0,0-.652,0v5.107a1.067,1.067,0,0,1-2.133,0c0-1,0,3.692,0-10.13a.326.326,0,1,0-.652,0v3.24a.839.839,0,1,1-1.677,0v-6.322a1.823,1.823,0,0,1,1.824-1.823h5.428v5.452a1.491,1.491,0,0,0,2,1.4,1.447,1.447,0,0,0,.331-.18v5.67a1.721,1.721,0,0,0,3.111,1,1.721,1.721,0,0,0,3.111-1v-5.658a1.669,1.669,0,0,0,.841.259,1.5,1.5,0,0,0,1.493-1.493v-5.452h5.423a1.826,1.826,0,0,1,1.824,1.823V301.3a.841.841,0,0,1-1.681.033v-3.273a.326.326,0,0,0-.652,0v3.24c0,.015,0,.029,0,.044v6.846a1.067,1.067,0,0,1-2.134,0v-5.106a.326.326,0,1,0-.652,0v5.106a1.067,1.067,0,0,1-2.133,0v-8.017a.326.326,0,0,0-.652,0v8.017a1.72,1.72,0,0,0,3.111,1,1.72,1.72,0,0,0,3.111-1v-5.656a1.493,1.493,0,0,0,2.334-1.234Zm-8.552-2.694a.843.843,0,0,1-.845.841.862.862,0,0,1-.837-.838v-3.243a.326.326,0,0,0-.652,0c0,13.267,0-6.49,0,10.131a1.067,1.067,0,0,1-2.134,0v-5.107a.326.326,0,1,0-.652,0V305.5a1.067,1.067,0,0,1-2.134,0V295.368a.326.326,0,1,0-.652,0v3.239a.839.839,0,1,1-1.678,0v-6.321a1.8,1.8,0,0,1,.482-1.234,1.832,1.832,0,0,1,1.344-.588h5.93a1.827,1.827,0,0,1,1.827,1.822Z" transform="translate(-174.576 -283.253)" fill="#fcc200"/>
  </g>
</svg>
