<svg width="12" height="7" viewBox="0 0 12 7" fill="none" xmlns="http://www.w3.org/2000/svg">
<g clip-path="url(#clip0_307_2)">
<path d="M5.53099 4.417L9.712 0.232995C9.78513 0.159463 9.87208 0.10111 9.96784 0.0612926C10.0636 0.0214749 10.1663 0.000976563 10.27 0.000976562C10.3737 0.000976563 10.4764 0.0214749 10.5722 0.0612926C10.6679 0.10111 10.7549 0.159463 10.828 0.232995C10.9743 0.382493 11.0562 0.583335 11.0562 0.792495C11.0562 1.00165 10.9743 1.2025 10.828 1.35199L6.08999 6.093C5.94618 6.23636 5.75263 6.31876 5.54961 6.32304C5.34659 6.32732 5.14973 6.25317 4.99999 6.11599L0.229995 1.354C0.156521 1.28072 0.0981984 1.19369 0.0583589 1.09787C0.0185194 1.00205 -0.00205727 0.899326 -0.00219655 0.795556C-0.00233584 0.691787 0.0179652 0.589005 0.0575473 0.493081C0.0971295 0.397157 0.155218 0.30997 0.228495 0.236495C0.376486 0.0881064 0.577363 0.00458428 0.786935 0.00430298C0.890704 0.00416369 0.993485 0.0244647 1.08941 0.0640469C1.18533 0.103629 1.27252 0.161717 1.346 0.234995L5.53099 4.417Z" fill="white"/>
</g>
<defs>
<clipPath id="clip0_307_2">
<rect width="11.059" height="6.323" fill="white"/>
</clipPath>
</defs>
</svg>
