<svg xmlns="http://www.w3.org/2000/svg" width="40" height="40" viewBox="0 0 40 40">
  <g id="Group_13479" data-name="Group 13479" transform="translate(-138 -2913)">
    <rect id="Rectangle_8720" data-name="Rectangle 8720" width="40" height="40" rx="20" transform="translate(138 2913)" fill="#333"/>
    <g id="noun-backpack-4680305" transform="translate(70.393 2874.333)">
      <path id="Path_11910" data-name="Path 11910" d="M138.9,61.632h-1.63V53.887a4.536,4.536,0,0,0-3.115-4.3s-.01,0-.014,0a4.518,4.518,0,0,0-1.4-.226h-.745V48.239a1.573,1.573,0,0,0-1.572-1.572h-3.476a1.573,1.573,0,0,0-1.572,1.572v1.12h-.745a4.518,4.518,0,0,0-1.4.226s-.01,0-.014,0a4.536,4.536,0,0,0-3.115,4.3v7.745h-1.625a1.8,1.8,0,0,0-1.8,1.8V68.9a1.8,1.8,0,0,0,1.8,1.8h20.441a1.8,1.8,0,0,0,1.8-1.8V63.435a1.818,1.818,0,0,0-1.812-1.8ZM126.338,48.238a.611.611,0,0,1,.61-.61h3.476a.611.611,0,0,1,.61.61v1.12h-4.692v-1.12Zm-.481,2.077h6.879a3.466,3.466,0,0,1,.745.082V55.17a1.115,1.115,0,0,1-1.11,1.115h-1.99V55.069a.482.482,0,0,0-.481-.481h-2.433a.482.482,0,0,0-.481.481v1.211H125a1.112,1.112,0,0,1-1.11-1.115V50.392a3.468,3.468,0,0,1,.745-.082h1.226Zm2.091,5.231h1.471v2.731l-.735.846-.736-.841ZM117.627,68.9V63.435a.842.842,0,0,1,.841-.841h1.63v7.149h-1.63a.839.839,0,0,1-.841-.841Zm3.428-6.788V53.887a3.583,3.583,0,0,1,1.865-3.139v4.418a2.079,2.079,0,0,0,2.072,2.077h1.99v1.216a.483.483,0,0,0,.12.317l1.216,1.389a.48.48,0,0,0,.721,0l1.216-1.389a.483.483,0,0,0,.12-.317V57.242h1.99a2.076,2.076,0,0,0,2.072-2.077V50.752a3.573,3.573,0,0,1,1.865,3.139v15.85h-1.865V64.775a1.758,1.758,0,0,0-1.755-1.755h-8.009a1.758,1.758,0,0,0-1.755,1.755v4.966h-1.865Zm2.827,7.629V64.776a.794.794,0,0,1,.793-.793h8.014a.794.794,0,0,1,.793.793v4.966Zm15.86-.841a.842.842,0,0,1-.841.841h-1.63V62.593h1.63a.842.842,0,0,1,.841.841Z" transform="translate(-41.058)" fill="#fff"/>
      <path id="Path_11911" data-name="Path 11911" d="M294.353,415.99h-5.374a.481.481,0,1,0,0,.961h.447v.538a.481.481,0,1,0,.961,0v-.538h3.966a.481.481,0,1,0,0-.961Z" transform="translate(-204.039 -350.3)" fill="#fff"/>
      <path id="Path_11912" data-name="Path 11912" d="M272.634,147.584h.654v.63a.481.481,0,1,0,.961,0v-.63h5.442a.481.481,0,0,0,0-.961h-7.057a.481.481,0,0,0,0,.962Z" transform="translate(-188.536 -94.807)" fill="#fff"/>
    </g>
  </g>
</svg>
