<svg id="noun-empathy-2295254" xmlns="http://www.w3.org/2000/svg" width="44" height="44" viewBox="0 0 44 44">
  <path id="Path_11759" data-name="Path 11759" d="M113.628,188.858h-.694V183.6a8.017,8.017,0,0,0-2.332-5.664l-5.7-5.7a2.823,2.823,0,0,0-2.86-.724v-4.562a2.9,2.9,0,1,0-5.793,0v9.966a2.882,2.882,0,0,0,.85,2.051l5.967,5.967h0a1.438,1.438,0,0,1,.425,1.026v2.9h-.724a.724.724,0,0,0-.724.724v4.345a.724.724,0,0,0,.724.724h10.862a.724.724,0,0,0,.724-.724v-4.345a.724.724,0,0,0-.724-.724Zm-9.54-4.947-5.967-5.966h0a1.442,1.442,0,0,1-.425-1.027v-9.961a1.448,1.448,0,0,1,2.9,0v5.535a2.962,2.962,0,0,0,.3,3.926l4.01,4.01a.724.724,0,0,0,1.024-1.024l-4.01-4.01a1.535,1.535,0,0,1-.145-2.078,1.449,1.449,0,0,1,2.1-.057l5.7,5.7h0a6.565,6.565,0,0,1,1.908,4.634v5.264h-6.541v-2.9a2.882,2.882,0,0,0-.85-2.051ZM112.9,193.2h-9.414v-2.9H112.9Z" transform="translate(-96.249 -150.651)" fill="#0771be"/>
  <path id="Path_11760" data-name="Path 11760" d="M400.206,164.109a2.9,2.9,0,0,0-2.9,2.9v4.562a2.9,2.9,0,0,0-.736-.126,2.857,2.857,0,0,0-2.125.848l-5.7,5.7a8.016,8.016,0,0,0-2.332,5.661v5.257h-.694a.724.724,0,0,0-.724.724v4.345a.724.724,0,0,0,.724.724h10.862a.724.724,0,0,0,.724-.724v-4.345a.724.724,0,0,0-.724-.724h-.724v-2.9a1.438,1.438,0,0,1,.425-1.026l5.967-5.967h0a2.882,2.882,0,0,0,.85-2.051v-9.961a2.9,2.9,0,0,0-2.9-2.9Zm-4.345,29.143h-9.414v-2.9h9.414Zm5.793-16.285a1.442,1.442,0,0,1-.425,1.027l-5.967,5.966h0a2.882,2.882,0,0,0-.85,2.051v2.9h-6.548v-5.263a6.562,6.562,0,0,1,1.908-4.634l5.7-5.7a1.448,1.448,0,0,1,2.1.057,1.534,1.534,0,0,1-.145,2.077l-4.01,4.01a.724.724,0,0,0,1.024,1.024l4.01-4.01a2.962,2.962,0,0,0,.305-3.928v-5.535a1.448,1.448,0,0,1,2.9,0Z" transform="translate(-359.103 -150.7)" fill="#0771be"/>
  <path id="Path_11761" data-name="Path 11761" d="M242.474,37.112A10.42,10.42,0,0,0,239,29.431a12.648,12.648,0,0,0-16.776,0,10.227,10.227,0,0,0,0,15.361,12.638,12.638,0,0,0,16.772,0A10.432,10.432,0,0,0,242.474,37.112Zm-11.862,9.414a10.78,10.78,0,0,1-7.269-2.757,8.864,8.864,0,0,1,0-13.313,10.962,10.962,0,0,1,14.539,0,8.857,8.857,0,0,1,0,13.31A10.792,10.792,0,0,1,230.612,46.526Z" transform="translate(-208.612 -26.25)" fill="#0771be"/>
  <path id="Path_11762" data-name="Path 11762" d="M288.323,89.687a4.174,4.174,0,0,0-2.534.833,4.173,4.173,0,0,0-2.534-.83c-1.827,0-3.259,1.7-3.259,3.862,0,2.133,2.508,4.61,5.3,7.169a.725.725,0,0,0,.979,0c2.795-2.562,5.3-5.039,5.3-7.169C291.581,91.383,290.15,89.687,288.323,89.687ZM285.788,99.2c-1.816-1.676-4.345-4.128-4.345-5.655,0-1.186.677-2.414,1.81-2.414a2.606,2.606,0,0,1,1.969.814.749.749,0,0,0,1.135-.005,2.622,2.622,0,0,1,1.964-.809c1.133,0,1.81,1.231,1.81,2.414C290.133,95.081,287.6,97.527,285.788,99.2Z" transform="translate(-263.789 -84.437)" fill="#0771be"/>
</svg>
