<svg xmlns="http://www.w3.org/2000/svg" width="40" height="40" viewBox="0 0 40 40">
  <g id="Group_13480" data-name="Group 13480" transform="translate(-138 -2999)">
    <rect id="Rectangle_8720" data-name="Rectangle 8720" width="40" height="40" rx="20" transform="translate(138 2999)" fill="#333"/>
    <g id="noun-movie-3034725" transform="translate(60.68 2951.668)">
      <path id="Path_11863" data-name="Path 11863" d="M124.465,58.332H105.477a.476.476,0,0,0-.475.475V75.9a.476.476,0,0,0,.475.475h18.989a.476.476,0,0,0,.475-.475V58.807a.476.476,0,0,0-.475-.475Zm-7.121.95h2.848v1.9h-2.848Zm-3.8,0H116.4v1.9h-2.848Zm-3.8,0H112.6v1.9h-2.848Zm-3.8,0H108.8v1.9h-2.848Zm2.848,16.14h-2.848v-1.9H108.8Zm3.8,0h-2.848v-1.9H112.6Zm3.8,0h-2.848v-1.9H116.4Zm3.8,0h-2.848v-1.9h2.848Zm3.8,0h-2.848v-1.9h2.848Zm0-2.848h-18.04V62.13H123.99Zm0-11.393h-2.848v-1.9h2.848Z" transform="translate(-17.682)" fill="#fff"/>
      <path id="Path_11864" data-name="Path 11864" d="M268.551,183.559a.461.461,0,0,0,.256.076.444.444,0,0,0,.2-.048l8.07-3.8a.473.473,0,0,0,0-.854l-8.07-3.8a.485.485,0,0,0-.456.028.472.472,0,0,0-.223.4v7.6a.479.479,0,0,0,.218.4Zm.731-7.244,6.48,3.048-6.48,3.048Z" transform="translate(-174.367 -112.011)" fill="#fff"/>
    </g>
  </g>
</svg>
