<svg id="noun-integrity-1684637" xmlns="http://www.w3.org/2000/svg" width="38" height="38" viewBox="0 0 38 38">
  <path id="Path_11747" data-name="Path 11747" d="M209.212,15.9a7.952,7.952,0,1,0-7.952-7.952A7.953,7.953,0,0,0,209.212,15.9Zm0-14.726a6.774,6.774,0,1,1-6.774,6.774A6.782,6.782,0,0,1,209.212,1.178Z" transform="translate(-192.301)" fill="#0771be"/>
  <path id="Path_11748" data-name="Path 11748" d="M107.514,224.151c-.049-.007-4.985-.737-7.4-3.449a.568.568,0,0,0-.412-.188h-.019a.568.568,0,0,0-.4.171,11.358,11.358,0,0,1-1.3,1.09,16.033,16.033,0,0,0-4.945-2.4,9.253,9.253,0,0,1-1.219.91,15.016,15.016,0,0,1,5.1,2.189,9.3,9.3,0,0,1-4.642,1.4c-.1,0-.2,0-.3-.007H91.94a.558.558,0,0,0-.559.525,21.815,21.815,0,0,0,.758,6.21c1.2,4.38,3.692,7.4,7.206,8.722a.573.573,0,0,0,.346.018,8.879,8.879,0,0,0,2.961-1.611v1.8a1.607,1.607,0,0,1-1.615,1.594H72.8a1.607,1.607,0,0,1-1.615-1.594v-6.719a12.211,12.211,0,0,1,4.245-9.194,14.828,14.828,0,0,1,6.595-3.336,9.231,9.231,0,0,1-1.219-.91C74.758,221.112,70,226.27,70,232.816v6.719a2.788,2.788,0,0,0,2.8,2.773h28.238a2.789,2.789,0,0,0,2.8-2.773v-2.882c1.835-1.914,4.032-5.533,4.156-11.947a.555.555,0,0,0-.482-.556Zm-4.56,11.718a9.1,9.1,0,0,1-3.386,2.278c-3.04-1.225-5.211-3.935-6.284-7.852a21.135,21.135,0,0,1-.726-5.245,12.136,12.136,0,0,0,7.107-3.111c2.25,2.134,5.776,3.01,7.128,3.28-.223,5.731-2.2,8.949-3.839,10.651Z" transform="translate(-69.996 -204.308)" fill="#0771be"/>
  <path id="Path_11749" data-name="Path 11749" d="M447.239,338.828a.589.589,0,1,0-.8.861l2.486,2.322a.588.588,0,0,0,.8.008l4.582-4.123a.589.589,0,0,0-.788-.876l-4.181,3.763Z" transform="translate(-420.618 -313.979)" fill="#0771be"/>
  <path id="Path_11750" data-name="Path 11750" d="M134.933,307.257a.589.589,0,1,0-.823-.843,9.269,9.269,0,0,0-2.855,6.668V318c0,1.307.484,1.792,1.787,1.792h8.816a.589.589,0,0,0,0-1.178h-8.816a1.511,1.511,0,0,1-.546-.053,1.256,1.256,0,0,1-.063-.561v-4.921a8.1,8.1,0,0,1,2.5-5.825Z" transform="translate(-127.131 -285.329)" fill="#0771be"/>
  <path id="Path_11751" data-name="Path 11751" d="M198.058,284.959a.589.589,0,1,1-.589-.589.589.589,0,0,1,.589.589" transform="translate(-188.268 -265.069)" fill="#0771be"/>
</svg>
