<svg xmlns="http://www.w3.org/2000/svg" width="40" height="40" viewBox="0 0 40 40">
  <g id="Group_13478" data-name="Group 13478" transform="translate(-138 -2956)">
    <rect id="Rectangle_8720" data-name="Rectangle 8720" width="40" height="40" rx="20" transform="translate(138 2956)" fill="#333"/>
    <g id="noun-laptop-3675411" transform="translate(70.622 2843.73)">
      <path id="Path_11907" data-name="Path 11907" d="M161.194,124.651a.382.382,0,0,0-.381-.381H138.481a.382.382,0,0,0-.381.381v13.622h23.094Zm-11.547,13.32a.462.462,0,1,1,.464-.464A.464.464,0,0,1,149.647,137.971Zm10.415-1.23h-20.83V125.4h20.827v11.34Z" transform="translate(-62.537)" fill="#fff"/>
      <path id="Path_11908" data-name="Path 11908" d="M114.82,393.51v.735h-6.176v-.735H98a2.3,2.3,0,0,0,2.295,2.3h22.875a2.3,2.3,0,0,0,2.295-2.3Z" transform="translate(-24.622 -254.569)" fill="#fff"/>
    </g>
  </g>
</svg>
