<svg xmlns="http://www.w3.org/2000/svg" width="40" height="40" viewBox="0 0 40 40">
  <g id="Group_13483" data-name="Group 13483" transform="translate(-138 -3128)">
    <rect id="Rectangle_8720" data-name="Rectangle 8720" width="40" height="40" rx="20" transform="translate(138 3128)" fill="#333"/>
    <g id="noun-fork-1141946" transform="translate(52.506 3113.465)">
      <path id="Path_11873" data-name="Path 11873" d="M212.15,262.258a2.161,2.161,0,0,1-2.158-2.159V248.768a1.08,1.08,0,0,1,1.079-1.079h2.159a1.08,1.08,0,0,1,1.079,1.079V260.1A2.161,2.161,0,0,1,212.15,262.258Zm-1.079-13.49V260.1a1.079,1.079,0,1,0,2.159,0V248.768Z" transform="translate(-111.419 -214.823)" fill="#fff"/>
      <path id="Path_11874" data-name="Path 11874" d="M242.84,33.951a.54.54,0,0,1-.54-.54V30.174a.54.54,0,0,1,.339-.5L245,28.729V22.081a.54.54,0,0,1,1.079,0V29.1a.54.54,0,0,1-.339.5l-2.359.944v2.872a.54.54,0,0,1-.54.54Z" transform="translate(-142.108 -0.006)" fill="#fff"/>
      <path id="Path_11875" data-name="Path 11875" d="M191.694,30.711a.543.543,0,0,1-.2-.039l-2.7-1.079a.54.54,0,0,1-.339-.5V22.077a.54.54,0,0,1,1.079,0v6.649l2.359.944a.54.54,0,0,1-.2,1.041Z" transform="translate(-90.962 -0.003)" fill="#fff"/>
      <path id="Path_11876" data-name="Path 11876" d="M242.85,30.173a.54.54,0,0,1-.54-.54V22.08a.54.54,0,1,1,1.079,0v7.554A.54.54,0,0,1,242.85,30.173Z" transform="translate(-142.117 -0.005)" fill="#fff"/>
      <path id="Path_11877" data-name="Path 11877" d="M438.047,303.179a1.891,1.891,0,0,1-1.888-1.888v-9.982a.54.54,0,0,1,.54-.54h2.7a.54.54,0,0,1,.54.54v9.982a1.891,1.891,0,0,1-1.889,1.888Zm-.809-11.331v9.443a.809.809,0,1,0,1.619,0v-9.443Z" transform="translate(-326.254 -255.745)" fill="#fff"/>
      <path id="Path_11878" data-name="Path 11878" d="M408.7,36.1h-2.378a.541.541,0,0,1-.428-.21,10.584,10.584,0,0,1-2.051-6.265c0-4.283,2.716-8.094,4.856-8.094a.54.54,0,0,1,.54.54v13.49a.539.539,0,0,1-.539.54Zm-2.107-1.079h1.567V22.76c-1.325.649-3.238,3.4-3.238,6.869a9.545,9.545,0,0,0,1.671,5.4Z" transform="translate(-295.558)" fill="#fff"/>
    </g>
  </g>
</svg>
