<svg xmlns="http://www.w3.org/2000/svg" width="24" height="24" viewBox="0 0 24 24">
  <path id="noun-floor-plan-2529810" d="M126.429,35H107.571A2.571,2.571,0,0,0,105,37.571V56.429A2.571,2.571,0,0,0,107.571,59h18.857A2.571,2.571,0,0,0,129,56.429V37.571A2.571,2.571,0,0,0,126.429,35Zm.857,21.429a.857.857,0,0,1-.857.857H115.286V53h8.571a.857.857,0,1,0,0-1.714h-9.429a.857.857,0,0,0-.857.857v5.143h-6a.857.857,0,0,1-.857-.857V45.286h6.857V47a.857.857,0,1,0,1.714,0V41.857a.857.857,0,1,0-1.714,0v1.714h-6.857v-6a.857.857,0,0,1,.857-.857h12v9.429a.857.857,0,0,0,.857.857h3.429a.857.857,0,1,0,0-1.714h-2.571V36.714h5.143a.857.857,0,0,1,.857.857Z" transform="translate(-105 -35)"/>
</svg>
