<svg xmlns="http://www.w3.org/2000/svg" width="33.957" height="23.854" viewBox="0 0 33.957 23.854">
  <g id="noun-parking-4414710" transform="translate(-77.509 -107.953)">
    <path id="Path_12018" data-name="Path 12018" d="M114,107.953h-7.75A1.148,1.148,0,0,0,105.1,109.1v7.75A1.148,1.148,0,0,0,106.253,118h3.173v12.164h-1.413v1.644h4.23v-1.644H110.83V118H114a1.148,1.148,0,0,0,1.148-1.148V109.1A1.147,1.147,0,0,0,114,107.953Zm-3.371,6.054h-1.539v2.176h-2.077V109.77h3.607c1.542,0,2.616.767,2.616,2.09,0,1.364-1.012,2.147-2.607,2.147Zm.556-2.129c0,.491-.326.72-.889.72h-1.206v-1.424H110.3C110.94,111.174,111.187,111.468,111.187,111.878Zm7.006,12.893a.418.418,0,0,1-.417.419.424.424,0,1,1,.012-.848.416.416,0,0,1,.4.429Zm16.132.466a.713.713,0,0,1-.721.7.7.7,0,0,1,.019-1.4.72.72,0,0,1,.7.7Zm-14.362.013a.7.7,0,0,1-.708.691.7.7,0,1,1,.021-1.4.7.7,0,0,1,.688.714Zm15.578-.5a.433.433,0,0,1-.406.435.421.421,0,0,1-.446-.413.415.415,0,0,1,.4-.433A.429.429,0,0,1,135.542,124.755Zm3.481-4.943a.614.614,0,0,0-.536-.393c-.562-.035-1.125-.056-1.687-.1a.658.658,0,0,0-.657.268c-.186-.343-.36-.663-.532-.984-.58-1.081-1.165-2.159-1.737-3.244a.813.813,0,0,0-.789-.477q-6.6.005-13.2,0a.814.814,0,0,0-.785.482c-.729,1.381-1.474,2.754-2.226,4.153-.3-.324-.673-.18-1.019-.175-.367.005-.734.066-1.1.064a.767.767,0,0,0-.758.435v.422a1.774,1.774,0,0,1,.068.167.767.767,0,0,0,.663.583c.439.066.879.119,1.321.178-.09.337-.187.68-.271,1.026a1.734,1.734,0,0,0-.037.395c0,1.932,0,3.864-.005,5.8a1.094,1.094,0,0,0,.222.649.566.566,0,0,1,.1.294c.009.626,0,1.252.005,1.877,0,.4.169.576.565.577h2.536c.385,0,.559-.174.56-.558,0-.553,0-1.107,0-1.674H133.2c0,.084.011.167.011.25,0,.485,0,.97,0,1.455a.476.476,0,0,0,.519.527q1.315,0,2.63,0a.472.472,0,0,0,.511-.512c0-.634,0-1.267.006-1.9a.531.531,0,0,1,.107-.289,1.144,1.144,0,0,0,.261-.731c-.009-1.822-.012-3.645,0-5.468a4.207,4.207,0,0,0-.262-1.489c-.026-.071-.045-.145-.068-.22.462-.059.911-.1,1.354-.177a.938.938,0,0,0,.754-1.207Zm-18.485,6.5c-.594.006-1.188,0-1.783,0q-.856,0-1.712,0a.664.664,0,0,1-.733-.7c-.012-.469-.021-.937-.021-1.406a1.216,1.216,0,0,1,.064-.389c.08-.232.21-.291.455-.231.985.24,1.971.478,2.956.721a1.162,1.162,0,0,1,.825.632c.108.225.243.436.364.654a.459.459,0,0,1-.416.715Zm5.062-4.849H119.77v0c-.7.008-1.41.013-2.114,0-.491-.011-.687-.348-.465-.788.71-1.409,1.417-2.819,2.157-4.213a1.49,1.49,0,0,1,1.405-.781q5.19,0,10.379,0c.329,0,.658,0,.986,0a1.6,1.6,0,0,1,1.487.891q1.062,2,2.116,4a1.461,1.461,0,0,1,.115.256.445.445,0,0,1-.377.621,1.879,1.879,0,0,1-.327.022H125.6Zm11.065,4.172a.653.653,0,0,1-.7.679c-.578,0-1.157,0-1.735,0s-1.157,0-1.735,0a.47.47,0,0,1-.444-.756c.114-.2.243-.4.343-.613a1.156,1.156,0,0,1,.824-.635c.985-.243,1.97-.482,2.956-.721a.331.331,0,0,1,.465.25,1.1,1.1,0,0,1,.056.344c0,.484-.009.969-.024,1.453Z" transform="translate(-27.596)"/>
  </g>
</svg>
