<svg xmlns="http://www.w3.org/2000/svg" width="33.778" height="33.831" viewBox="0 0 33.778 33.831">
  <g id="noun-parking-2129359" transform="translate(-71.95 -7.636)">
    <path id="Path_11942" data-name="Path 11942" d="M86.124,23.158H97.768A1.644,1.644,0,0,0,99.4,21.522V12.175a1.644,1.644,0,0,0-1.636-1.636H95.323V8.692h3.008a.529.529,0,0,0,.528-.528.5.5,0,0,0-.528-.528c-7.442.053-5.647.053-12.719.053a.529.529,0,0,0-.528.528.5.5,0,0,0,.528.528h3.008v1.794h-2.5a1.644,1.644,0,0,0-1.636,1.636v9.4a1.634,1.634,0,0,0,1.636,1.583Zm3.5-14.466h4.7v1.794h-4.7Zm-4.133,3.483a.586.586,0,0,1,.58-.58H97.715a.586.586,0,0,1,.58.58v9.4a.586.586,0,0,1-.58.58H86.124a.586.586,0,0,1-.58-.58v-9.4Z" transform="translate(-10.021)"/>
    <path id="Path_11943" data-name="Path 11943" d="M203.743,114.509a.529.529,0,0,0,.528-.528v-2.322H205.7a1.953,1.953,0,1,0,0-3.906h-1.953a.529.529,0,0,0-.528.528v5.753a.487.487,0,0,0,.528.475Zm.528-5.7H205.7a.95.95,0,1,1,0,1.9h-1.425Z" transform="translate(-123.507 -93.89)"/>
    <path id="Path_11944" data-name="Path 11944" d="M79.01,302.421h2.8a3.73,3.73,0,0,0,7.389,0h12.455a3.73,3.73,0,0,0,7.389,0h2.692a.529.529,0,0,0,.528-.528v-2.111a.529.529,0,0,0-.528-.528h-.9v-.844a9.077,9.077,0,0,0-9.078-9.078H93.365a5.1,5.1,0,0,0-5.067,4.592H85.5a5.852,5.852,0,0,0-5.805,5.33h-.686a.529.529,0,0,0-.528.528v2.111a.5.5,0,0,0,.528.528Zm6.439,2.217a2.692,2.692,0,1,1,2.692-2.692A2.7,2.7,0,0,1,85.449,304.637Zm19.844,0a2.692,2.692,0,1,1,2.692-2.692A2.7,2.7,0,0,1,105.293,304.637Zm-4.381-14.25c2.269,0,3.589,2.375,3.958,3.536H98.432v-3.536Zm-7.547,0h4.064v3.536H89.354a4.091,4.091,0,0,1,4.011-3.536Zm-13.88,9.922h.686a.529.529,0,0,0,.528-.528,4.82,4.82,0,0,1,4.8-4.8h20a.529.529,0,0,0,.528-.528,6.4,6.4,0,0,0-1.9-3.694,8.077,8.077,0,0,1,5.7,7.706v1.372a.529.529,0,0,0,.528.528h.9v1.056h-2.269a3.73,3.73,0,0,0-7.389,0H89.143a3.73,3.73,0,0,0-7.389,0H79.485Z" transform="translate(-6.532 -264.173)"/>
    <path id="Path_11945" data-name="Path 11945" d="M346.27,401.641a2.557,2.557,0,0,0,1.372.422,2.447,2.447,0,0,0,1.319-.422.528.528,0,1,0-.633-.844,1.308,1.308,0,0,1-1.53,0,.49.49,0,0,0-.686.158.453.453,0,0,0,.158.686Z" transform="translate(-257.432 -368.618)"/>
    <path id="Path_11946" data-name="Path 11946" d="M165.017,464.97a1.689,1.689,0,1,0,1.689,1.689A1.667,1.667,0,0,0,165.017,464.97Zm0,2.322a.633.633,0,1,1,0-1.267.681.681,0,0,1,.633.633A.609.609,0,0,1,165.017,467.292Z" transform="translate(-86.101 -428.887)"/>
    <path id="Path_11947" data-name="Path 11947" d="M484.057,464.97a1.689,1.689,0,1,0,1.689,1.689A1.7,1.7,0,0,0,484.057,464.97Zm0,2.322a.633.633,0,1,1,0-1.267.691.691,0,0,1,.686.633A.783.783,0,0,1,484.057,467.292Z" transform="translate(-385.296 -428.887)"/>
  </g>
</svg>
