<svg xmlns="http://www.w3.org/2000/svg" width="27.504" height="27.817" viewBox="0 0 27.504 27.817">
  <g id="Group_13472" data-name="Group 13472" transform="translate(-191.451 -1298.932)">
    <g id="Group_13471" data-name="Group 13471" transform="translate(50 -0.251)">
      <path id="Path_11925" data-name="Path 11925" d="M11313.762,1300.251l5.465,10.75s4.7,9.614-5.465,9.932-5.928-9.932-5.928-9.932Z" transform="translate(-11165)" fill="none" stroke="#000" stroke-width="1"/>
      <line id="Line_65" data-name="Line 65" y2="17" transform="translate(148.635 1309.5)" fill="none" stroke="#000" stroke-linecap="round" stroke-width="1"/>
      <line id="Line_66" data-name="Line 66" x2="4" transform="translate(146.5 1326.5)" fill="none" stroke="#000" stroke-linecap="round" stroke-width="1"/>
      <path id="Path_11929" data-name="Path 11929" d="M3,0a4,4,0,0,1-.5,2.619A4.946,4.946,0,0,1,0,4" transform="translate(148.635 1312.5)" fill="none" stroke="#000" stroke-linecap="round" stroke-width="1"/>
      <path id="Path_11930" data-name="Path 11930" d="M0,0A4.547,4.547,0,0,0,.848,2.1,9.864,9.864,0,0,0,3,4" transform="translate(145.635 1314.5)" fill="none" stroke="#000" stroke-linecap="round" stroke-width="1"/>
    </g>
    <g id="Group_13470" data-name="Group 13470" transform="translate(50 -0.251)">
      <path id="Path_11926" data-name="Path 11926" d="M11324.6,1307.659c-.491-3.055,4.412-5.382,5.782,0,3.011.278,4.862,4.813.338,5.825-1.07,4.014-5.089,4.227-6.382,0C11319.267,1311.746,11322.055,1307.544,11324.6,1307.659Z" transform="translate(-11165)" fill="none" stroke="#000" stroke-width="1"/>
      <line id="Line_69" data-name="Line 69" y2="18" transform="translate(162.5 1308.5)" fill="none" stroke="#000" stroke-linecap="round" stroke-width="1"/>
      <line id="Line_70" data-name="Line 70" x2="4" transform="translate(160.5 1326.5)" fill="none" stroke="#000" stroke-linecap="round" stroke-width="1"/>
      <path id="Path_11927" data-name="Path 11927" d="M3,0A5.939,5.939,0,0,1,1.838,2.079,3.723,3.723,0,0,1,0,3" transform="translate(162.5 1310.5)" fill="none" stroke="#000" stroke-linecap="round" stroke-width="1"/>
      <path id="Path_11928" data-name="Path 11928" d="M0,0A2.617,2.617,0,0,0,.886,1.554,4.178,4.178,0,0,0,2.9,2.078" transform="translate(159.599 1309.422)" fill="none" stroke="#000" stroke-linecap="round" stroke-width="1"/>
    </g>
  </g>
</svg>
