<svg xmlns="http://www.w3.org/2000/svg" width="17.598" height="26.656" viewBox="0 0 17.598 26.656">
  <g id="noun-elevator-3104840" transform="translate(-103.252)">
    <path id="Path_11843" data-name="Path 11843" d="M252.08,88H259.1a1.194,1.194,0,0,0,1.034-.586,1.221,1.221,0,0,0,.032-1.194L256.655,79.6a1.208,1.208,0,0,0-2.132,0l-3.508,6.616A1.217,1.217,0,0,0,252.081,88Zm3.508-7.815,3.5,6.589H252.1Z" transform="translate(-143.54 -75.201)"/>
    <path id="Path_11844" data-name="Path 11844" d="M259.184,291.09h-7.016a1.194,1.194,0,0,0-1.034.586,1.221,1.221,0,0,0-.032,1.194l3.508,6.621a1.208,1.208,0,0,0,2.132,0l3.508-6.616a1.217,1.217,0,0,0-1.066-1.786Z" transform="translate(-143.627 -277.234)"/>
    <path id="Path_11845" data-name="Path 11845" d="M179.834,0H168.159A2.969,2.969,0,0,0,165.2,2.975V23.681a2.969,2.969,0,0,0,2.959,2.975h11.681a2.969,2.969,0,0,0,2.959-2.975V2.975A2.977,2.977,0,0,0,179.834,0Zm1.743,23.681a1.753,1.753,0,0,1-1.743,1.754H168.159a1.753,1.753,0,0,1-1.743-1.754V2.975a1.753,1.753,0,0,1,1.743-1.754h11.681a1.753,1.753,0,0,1,1.743,1.754V23.681Z" transform="translate(-61.948)"/>
  </g>
</svg>
