<svg xmlns="http://www.w3.org/2000/svg" width="28.134" height="26.134" viewBox="0 0 28.134 26.134">
  <path id="noun-swimming-pool-4147359" d="M80.23,16.144a3.267,3.267,0,0,0,.669-.572,4.184,4.184,0,0,1,6.335,0,3.263,3.263,0,0,0,.669.572V11.516H80.23Zm0-5.907H87.9V6.4H80.23ZM70.22,16.474a.638.638,0,0,1-.063-.9,4.185,4.185,0,0,1,6.336,0,2.913,2.913,0,0,0,2.2,1.059c.086,0,.17-.022.256-.029V3.31a3.255,3.255,0,0,1,3.2-3.3.639.639,0,1,1,0,1.279A1.976,1.976,0,0,0,80.23,3.31V5.122H87.9V3.31a3.255,3.255,0,0,1,3.2-3.3.639.639,0,0,1,0,1.279A1.976,1.976,0,0,0,89.182,3.31V16.6c.086.008.17.029.256.029a2.913,2.913,0,0,0,2.2-1.059,4.184,4.184,0,0,1,6.335,0,.639.639,0,1,1-.964.839,2.882,2.882,0,0,0-4.407,0,4.171,4.171,0,0,1-3.166,1.5h0a4.171,4.171,0,0,1-3.168-1.5,2.882,2.882,0,0,0-4.407,0,4.171,4.171,0,0,1-3.168,1.5h0a4.17,4.17,0,0,1-3.166-1.5,2.882,2.882,0,0,0-4.407,0,.639.639,0,0,1-.9.063ZM91.641,23.8a2.822,2.822,0,0,1-4.407,0,4.184,4.184,0,0,0-6.335,0,2.822,2.822,0,0,1-4.407,0,4.185,4.185,0,0,0-6.336,0,.639.639,0,0,0,.964.839,2.882,2.882,0,0,1,4.407,0,4.171,4.171,0,0,0,3.166,1.5h0a4.171,4.171,0,0,0,3.168-1.5,2.882,2.882,0,0,1,4.407,0,4.171,4.171,0,0,0,3.168,1.5h0a4.17,4.17,0,0,0,3.166-1.5,2.882,2.882,0,0,1,4.407,0,.639.639,0,0,0,.964-.839,4.183,4.183,0,0,0-6.335,0Zm6.335-4.115a.639.639,0,1,1-.964.839,2.882,2.882,0,0,0-4.407,0,4.171,4.171,0,0,1-3.166,1.5h0a4.17,4.17,0,0,1-3.168-1.5,2.882,2.882,0,0,0-4.407,0,4.17,4.17,0,0,1-3.168,1.5h0a4.171,4.171,0,0,1-3.166-1.5,2.882,2.882,0,0,0-4.407,0,.639.639,0,0,1-.964-.839,4.185,4.185,0,0,1,6.336,0,2.822,2.822,0,0,0,4.407,0,4.184,4.184,0,0,1,6.335,0,2.822,2.822,0,0,0,4.407,0,4.183,4.183,0,0,1,6.335,0Z" transform="translate(-70 -0.007)" fill-rule="evenodd"/>
</svg>
