<svg xmlns="http://www.w3.org/2000/svg" width="18.892" height="18.887" viewBox="0 0 18.892 18.887">
  <path id="Icon_awesome-instagram" data-name="Icon awesome-instagram" d="M9.443,6.839a4.843,4.843,0,1,0,4.843,4.843A4.835,4.835,0,0,0,9.443,6.839Zm0,7.991a3.148,3.148,0,1,1,3.148-3.148A3.154,3.154,0,0,1,9.443,14.83Zm6.17-8.189a1.13,1.13,0,1,1-1.13-1.129A1.127,1.127,0,0,1,15.613,6.641ZM18.82,7.787A5.59,5.59,0,0,0,17.294,3.83,5.626,5.626,0,0,0,13.337,2.3c-1.559-.089-6.233-.089-7.793,0A5.618,5.618,0,0,0,1.587,3.826,5.608,5.608,0,0,0,.061,7.783c-.089,1.559-.089,6.233,0,7.793a5.59,5.59,0,0,0,1.526,3.957,5.634,5.634,0,0,0,3.957,1.526c1.559.089,6.233.089,7.793,0a5.59,5.59,0,0,0,3.957-1.526,5.626,5.626,0,0,0,1.526-3.957c.089-1.559.089-6.229,0-7.788Zm-2.015,9.462a3.187,3.187,0,0,1-1.8,1.8c-1.243.493-4.193.379-5.567.379s-4.328.11-5.567-.379a3.187,3.187,0,0,1-1.8-1.8c-.493-1.243-.379-4.193-.379-5.567s-.11-4.328.379-5.567a3.187,3.187,0,0,1,1.8-1.8c1.243-.493,4.193-.379,5.567-.379s4.328-.11,5.567.379a3.187,3.187,0,0,1,1.8,1.8c.493,1.243.379,4.193.379,5.567S17.3,16.01,16.806,17.249Z" transform="translate(0.005 -2.238)" fill="#fff"/>
</svg>
