<svg id="Group_13096" data-name="Group 13096" xmlns="http://www.w3.org/2000/svg" width="30" height="58" viewBox="0 0 30 58">
  <path id="noun-mobile-phone-1072052" d="M207.874,22.414a3.64,3.64,0,0,0-3.463,3.784V76.635a3.636,3.636,0,0,0,3.463,3.779h23.079a3.632,3.632,0,0,0,3.458-3.779V26.2a3.637,3.637,0,0,0-3.458-3.784Zm0,1.26h23.079a2.406,2.406,0,0,1,2.309,2.523v2.521h-27.7V26.2a2.4,2.4,0,0,1,2.308-2.523Zm11.539,1.251a1.232,1.232,0,0,0-.917.423,1.566,1.566,0,0,0,0,2.045,1.2,1.2,0,0,0,1.835,0,1.568,1.568,0,0,0,0-2.045A1.234,1.234,0,0,0,219.413,24.925Zm-13.847,5.054h27.7V72.853h-27.7Zm0,44.134h27.7v2.521a2.4,2.4,0,0,1-2.309,2.519H207.874a2.4,2.4,0,0,1-2.308-2.519Zm13.846.445a2.088,2.088,0,1,0,1.874,2.075A1.992,1.992,0,0,0,219.412,74.558Zm0,1.263a.82.82,0,1,1-.72.813A.762.762,0,0,1,219.412,75.821Z" transform="translate(-204.411 -22.414)" fill="#0771be"/>
  <path id="Path_11715" data-name="Path 11715" d="M221.189,145.734h2.422a7.621,7.621,0,0,0,7.242,7.325v2.45a.319.319,0,1,0,.638,0v-2.45a7.621,7.621,0,0,0,7.242-7.325h2.422a.323.323,0,0,0,0-.646h-2.422a7.621,7.621,0,0,0-7.242-7.325v-2.45a.319.319,0,1,0-.638,0v2.45a7.621,7.621,0,0,0-7.242,7.325h-2.422a.323.323,0,0,0,0,.646Zm10.3-7.325a6.979,6.979,0,0,1,6.6,6.679h-6.6Zm0,7.325h6.6a6.979,6.979,0,0,1-6.6,6.679Zm-.638-7.325v6.679h-6.6A6.979,6.979,0,0,1,230.853,138.41Zm0,7.325v6.679a6.979,6.979,0,0,1-6.6-6.679Z" transform="translate(-215.997 -118.699)" fill="#0771be"/>
</svg>
