<svg xmlns="http://www.w3.org/2000/svg" width="46.212" height="29.438" viewBox="0 0 46.212 29.438">
  <g id="noun-playground-4467931" transform="translate(-76.658 -112.159)">
    <path id="Path_12020" data-name="Path 12020" d="M406.141,254.128a1.464,1.464,0,0,1-.219-.011c-5.266-.634-7.757-3.9-9.953-6.784l-.022-.022c-1.923-2.513-3.572-4.687-7.014-5.135l.109-.863c3.8.481,5.648,2.906,7.6,5.463l.022.022c2.1,2.742,4.468,5.867,9.363,6.446a1.092,1.092,0,0,0,.863-.295,1.315,1.315,0,0,0,.448-.972V251.9a1.066,1.066,0,0,0-1.038-1.049c-3.9-.481-5.757-2.928-7.735-5.517-2.13-2.808-4.545-5.976-9.625-6.457l.076-.874c5.473.513,8,3.846,10.236,6.8,1.945,2.545,3.616,4.752,7.145,5.189a1.945,1.945,0,0,1,1.8,1.923v.076a2.192,2.192,0,0,1-.743,1.628,2.029,2.029,0,0,1-1.322.513Z" transform="translate(-285.335 -113.274)"/>
    <path id="Path_12021" data-name="Path 12021" d="M406.141,254.128a1.464,1.464,0,0,1-.219-.011c-5.266-.634-7.757-3.9-9.953-6.784l-.022-.022c-1.923-2.513-3.572-4.687-7.014-5.135l.109-.863c3.8.481,5.648,2.906,7.6,5.463l.022.022c2.1,2.742,4.468,5.867,9.363,6.446a1.092,1.092,0,0,0,.863-.295,1.315,1.315,0,0,0,.448-.972V251.9a1.066,1.066,0,0,0-1.038-1.049c-3.9-.481-5.757-2.928-7.735-5.517-2.13-2.808-4.545-5.976-9.625-6.457l.076-.874c5.473.513,8,3.846,10.236,6.8,1.945,2.545,3.616,4.752,7.145,5.189a1.945,1.945,0,0,1,1.8,1.923v.076a2.192,2.192,0,0,1-.743,1.628,2.029,2.029,0,0,1-1.322.513Z" transform="translate(-285.335 -113.274)"/>
    <path id="Path_12022" data-name="Path 12022" d="M127.97,237.34h.874v14.749h-.874Z" transform="translate(-50.438 -112.678)"/>
    <path id="Path_12023" data-name="Path 12023" d="M161.88,237.34h.874v14.749h-.874Z" transform="translate(-80.961 -112.678)"/>
    <path id="Path_12024" data-name="Path 12024" d="M200.16,237.34h.874v9.942h-.874Z" transform="translate(-115.417 -112.678)"/>
    <path id="Path_12025" data-name="Path 12025" d="M235.16,237.34h.874v9.942h-.874Z" transform="translate(-146.921 -112.678)"/>
    <path id="Path_12026" data-name="Path 12026" d="M194.685,335.121h-4.37a1.1,1.1,0,0,1-1.093-1.093v-.437a1.1,1.1,0,0,1,1.093-1.093h4.37a1.1,1.1,0,0,1,1.093,1.093v.437A1.1,1.1,0,0,1,194.685,335.121Zm-4.37-1.748a.219.219,0,0,0-.219.219v.437a.219.219,0,0,0,.219.219h4.37a.219.219,0,0,0,.219-.219v-.437a.219.219,0,0,0-.219-.219Z" transform="translate(-105.572 -198.332)"/>
    <path id="Path_12027" data-name="Path 12027" d="M135.056,218.092h-14.53a1.315,1.315,0,0,1-1.311-1.311,1.343,1.343,0,0,1,.382-.929,1.3,1.3,0,0,1,.929-.382h14.53v.874h-14.53a.4.4,0,0,0-.306.131.431.431,0,0,0-.131.306.438.438,0,0,0,.437.437h14.53Z" transform="translate(-42.558 -92.992)"/>
    <path id="Path_12028" data-name="Path 12028" d="M123.917,383.252H120.53a1.311,1.311,0,1,1,0-2.622h3.387a1.311,1.311,0,1,1,0,2.622ZM120.53,381.5a.437.437,0,1,0,0,.874h3.387a.437.437,0,1,0,0-.874Z" transform="translate(-42.561 -241.655)"/>
    <path id="Path_12029" data-name="Path 12029" d="M385,181.56h.874v9.4H385Z" transform="translate(-281.795 -62.469)"/>
    <path id="Path_12030" data-name="Path 12030" d="M273.44,181.45h.874v9.406h-.874Z" transform="translate(-181.378 -62.37)"/>
    <path id="Path_12031" data-name="Path 12031" d="M273.44,293.02h.874v9.188h-.874Z" transform="translate(-181.378 -162.796)"/>
    <path id="Path_12032" data-name="Path 12032" d="M385,293.12h.874V302.3H385Z" transform="translate(-281.795 -162.886)"/>
    <path id="Path_12033" data-name="Path 12033" d="M312.584,321.992h-.874v-5.353a.76.76,0,0,0-.765-.765h-1.967a.76.76,0,0,0-.765.765v5.353h-.874v-5.353A1.637,1.637,0,0,1,308.978,315h1.967a1.637,1.637,0,0,1,1.639,1.639Z" transform="translate(-211.891 -182.58)"/>
    <path id="Path_12034" data-name="Path 12034" d="M278.13,273.872H267.1a1.311,1.311,0,1,1,0-2.622H278.13a1.311,1.311,0,1,1,0,2.622ZM267.1,272.124a.437.437,0,1,0,0,.874H278.13a.437.437,0,1,0,0-.874Z" transform="translate(-174.487 -143.2)"/>
    <path id="Path_12035" data-name="Path 12035" d="M278.548,117.649l-.623-.623,4.392-4.392a1.662,1.662,0,0,1,2.327,0l4.381,4.392-.623.623-4.381-4.392a.785.785,0,0,0-1.093,0Z" transform="translate(-185.415)"/>
    <path id="Path_12036" data-name="Path 12036" d="M278.13,162.312H267.1a1.311,1.311,0,1,1,0-2.622H278.13a1.311,1.311,0,1,1,0,2.622ZM267.1,160.564a.437.437,0,1,0,0,.874H278.13a.437.437,0,1,0,0-.874Z" transform="translate(-174.487 -42.784)"/>
    <path id="Path_12037" data-name="Path 12037" d="M307.009,204.957a2.95,2.95,0,1,1,2.95-2.95A2.951,2.951,0,0,1,307.009,204.957Zm0-5.025a2.076,2.076,0,1,0,2.076,2.076A2.075,2.075,0,0,0,307.009,199.932Z" transform="translate(-208.938 -78.219)"/>
    <path id="Path_12038" data-name="Path 12038" d="M269.387,383.252H266a1.311,1.311,0,1,1,0-2.622h3.387a1.311,1.311,0,0,1,0,2.622ZM266,381.5a.437.437,0,1,0,0,.874h3.387a.437.437,0,0,0,0-.874Z" transform="translate(-173.501 -241.655)"/>
    <path id="Path_12039" data-name="Path 12039" d="M347.047,383.252H343.66a1.311,1.311,0,0,1,0-2.622h3.387a1.311,1.311,0,0,1,0,2.622ZM343.66,381.5a.437.437,0,0,0,0,.874h3.387a.437.437,0,1,0,0-.874Z" transform="translate(-243.404 -241.655)"/>
  </g>
</svg>
