<svg xmlns="http://www.w3.org/2000/svg" width="40" height="40" viewBox="0 0 40 40">
  <g id="Group_13481" data-name="Group 13481" transform="translate(-138 -3042)">
    <rect id="Rectangle_8720" data-name="Rectangle 8720" width="40" height="40" rx="20" transform="translate(138 3042)" fill="#333"/>
    <path id="Path_11879" data-name="Path 11879" d="M209.138,139.363h-5.792a.473.473,0,0,1-.473-.473v-4.845h-4.86a.473.473,0,0,1-.473-.473v-5.807a.473.473,0,0,1,.473-.473h4.86v-4.876a.473.473,0,0,1,.473-.473h5.792a.473.473,0,0,1,.473.473v4.876h4.86a.473.473,0,0,1,.473.473v5.807a.473.473,0,0,1-.473.473h-4.859v4.844a.473.473,0,0,1-.473.474Zm-5.318-.947h4.845v-4.845a.473.473,0,0,1,.473-.473H214v-4.86h-4.86a.473.473,0,0,1-.473-.473v-4.876h-4.845v4.876a.473.473,0,0,1-.473.473h-4.86v4.86h4.86a.473.473,0,0,1,.473.473v4.845Z" transform="translate(-48.539 2931.058)" fill="#fff"/>
  </g>
</svg>
