<svg xmlns="http://www.w3.org/2000/svg" width="19.494" height="19.531" viewBox="0 0 19.494 19.531">
  <path id="Icon_feather-phone" data-name="Icon feather-phone" d="M21.66,16.873v2.789a1.86,1.86,0,0,1-2.027,1.86,18.4,18.4,0,0,1-8.024-2.855A18.132,18.132,0,0,1,6.03,13.089,18.4,18.4,0,0,1,3.175,5.027,1.86,1.86,0,0,1,5.026,3H7.815a1.86,1.86,0,0,1,1.86,1.6,11.939,11.939,0,0,0,.651,2.613,1.86,1.86,0,0,1-.418,1.962L8.726,10.355a14.877,14.877,0,0,0,5.579,5.579l1.181-1.181a1.86,1.86,0,0,1,1.962-.418,11.939,11.939,0,0,0,2.613.651A1.86,1.86,0,0,1,21.66,16.873Z" transform="translate(-2.667 -2.5)" fill="none" stroke="#fff" stroke-linecap="round" stroke-linejoin="round" stroke-width="1"/>
</svg>
