<svg xmlns="http://www.w3.org/2000/svg" width="27.5" height="44" viewBox="0 0 27.5 44">
  <g id="noun-strategy-1325071" transform="translate(0)">
    <path id="Path_11763" data-name="Path 11763" d="M193.09,35.068H184.4c-3.119,0-3.559-4.223-3.576-4.4l0-.066a12.615,12.615,0,0,0-1.709-5.53c-4.529-7.007-4.159-10.82-4.078-11.351C175.811.162,188.617.006,188.746.006s12.936.157,13.708,13.712c.08.531.452,4.346-4.089,11.368a12.666,12.666,0,0,0-1.7,5.514l0,.066c-.017.18-.458,4.4-3.576,4.4Zm-10.9-4.508c.037.307.426,3.133,2.212,3.133h8.685c1.795,0,2.175-2.82,2.212-3.132a13.9,13.9,0,0,1,1.911-6.209c4.454-6.892,3.9-10.4,3.892-10.43l-.01-.09c-.68-12.28-11.871-12.451-12.347-12.452s-11.666.172-12.344,12.452l-.012.1c0,.028-.56,3.532,3.884,10.408a13.928,13.928,0,0,1,1.919,6.224Z" transform="translate(-174.997 -0.006)" fill="#0771be"/>
    <path id="Path_11764" data-name="Path 11764" d="M319.3,533.75h-6.153s.337,1.88,2.9,2.046v.016c.064,0,.12-.006.18-.008s.118.008.18.008V535.8C318.966,535.63,319.3,533.75,319.3,533.75Z" transform="translate(-302.296 -491.813)" fill="#0771be"/>
    <path id="Path_11765" data-name="Path 11765" d="M291.529,465.125h-9.408a.688.688,0,0,1,0-1.375h9.408a.688.688,0,0,1,0,1.375Z" transform="translate(-273.074 -427.313)" fill="#0771be"/>
    <path id="Path_11766" data-name="Path 11766" d="M299.286,500.125h-7.962a.688.688,0,0,1,0-1.375h7.962a.688.688,0,0,1,0,1.375Z" transform="translate(-281.554 -459.563)" fill="#0771be"/>
    <path id="Path_11767" data-name="Path 11767" d="M253.545,104.116l-3.157-.1.6,1.125a12.616,12.616,0,0,0-4.22,4.235,22.757,22.757,0,0,0-2.109,4.327V103.374h1.237l-1.579-2.75-1.579,2.75h1.237V113.7a22.765,22.765,0,0,0-2.108-4.327,13.284,13.284,0,0,0-4.051-4.14l.691-1.115-3.156-.1,1.489,2.8.616-1a12.747,12.747,0,0,1,3.845,3.936,27.147,27.147,0,0,1,2.677,6.048v.293h.684V115.8a27.177,27.177,0,0,1,2.677-6.047,12.155,12.155,0,0,1,3.971-4.008l-.062-.124.633,1.192Z" transform="translate(-230.606 -92.718)" fill="#0771be"/>
  </g>
</svg>
