<svg xmlns="http://www.w3.org/2000/svg" width="27" height="20.15" viewBox="0 0 27 20.15">
  <g id="Group_13543" data-name="Group 13543" transform="translate(-1022 -1767.85)">
    <line id="Line_90" data-name="Line 90" y2="15" transform="translate(1035.5 1768.5)" fill="none" stroke="#333" stroke-linecap="round" stroke-width="1.3"/>
    <g id="Path_12105" data-name="Path 12105" transform="translate(1024 1774)" fill="#f5f5f5" stroke-linecap="round">
      <path d="M 22.32022857666016 6.349998950958252 L 0.6827656030654907 6.349998950958252 C 0.7975329756736755 5.004615306854248 1.311965703964233 1.820672869682312 3.612873315811157 -0.5050811767578125 C 5.464713096618652 -2.3769211769104 8.095793724060059 -3.326021194458008 11.43304347991943 -3.326021194458008 L 11.51318359375 -3.325841188430786 C 14.90555286407471 -3.310541152954102 17.57058334350586 -2.33764123916626 19.43424415588379 -0.4341611862182617 C 21.71330642700195 1.893585562705994 22.21176528930664 5.021589756011963 22.32022857666016 6.349998950958252 Z" stroke="none"/>
      <path d="M 11.43304347991943 -2.676021099090576 C 8.280862808227539 -2.676021099090576 5.808032989501953 -1.794620990753174 4.083223342895508 -0.05629110336303711 C 2.254066467285156 1.787208437919617 1.626882553100586 4.230220794677734 1.411907196044922 5.69999885559082 L 21.59568214416504 5.69999885559082 C 21.38959503173828 4.256267070770264 20.77859497070312 1.868009567260742 18.96979331970215 0.02056884765625 C 17.23219299316406 -1.754151344299316 14.72243309020996 -2.661361217498779 11.51002311706543 -2.675841331481934 L 11.43304347991943 -2.676021099090576 M 11.43303871154785 -3.976018905639648 C 11.46067333221436 -3.976018905639648 11.4883451461792 -3.975956439971924 11.51611328125 -3.975831031799316 C 23.18164253234863 -3.923221111297607 23.00000381469727 6.999999046325684 23.00000381469727 6.999999046325684 L 3.814697265625e-06 6.999999046325684 C 3.814697265625e-06 6.999999046325684 -0.1486759185791016 -3.976018905639648 11.43303871154785 -3.976018905639648 Z" stroke="none" fill="#333"/>
    </g>
    <g id="Rectangle_8748" data-name="Rectangle 8748" transform="translate(1022 1783)" fill="#f5f5f5" stroke="#333" stroke-linecap="round" stroke-width="1.3">
      <rect width="27" height="5" rx="2.5" stroke="none"/>
      <rect x="0.65" y="0.65" width="25.7" height="3.7" rx="1.85" fill="none"/>
    </g>
  </g>
</svg>
