<svg xmlns="http://www.w3.org/2000/svg" width="40" height="40" viewBox="0 0 40 40">
  <g id="Group_13482" data-name="Group 13482" transform="translate(-138 -3085)">
    <rect id="Rectangle_8720" data-name="Rectangle 8720" width="40" height="40" rx="20" transform="translate(138 3085)" fill="#333"/>
    <g id="noun-shopping-1075934" transform="translate(70.902 3067.168)">
      <path id="Path_11865" data-name="Path 11865" d="M108.321,39.824l3.088-9.424a.51.51,0,0,0-.479-.692H91.921l-.852-2.5a.512.512,0,0,0-.479-.373H88.034a.533.533,0,1,0,0,1.065h2.183l4.9,14.8a.511.511,0,0,0,.479.373h13.152a.533.533,0,0,0,0-1.065H95.968l-.586-1.81h12.406a.529.529,0,0,0,.533-.373Zm-1.331-9.051h3.195l-1.012,3.088H106.99ZM96.021,39.131h-.958l-1.384-4.206h2.343Zm0-5.324H93.306l-1.012-3.088h3.727Zm4.952,5.324H97.086V34.925h3.887Zm0-5.324H97.086V30.772h3.887Zm4.952,5.324h-3.887V34.925h3.887Zm0-5.324h-3.887V30.772h3.887Zm1.065,5.324V34.925h1.81l-1.384,4.206Z" transform="translate(-12.404 0)" fill="#fff"/>
      <path id="Path_11866" data-name="Path 11866" d="M255.5,414.6a2.769,2.769,0,1,0,2.769-2.769A2.784,2.784,0,0,0,255.5,414.6Zm4.473,0a1.7,1.7,0,1,1-1.7-1.7A1.716,1.716,0,0,1,259.973,414.6Z" transform="translate(-172.734 -367.429)" fill="#fff"/>
      <path id="Path_11867" data-name="Path 11867" d="M456.6,411.83a2.769,2.769,0,1,0,2.769,2.769A2.784,2.784,0,0,0,456.6,411.83Zm0,4.473a1.7,1.7,0,1,1,1.7-1.7A1.682,1.682,0,0,1,456.6,416.3Z" transform="translate(-362.015 -367.427)" fill="#fff"/>
    </g>
  </g>
</svg>
