<svg xmlns="http://www.w3.org/2000/svg" width="33.432" height="23.216" viewBox="0 0 33.432 23.216">
  <g id="Group_13544" data-name="Group 13544" transform="translate(-1016.089 -1677.363)">
    <path id="Path_12103" data-name="Path 12103" d="M10.144,12.546S4.68,12.525,2.15,9.388.024,0,.024,0,5.112,1.361,7.642,4.5,10.144,12.546,10.144,12.546Z" transform="translate(1032.037 1694.46) rotate(150)" fill="#f5f5f5" stroke="#333" stroke-width="1.3"/>
    <path id="Path_12100" data-name="Path 12100" d="M7077.809,1703.622s5.464.021,7.994,3.158,2.127,9.388,2.127,9.388-5.088-1.361-7.618-4.5S7077.809,1703.622,7077.809,1703.622Z" transform="translate(-6055.487 -21.651)" fill="#f5f5f5" stroke="#333" stroke-width="1.3"/>
    <path id="Path_12102" data-name="Path 12102" d="M10.145,0S4.681.021,2.15,3.158.024,12.546.024,12.546s5.088-1.361,7.618-4.5S10.145,0,10.145,0Z" transform="translate(1039.846 1683.595) rotate(30)" fill="#f5f5f5" stroke="#333" stroke-width="1.3"/>
    <path id="Path_12101" data-name="Path 12101" d="M7087.953,1703.622s-5.464.021-7.994,3.158-2.126,9.388-2.126,9.388,5.088-1.361,7.618-4.5S7087.953,1703.622,7087.953,1703.622Z" transform="translate(-6044.236 -21.651)" fill="#f5f5f5" stroke="#333" stroke-width="1.3"/>
    <path id="Path_12104" data-name="Path 12104" d="M10.768,11.959S5.3,11.938,2.774,8.8,0,0,0,0,6.555.456,9.085,3.592,10.768,11.959,10.768,11.959Z" transform="translate(1033.1 1694.518) rotate(-138)" fill="#f5f5f5" stroke="#333" stroke-width="1.3"/>
  </g>
</svg>
