<svg xmlns="http://www.w3.org/2000/svg" width="44" height="48" viewBox="0 0 44 48">
  <g id="Group_13098" data-name="Group 13098" transform="translate(-9 -7)">
    <g id="noun-achievement-4180400" transform="translate(9 7)">
      <path id="Path_11752" data-name="Path 11752" d="M508.742,272.746a.789.789,0,0,0-1.106,0l-1.038,1.038-1.038-1.038h0a.779.779,0,0,0-1.09,1.106l1.038,1.038-1.038,1.038h0a.771.771,0,1,0,1.07,1.111L506.577,276l1.038,1.038a.78.78,0,1,0,1.106-1.1l-1.038-1.038,1.038-1.038a.789.789,0,0,0,.021-1.116Z" transform="translate(-468.021 -249.068)" fill="#0771be"/>
      <path id="Path_11753" data-name="Path 11753" d="M149.076,272.751a.784.784,0,0,0-1.1,0l-1.038,1.038-1.038-1.038a.784.784,0,0,0-1.106,1.106l1.038,1.038-1.038,1.038h0a.78.78,0,0,0,1.106,1.1L146.937,276l1.038,1.038a.775.775,0,0,0,1.1-1.091l-1.038-1.038,1.038-1.038a.779.779,0,0,0,0-1.116Z" transform="translate(-141.517 -249.073)" fill="#0771be"/>
      <path id="Path_11754" data-name="Path 11754" d="M540.707,82.427l1.038-1.038h0a.779.779,0,0,0-1.091-1.111l-1.038,1.038-1.039-1.038a.784.784,0,0,0-1.1,0,.773.773,0,0,0,0,1.1l1.038,1.038-1.038,1.038h0a.773.773,0,0,0,0,1.1.784.784,0,0,0,.551.229.775.775,0,0,0,.55-.213l1.039-1.038,1.038,1.038a.773.773,0,0,0,.55.229.8.8,0,0,0,.545-.229.784.784,0,0,0,0-1.1Z" transform="translate(-497.977 -74.446)" fill="#0771be"/>
      <path id="Path_11755" data-name="Path 11755" d="M115.656,84.743a.785.785,0,0,0,.551-.229.774.774,0,0,0,0-1.1l-1.038-1.038,1.038-1.038h0a.774.774,0,0,0,0-1.1.784.784,0,0,0-1.1,0l-1.038,1.038-1.038-1.038h0a.779.779,0,1,0-1.1,1.1l1.038,1.038-1.038,1.038h0a.784.784,0,0,0,0,1.1.8.8,0,0,0,.561.229.776.776,0,0,0,.519-.229l1.038-1.038,1.038,1.038a.775.775,0,0,0,.571.229Z" transform="translate(-111.68 -74.388)" fill="#0771be"/>
      <path id="Path_11756" data-name="Path 11756" d="M213.435,38.224h2.017a5.338,5.338,0,0,0,4.569-2.641,5.41,5.41,0,0,0,.1-5.3,5.341,5.341,0,0,0-4.467-2.812,69.471,69.471,0,0,0,.361-7.093.776.776,0,0,0-.774-.779h-18.15a.776.776,0,0,0-.774.779,69.367,69.367,0,0,0,.366,7.093,5.341,5.341,0,0,0-4.466,2.81,5.41,5.41,0,0,0,.1,5.3,5.338,5.338,0,0,0,4.566,2.643h2.012a17.6,17.6,0,0,0,3.648,6.589,20.95,20.95,0,0,1,.088,7.934h-5.319a.779.779,0,0,0,0,1.557h1.481V66.04h-1.481a.779.779,0,0,0,0,1.558h17.716a.779.779,0,0,0,0-1.558h-1.481V54.306h1.481a.779.779,0,0,0,0-1.557H209.7a20.955,20.955,0,0,1,.088-7.934,17.471,17.471,0,0,0,3.647-6.59Zm5.809-5.385a3.838,3.838,0,0,1-1.11,2.7,3.79,3.79,0,0,1-2.682,1.125h-1.517c.15-.519.289-1.038.423-1.558.026-.109.057-.223.082-.338.129-.519.248-1.07.361-1.62a1.482,1.482,0,0,1,.057-.3c.1-.519.2-1.038.289-1.584a2.07,2.07,0,0,1,.041-.249c.1-.587.181-1.179.263-1.786v-.192h0a3.8,3.8,0,0,1,2.67,1.115,3.846,3.846,0,0,1,1.122,2.681ZM196.88,36.666a3.8,3.8,0,0,1-3.176-1.952,3.848,3.848,0,0,1,0-3.745,3.8,3.8,0,0,1,3.176-1.952.48.48,0,0,0,.026.192c.082.607.165,1.2.263,1.786a1.4,1.4,0,0,0,.041.249c.088.519.186,1.064.289,1.584a1.48,1.48,0,0,0,.057.3c.113.551.232,1.091.361,1.62a1.632,1.632,0,0,0,.082.338c.134.519.274,1.038.423,1.558H196.88Zm1.429-8.5a67.2,67.2,0,0,1-.438-7.01h16.591a67.2,67.2,0,0,1-.438,7.01,47.149,47.149,0,0,1-1.878,9.035c-1.584,4.871-3.818,7.789-5.979,7.789s-4.4-2.908-5.979-7.789a47.157,47.157,0,0,1-1.878-9.035ZM212,66.072H200.337V54.305H212Zm-3.885-13.293h-3.89a20.546,20.546,0,0,0,.1-6.646,4.1,4.1,0,0,0,3.694,0,20.536,20.536,0,0,0,.1,6.615Z" transform="translate(-184.163 -19.599)" fill="#0771be"/>
      <path id="Path_11757" data-name="Path 11757" d="M301.39,418.71v2.861a.779.779,0,0,0,.779.779h7.456a.779.779,0,0,0,.779-.779V418.71a.779.779,0,0,0-.779-.779h-7.456A.779.779,0,0,0,301.39,418.71Zm1.558.779h5.9v1.3h-5.9Z" transform="translate(-283.894 -380.997)" fill="#0771be"/>
      <path id="Path_11758" data-name="Path 11758" d="M283.948,76.176a.783.783,0,0,0,.322.633.757.757,0,0,0,.7.109l3.173-1.038,3.173,1.038a.779.779,0,0,0,1.038-.743V72.837l1.978-2.695h0a.774.774,0,0,0-.39-1.2L290.761,67.9l-1.947-2.716a.779.779,0,0,0-1.267,0l-2,2.742-3.183,1.038a.773.773,0,0,0-.389,1.2l2.015,2.669Zm-.063-6.08,2.4-.763h0a.773.773,0,0,0,.394-.285L288.144,67l1.464,2.046a.773.773,0,0,0,.394.285l2.4.763-1.49,2.025h0a.754.754,0,0,0-.151.467V75.1l-2.389-.794h0a.836.836,0,0,0-.488,0L285.5,75.1V72.587h0a.754.754,0,0,0-.151-.467Z" transform="translate(-266.141 -60.666)" fill="#0771be"/>
    </g>
  </g>
</svg>
