<svg width="21" height="21" viewBox="0 0 21 21" fill="none" xmlns="http://www.w3.org/2000/svg">
<path d="M11.203 9.89818C11.1185 9.81301 11.018 9.74541 10.9073 9.69928C10.7965 9.65315 10.6778 9.62939 10.5578 9.62939C10.4379 9.62939 10.3191 9.65315 10.2084 9.69928C10.0976 9.74541 9.99713 9.81301 9.91265 9.89818L0.82583 18.985C0.654721 19.1561 0.558594 19.3882 0.558594 19.6302C0.558594 19.8722 0.654721 20.1042 0.82583 20.2753C0.996938 20.4464 1.22901 20.5426 1.47099 20.5426C1.71298 20.5426 1.94505 20.4464 2.11616 20.2753L10.5578 11.8246L18.9995 20.2753C19.084 20.3605 19.1845 20.4281 19.2952 20.4742C19.4059 20.5204 19.5247 20.5441 19.6446 20.5441C19.7646 20.5441 19.8834 20.5204 19.9941 20.4742C20.1048 20.4281 20.2053 20.3605 20.2898 20.2753C20.375 20.1909 20.4426 20.0904 20.4887 19.9796C20.5348 19.8689 20.5586 19.7501 20.5586 19.6302C20.5586 19.5102 20.5348 19.3914 20.4887 19.2807C20.4426 19.17 20.375 19.0695 20.2898 18.985L11.203 9.89818Z" fill="white"/>
<path d="M2.11616 11.1884L10.5578 2.73767L18.9995 11.1884C19.084 11.2736 19.1845 11.3412 19.2952 11.3873C19.4059 11.4335 19.5247 11.4572 19.6446 11.4572C19.7646 11.4572 19.8834 11.4335 19.9941 11.3873C20.1048 11.3412 20.2053 11.2736 20.2898 11.1884C20.375 11.1039 20.4426 11.0034 20.4887 10.8927C20.5348 10.782 20.5586 10.6632 20.5586 10.5433C20.5586 10.4233 20.5348 10.3045 20.4887 10.1938C20.4426 10.0831 20.375 9.98257 20.2898 9.89809L11.203 0.811267C11.1185 0.726098 11.018 0.658497 10.9073 0.612365C10.7965 0.566232 10.6778 0.54248 10.5578 0.54248C10.4379 0.54248 10.3191 0.566232 10.2084 0.612365C10.0976 0.658497 9.99713 0.726098 9.91265 0.811267L0.82583 9.89809C0.654721 10.0692 0.558594 10.3013 0.558594 10.5433C0.558594 10.7852 0.654721 11.0173 0.82583 11.1884C0.996938 11.3595 1.22901 11.4557 1.47099 11.4557C1.71298 11.4557 1.94505 11.3595 2.11616 11.1884Z" fill="white"/>
</svg>
