<svg xmlns="http://www.w3.org/2000/svg" width="23.255" height="18.887" viewBox="0 0 23.255 18.887">
  <path id="Icon_awesome-twitter" data-name="Icon awesome-twitter" d="M20.865,8.088c.015.207.015.413.015.62A13.468,13.468,0,0,1,7.319,22.268,13.469,13.469,0,0,1,0,20.129a9.86,9.86,0,0,0,1.151.059,9.545,9.545,0,0,0,5.917-2.036,4.775,4.775,0,0,1-4.456-3.305,6.011,6.011,0,0,0,.9.074,5.041,5.041,0,0,0,1.254-.162A4.767,4.767,0,0,1,.944,10.08v-.059a4.8,4.8,0,0,0,2.154.6A4.773,4.773,0,0,1,1.623,4.251,13.548,13.548,0,0,0,11.45,9.239a5.38,5.38,0,0,1-.118-1.092,4.771,4.771,0,0,1,8.249-3.261,9.384,9.384,0,0,0,3.025-1.151,4.753,4.753,0,0,1-2.1,2.627,9.555,9.555,0,0,0,2.745-.738,10.245,10.245,0,0,1-2.39,2.464Z" transform="translate(0 -3.381)" fill="#fff"/>
</svg>
