<svg xmlns="http://www.w3.org/2000/svg" width="67.957" height="35.787" viewBox="0 0 67.957 35.787">
  <g id="noun-workforce-1924176" transform="translate(0.531 0.5)">
    <path id="Path_52" data-name="Path 52" d="M301.489,181.69c4.395,0,6.927-4.1,6.927-8.865,0-4.693-2.384-7.151-6.927-7.076s-6.927,2.384-6.927,7.076S297.095,181.69,301.489,181.69Z" transform="translate(-268.49 -164.93)" fill="none" stroke="#fcc200" stroke-width="1"/>
    <path id="Path_53" data-name="Path 53" d="M281.082,299.6l-2.607,10.428-.223-7.822h-2.086l-.223,7.822L273.335,299.6c-3.5.969-6.183,3.575-6.183,6.555l-.6,9.535h21.3l-.6-9.535c0-2.98-2.682-5.587-6.182-6.555Z" transform="translate(-244.209 -280.977)" fill="none" stroke="#fcc200" stroke-width="1"/>
    <path id="Path_54" data-name="Path 54" d="M333.76,295.828l.6,2.309h2.235l.6-2.384a3.946,3.946,0,0,0-.969-.074h-1.49c-.3.074-.6.074-.969.149Z" transform="translate(-302.474 -277.577)" fill="none" stroke="#fcc200" stroke-width="1"/>
    <path id="Path_55" data-name="Path 55" d="M446.355,315.193l-.6,9.237h4.47V309.681c-2.309,1.266-3.874,3.278-3.874,5.512Z" transform="translate(-399.575 -289.717)" fill="none" stroke="#fcc200" stroke-width="1"/>
    <path id="Path_56" data-name="Path 56" d="M571.713,315.191c0-2.235-1.565-4.246-3.874-5.512v14.749h4.47Z" transform="translate(-505.416 -289.716)" fill="none" stroke="#fcc200" stroke-width="1"/>
    <path id="Path_57" data-name="Path 57" d="M503.876,300.16h-1.415a8.375,8.375,0,0,0-2.384.3l.969,6.332-.745,9.46h5.736l-.745-9.46.968-6.332a8.368,8.368,0,0,0-2.383-.3Z" transform="translate(-446.667 -281.463)" fill="none" stroke="#fcc200" stroke-width="1"/>
    <path id="Path_58" data-name="Path 58" d="M464.722,167.049H478.5a.831.831,0,1,0,0-1.639h-.3a5.483,5.483,0,0,0-3.65-4.917l-.223.819a.56.56,0,0,1-.522.373h-.074c-.3-.074-.447-.3-.372-.447l.3-1.117a1.457,1.457,0,0,0-1.117-.522h-1.862a1.455,1.455,0,0,0-1.117.522l.3,1.117a.373.373,0,0,1-.373.447h-.074a.561.561,0,0,1-.522-.373l-.223-.819a5.451,5.451,0,0,0-3.725,4.917h-.3a.916.916,0,0,0-.969.819,1.051,1.051,0,0,0,1.043.819Z" transform="translate(-415.111 -159.6)" fill="none" stroke="#fcc200" stroke-width="1"/>
    <path id="Path_59" data-name="Path 59" d="M472.64,226.24c.074,4.47,2.533,8.492,6.779,8.492s6.7-3.874,6.779-8.492Z" transform="translate(-422.88 -217.376)" fill="none" stroke="#fcc200" stroke-width="1"/>
    <path id="Path_60" data-name="Path 60" d="M114.648,191.173c.074.074.074.074.149.074a8.765,8.765,0,0,0,2.384-6.034v-4.991a8.865,8.865,0,0,0-17.729,0v4.991a8.9,8.9,0,0,0,2.384,6.034,5.814,5.814,0,0,0-2.756,4.544l-.522,8.715h6.183l-.074-11.7,4.395-3.352c-.074,0,1.117.074,1.713.149l-4.991,3.8.149,11.1H118l-.522-8.715a5.836,5.836,0,0,0-2.83-4.618Zm-5.959,10.95a.894.894,0,1,1,.894-.894A.906.906,0,0,1,108.689,202.123Zm0-3.352a.906.906,0,0,1-.894-.894.86.86,0,0,1,.894-.894.906.906,0,0,1,.894.894A.858.858,0,0,1,108.689,198.771Zm0-3.278a.894.894,0,1,1,.894-.894A.906.906,0,0,1,108.689,195.494Zm-.372-7.3c-4.022,0-6.332-3.8-6.332-8.045A7.181,7.181,0,0,1,103.1,175.9a14.733,14.733,0,0,0,5.884,3.2,8.293,8.293,0,0,1-.6-1.788,19.731,19.731,0,0,0,6.183,3.65c-.3,3.949-2.607,7.226-6.257,7.226Z" transform="translate(-98.558 -169.794)" fill="none" stroke="#fcc200" stroke-width="1"/>
  </g>
</svg>
